M48
;DRILL file {KiCad (2017-11-24 revision a01d81e4b)-makepkg} date 02/25/18 20:08:35
;FORMAT={-:-/ absolute / metric / decimal}
FMAT,2
METRIC,TZ
T1C0.300
T2C0.330
T3C0.450
T4C0.700
T5C0.800
T6C1.800
T7C0.991
T8C1.100
%
G90
G05
M71
T1
X1.5Y-16.9
X1.523Y-5.307
X3.001Y-5.319
X4.48Y-5.319
X6.583Y-15.208
X8.812Y-15.208
X10.525Y-1.827
X11.1Y-3.75
X13.9Y-13.4
X13.9Y-14.2
X15.409Y-8.68
X17.717Y-7.033
X18.2Y-9.
X18.5Y-12.7
X19.5Y-15.
X20.Y-19.1
X20.3Y-10.527
X20.6Y-12.
X20.958Y-11.046
X21.Y-4.1
X23.442Y-3.642
X24.5Y-0.8
X24.831Y-9.558
X24.888Y-10.466
X26.Y-17.5
X26.7Y-2.9
X26.953Y-7.845
X27.1Y-4.8
X27.178Y-8.89
X28.Y-4.1
X28.1Y-6.5
X28.7Y-2.4
X29.2Y-4.252
X29.39Y-7.467
X29.665Y-9.444
X30.339Y-4.601
X31.006Y-9.965
X31.1Y-4.7
X31.4Y-2.354
X31.5Y-8.9
X33.2Y-6.3
X33.735Y-10.875
X36.558Y-12.475
X37.7Y-21.
T2
X18.008Y-19.104
X18.462Y-4.296
X27.904Y-2.003
X28.5Y-12.8
X32.4Y-14.008
X34.Y-15.2
X35.7Y-5.
T3
X21.15Y-6.4
X21.15Y-7.6
X22.35Y-6.4
X22.35Y-7.6
T4
X41.Y-15.
X41.Y-17.
X41.Y-7.
X41.Y-9.
T5
X23.1Y-11.1
X28.1Y-11.1
T6
X2.75Y-2.75
X2.75Y-21.25
X47.25Y-21.25
X47.25Y-2.75
T7
X30.46Y-12.5
X35.54Y-11.484
X35.54Y-13.516
T8
X43.1Y-13.5
X43.1Y-18.5
X43.1Y-5.5
X43.1Y-10.5
T0
M30
