G04 #@! TF.GenerationSoftware,KiCad,Pcbnew,(2017-11-24 revision a01d81e4b)-makepkg*
G04 #@! TF.CreationDate,2018-02-25T20:08:33+10:30*
G04 #@! TF.ProjectId,ledGlasses,6C6564476C61737365732E6B69636164,rev?*
G04 #@! TF.SameCoordinates,PX5f5e100PY5f5e100*
G04 #@! TF.FileFunction,Copper,L2,Bot,Signal*
G04 #@! TF.FilePolarity,Positive*
%FSLAX46Y46*%
G04 Gerber Fmt 4.6, Leading zero omitted, Abs format (unit mm)*
G04 Created by KiCad (PCBNEW (2017-11-24 revision a01d81e4b)-makepkg) date 02/25/18 20:08:33*
%MOMM*%
%LPD*%
G01*
G04 APERTURE LIST*
%ADD10C,1.000000*%
%ADD11C,1.800000*%
%ADD12C,1.200000*%
%ADD13C,1.400000*%
%ADD14C,1.600000*%
%ADD15C,0.600000*%
%ADD16C,0.685800*%
%ADD17C,0.250000*%
%ADD18C,0.203200*%
%ADD19C,0.152400*%
%ADD20C,0.304800*%
%ADD21C,0.254000*%
%ADD22C,0.190000*%
G04 APERTURE END LIST*
D10*
X21150000Y-6400000D03*
X22350000Y-6400000D03*
X21150000Y-7600000D03*
X22350000Y-7600000D03*
D11*
X47250000Y-2750000D03*
X2750000Y-2750000D03*
X2750000Y-21250000D03*
X47250000Y-21250000D03*
D12*
X43100000Y-18500000D03*
X43100000Y-13500000D03*
D13*
X41000000Y-15000000D03*
X41000000Y-17000000D03*
D12*
X43100000Y-10500000D03*
X43100000Y-5500000D03*
D13*
X41000000Y-7000000D03*
X41000000Y-9000000D03*
D14*
X23100000Y-11100000D03*
X28100000Y-11100000D03*
D15*
X18500000Y-12700000D03*
X20600000Y-12000000D03*
X21000000Y-4100000D03*
X23441757Y-3641757D03*
X28000000Y-4100000D03*
X24500000Y-800000D03*
X33200000Y-6300000D03*
X31400000Y-2354000D03*
X1500000Y-16900000D03*
X15408871Y-8680496D03*
X4480094Y-5318684D03*
X3001359Y-5318684D03*
X1522624Y-5307131D03*
X8812326Y-15207725D03*
X6582671Y-15207725D03*
X11100000Y-3750000D03*
X36558106Y-12474807D03*
D16*
X18008499Y-19104168D03*
X28500000Y-12800000D03*
X34000000Y-15200000D03*
D15*
X20000000Y-19100000D03*
X26000000Y-17500000D03*
X37700000Y-21000000D03*
X26700000Y-2900000D03*
X27100000Y-4800000D03*
X31500000Y-8900000D03*
X18200006Y-9000000D03*
D16*
X18462214Y-4296294D03*
X27903928Y-2003306D03*
X32399982Y-14007771D03*
X35700000Y-5000000D03*
D15*
X19500000Y-15000000D03*
X29200000Y-4252432D03*
X29389550Y-7467220D03*
X29664951Y-9444000D03*
X30339368Y-4600726D03*
X13900000Y-13400000D03*
X24831168Y-9558034D03*
X31100000Y-4700000D03*
X28100000Y-6500000D03*
X20958314Y-11045960D03*
X13900000Y-14200000D03*
X24887891Y-10465611D03*
X28700000Y-2400000D03*
X20300000Y-10527110D03*
X26952698Y-7845302D03*
X33735341Y-10875341D03*
X27178000Y-8890000D03*
X31005846Y-9965066D03*
X10525357Y-1827018D03*
X17717314Y-7032812D03*
D17*
X24100000Y-11500000D02*
X25800000Y-11500000D01*
X23700000Y-11100000D02*
X24100000Y-11500000D01*
X23100000Y-11100000D02*
X23700000Y-11100000D01*
D18*
X16980496Y-8680496D02*
X17854001Y-9554001D01*
X17854001Y-9554001D02*
X20049199Y-9554001D01*
X20049199Y-9554001D02*
X21150000Y-8453200D01*
X21150000Y-8453200D02*
X21150000Y-7600000D01*
X15408871Y-8680496D02*
X16980496Y-8680496D01*
X36558106Y-12474807D02*
X35472227Y-12474807D01*
X35472227Y-12474807D02*
X34000000Y-13947034D01*
X34000000Y-13947034D02*
X34000000Y-14715067D01*
X34000000Y-14715067D02*
X34000000Y-15200000D01*
D19*
X27100000Y-3300000D02*
X26700000Y-2900000D01*
X27100000Y-4800000D02*
X27100000Y-3300000D01*
D20*
X32473894Y-5000000D02*
X32473894Y-5292626D01*
X32473894Y-3600000D02*
X32473894Y-5000000D01*
X35700000Y-5000000D02*
X35215067Y-5000000D01*
X35215067Y-5000000D02*
X32473894Y-5000000D01*
X31832695Y-2958801D02*
X32473894Y-3600000D01*
X30153907Y-2958801D02*
X31832695Y-2958801D01*
X28855513Y-1660407D02*
X30153907Y-2958801D01*
X27903928Y-2003306D02*
X28246827Y-1660407D01*
X28246827Y-1660407D02*
X28855513Y-1660407D01*
X32473894Y-5292626D02*
X32200000Y-5566520D01*
X32200000Y-5566520D02*
X32200000Y-8636000D01*
X31936000Y-8900000D02*
X31924264Y-8900000D01*
X31924264Y-8900000D02*
X31500000Y-8900000D01*
X32200000Y-8636000D02*
X31936000Y-8900000D01*
X34798000Y-8636000D02*
X32200000Y-8636000D01*
X18462214Y-8737792D02*
X18200006Y-9000000D01*
X18462214Y-4296294D02*
X18462214Y-8737792D01*
X35306000Y-9144000D02*
X34798000Y-8636000D01*
X35306000Y-10160000D02*
X35306000Y-9144000D01*
X33274000Y-12192000D02*
X35306000Y-10160000D01*
X32766000Y-12192000D02*
X33274000Y-12192000D01*
X32399982Y-12558018D02*
X32766000Y-12192000D01*
X32399982Y-14007771D02*
X32399982Y-12558018D01*
X19293984Y-4296294D02*
X18462214Y-4296294D01*
X21586972Y-2003306D02*
X19293984Y-4296294D01*
X27903928Y-2003306D02*
X21586972Y-2003306D01*
X31972857Y-14007771D02*
X32399982Y-14007771D01*
X30680629Y-15299999D02*
X31972857Y-14007771D01*
X19500000Y-15000000D02*
X19799999Y-15299999D01*
X19799999Y-15299999D02*
X30680629Y-15299999D01*
D21*
X29499999Y-3952433D02*
X29200000Y-4252432D01*
X31679401Y-4421887D02*
X31209947Y-3952433D01*
X31209947Y-3952433D02*
X29499999Y-3952433D01*
X31679401Y-5601633D02*
X31679401Y-4421887D01*
X29813814Y-7467220D02*
X31679401Y-5601633D01*
X29389550Y-7467220D02*
X29813814Y-7467220D01*
D18*
X29664951Y-9535049D02*
X29664951Y-9444000D01*
X28100000Y-11100000D02*
X29664951Y-9535049D01*
X30400000Y-4661358D02*
X30339368Y-4600726D01*
X30400000Y-5464000D02*
X30400000Y-4661358D01*
X29306390Y-6557610D02*
X30400000Y-5464000D01*
X28862312Y-6557610D02*
X29306390Y-6557610D01*
X28654001Y-6765921D02*
X28862312Y-6557610D01*
X28365921Y-7054001D02*
X28654001Y-6765921D01*
X27484227Y-7054001D02*
X28365921Y-7054001D01*
X27365918Y-6935692D02*
X27484227Y-7054001D01*
X26539479Y-6935691D02*
X27365918Y-6935692D01*
X24831168Y-9558034D02*
X25554745Y-9558034D01*
X25554745Y-9558034D02*
X25912779Y-9200000D01*
X25912779Y-9200000D02*
X25912780Y-7562390D01*
X25912780Y-7562390D02*
X26539479Y-6935691D01*
X14144390Y-13644390D02*
X13900000Y-13400000D01*
X20652702Y-13644390D02*
X14144390Y-13644390D01*
X21690389Y-12606703D02*
X20652702Y-13644390D01*
X21690389Y-10446781D02*
X21690389Y-12606703D01*
X24130644Y-9690389D02*
X22446780Y-9690390D01*
X22446780Y-9690390D02*
X21690389Y-10446781D01*
X24346235Y-9558034D02*
X24213880Y-9690389D01*
X24831168Y-9558034D02*
X24346235Y-9558034D01*
X24213880Y-9690389D02*
X24130644Y-9690389D01*
X26369356Y-6100000D02*
X25201561Y-7267795D01*
X27700000Y-6100000D02*
X26369356Y-6100000D01*
X28600000Y-5200000D02*
X27700000Y-6100000D01*
X28600000Y-4032510D02*
X28600000Y-5200000D01*
X28700000Y-3932510D02*
X28600000Y-4032510D01*
X28700000Y-2400000D02*
X28700000Y-3932510D01*
X21952702Y-8874408D02*
X20300000Y-10527110D01*
X25201561Y-7267795D02*
X25201561Y-7798439D01*
X25201561Y-7798439D02*
X24912781Y-8087219D01*
X24912781Y-8087219D02*
X24309873Y-8087219D01*
X24309873Y-8087219D02*
X23522684Y-8874408D01*
X23522684Y-8874408D02*
X21952702Y-8874408D01*
X30800000Y-5600000D02*
X29486780Y-6913220D01*
X30800000Y-5600000D02*
X30800001Y-4999999D01*
X30800001Y-4999999D02*
X31100000Y-4700000D01*
X29009610Y-6913220D02*
X29486780Y-6913220D01*
X27336929Y-7409611D02*
X28513219Y-7409611D01*
X24887891Y-10465611D02*
X25372824Y-10465611D01*
X28513219Y-7409611D02*
X29009610Y-6913220D01*
X25372824Y-10465611D02*
X26268389Y-9570046D01*
X26268389Y-9570046D02*
X26268389Y-7709689D01*
X26268389Y-7709689D02*
X26686777Y-7291301D01*
X26686777Y-7291301D02*
X27218619Y-7291301D01*
X27218619Y-7291301D02*
X27336929Y-7409611D01*
X23669982Y-9230018D02*
X24457172Y-8442828D01*
X24457172Y-8442828D02*
X25060080Y-8442828D01*
X21301213Y-10028805D02*
X22100000Y-9230018D01*
X22100000Y-9230018D02*
X23669982Y-9230018D01*
X20958314Y-11045960D02*
X21301213Y-10703061D01*
X21301213Y-10703061D02*
X21301213Y-10028805D01*
X25060080Y-8442828D02*
X25557171Y-7945737D01*
X26472262Y-6500000D02*
X28100000Y-6500000D01*
X25557171Y-7945737D02*
X25557171Y-7415093D01*
X25557171Y-7415093D02*
X26472262Y-6500000D01*
X22594079Y-10045999D02*
X22045999Y-10594079D01*
X23983346Y-10045999D02*
X22594079Y-10045999D01*
X24887891Y-10465611D02*
X24402958Y-10465611D01*
X24402958Y-10465611D02*
X23983346Y-10045999D01*
X22045999Y-10594079D02*
X22045999Y-12754001D01*
X22045999Y-12754001D02*
X20800000Y-14000000D01*
X20800000Y-14000000D02*
X14100000Y-14000000D01*
X14100000Y-14000000D02*
X13900000Y-14200000D01*
X32456901Y-9596901D02*
X31457603Y-9596901D01*
X31457603Y-9596901D02*
X31314703Y-9454001D01*
X31314703Y-9454001D02*
X31234079Y-9454001D01*
X30643688Y-9100000D02*
X30078078Y-8534390D01*
X30643688Y-9100000D02*
X30880078Y-9100000D01*
X30880078Y-9100000D02*
X31234079Y-9454001D01*
X30078078Y-8534390D02*
X27641786Y-8534390D01*
X27641786Y-8534390D02*
X26952698Y-7845302D01*
X33735341Y-10875341D02*
X32456901Y-9596901D01*
X33379067Y-10519067D02*
X33735341Y-10875341D01*
X27178000Y-8890000D02*
X29200000Y-8890000D01*
X31005846Y-9965066D02*
X29930780Y-8890000D01*
X29930780Y-8890000D02*
X29200000Y-8890000D01*
X17717314Y-3617314D02*
X15927018Y-1827018D01*
X15927018Y-1827018D02*
X10525357Y-1827018D01*
X17717314Y-7032812D02*
X17717314Y-3617314D01*
D22*
G36*
X29688139Y-12701468D02*
X29789626Y-12947084D01*
X30011746Y-13169593D01*
X30302110Y-13290163D01*
X30355860Y-13290210D01*
X31206779Y-14141129D01*
X30495309Y-14852599D01*
X20082886Y-14852599D01*
X20004711Y-14663400D01*
X19837481Y-14495877D01*
X19618872Y-14405103D01*
X19382166Y-14404897D01*
X19163400Y-14495289D01*
X18995877Y-14662519D01*
X18905103Y-14881128D01*
X18904897Y-15117834D01*
X18995289Y-15336600D01*
X19162519Y-15504123D01*
X19381128Y-15594897D01*
X19462249Y-15594968D01*
X19483637Y-15616356D01*
X19483639Y-15616359D01*
X19628786Y-15713343D01*
X19657193Y-15718993D01*
X19799999Y-15747400D01*
X19800004Y-15747399D01*
X30680624Y-15747399D01*
X30680629Y-15747400D01*
X30823435Y-15718993D01*
X30851842Y-15713343D01*
X30996989Y-15616359D01*
X31417809Y-15195538D01*
X39797382Y-15195538D01*
X39963755Y-15640876D01*
X40011354Y-15712113D01*
X40222430Y-15770499D01*
X40992929Y-15000000D01*
X41007071Y-15000000D01*
X41777570Y-15770499D01*
X41988646Y-15712113D01*
X42185904Y-15279568D01*
X42202618Y-14804462D01*
X42036245Y-14359124D01*
X41988646Y-14287887D01*
X41777570Y-14229501D01*
X41007071Y-15000000D01*
X40992929Y-15000000D01*
X40222430Y-14229501D01*
X40011354Y-14287887D01*
X39814096Y-14720432D01*
X39797382Y-15195538D01*
X31417809Y-15195538D01*
X32057203Y-14556144D01*
X32272539Y-14645560D01*
X32526311Y-14645781D01*
X32760851Y-14548871D01*
X32814816Y-14495000D01*
X36350000Y-14495000D01*
X36386355Y-14487769D01*
X36813132Y-14310992D01*
X36843952Y-14290398D01*
X36911920Y-14222430D01*
X40229501Y-14222430D01*
X41000000Y-14992929D01*
X41770499Y-14222430D01*
X41712113Y-14011354D01*
X41279568Y-13814096D01*
X40804462Y-13797382D01*
X40359124Y-13963755D01*
X40287887Y-14011354D01*
X40229501Y-14222430D01*
X36911920Y-14222430D01*
X37457105Y-13677245D01*
X42204845Y-13677245D01*
X42340814Y-14006314D01*
X42592361Y-14258302D01*
X42921192Y-14394844D01*
X43277245Y-14395155D01*
X43606314Y-14259186D01*
X43858302Y-14007639D01*
X43994844Y-13678808D01*
X43995155Y-13322755D01*
X43859186Y-12993686D01*
X43607639Y-12741698D01*
X43278808Y-12605156D01*
X42922755Y-12604845D01*
X42593686Y-12740814D01*
X42341698Y-12992361D01*
X42205156Y-13321192D01*
X42204845Y-13677245D01*
X37457105Y-13677245D01*
X38377035Y-12757315D01*
X38768898Y-12595000D01*
X49630000Y-12595000D01*
X49630000Y-21213556D01*
X49442136Y-22158013D01*
X48927789Y-22927789D01*
X48158013Y-23442136D01*
X47213556Y-23630000D01*
X16595000Y-23630000D01*
X16595000Y-21486657D01*
X46054793Y-21486657D01*
X46236338Y-21926029D01*
X46572203Y-22262481D01*
X47011257Y-22444792D01*
X47486657Y-22445207D01*
X47926029Y-22263662D01*
X48262481Y-21927797D01*
X48444792Y-21488743D01*
X48445207Y-21013343D01*
X48263662Y-20573971D01*
X47927797Y-20237519D01*
X47488743Y-20055208D01*
X47013343Y-20054793D01*
X46573971Y-20236338D01*
X46237519Y-20572203D01*
X46055208Y-21011257D01*
X46054793Y-21486657D01*
X16595000Y-21486657D01*
X16595000Y-18677245D01*
X42204845Y-18677245D01*
X42340814Y-19006314D01*
X42592361Y-19258302D01*
X42921192Y-19394844D01*
X43277245Y-19395155D01*
X43606314Y-19259186D01*
X43858302Y-19007639D01*
X43994844Y-18678808D01*
X43995155Y-18322755D01*
X43859186Y-17993686D01*
X43607639Y-17741698D01*
X43278808Y-17605156D01*
X42922755Y-17604845D01*
X42593686Y-17740814D01*
X42341698Y-17992361D01*
X42205156Y-18321192D01*
X42204845Y-18677245D01*
X16595000Y-18677245D01*
X16595000Y-17197049D01*
X40004828Y-17197049D01*
X40155988Y-17562886D01*
X40435642Y-17843028D01*
X40801214Y-17994827D01*
X41197049Y-17995172D01*
X41562886Y-17844012D01*
X41843028Y-17564358D01*
X41994827Y-17198786D01*
X41995172Y-16802951D01*
X41844012Y-16437114D01*
X41564358Y-16156972D01*
X41447550Y-16108469D01*
X41640876Y-16036245D01*
X41712113Y-15988646D01*
X41770499Y-15777570D01*
X41000000Y-15007071D01*
X40229501Y-15777570D01*
X40287887Y-15988646D01*
X40551340Y-16108791D01*
X40437114Y-16155988D01*
X40156972Y-16435642D01*
X40005173Y-16801214D01*
X40004828Y-17197049D01*
X16595000Y-17197049D01*
X16595000Y-14396600D01*
X20799995Y-14396600D01*
X20800000Y-14396601D01*
X20951773Y-14366411D01*
X21080439Y-14280439D01*
X22326435Y-13034442D01*
X22326438Y-13034440D01*
X22412410Y-12905773D01*
X22424374Y-12845626D01*
X22442600Y-12754001D01*
X22442599Y-12753996D01*
X22442599Y-12595000D01*
X29431102Y-12595000D01*
X29688139Y-12701468D01*
X29688139Y-12701468D01*
G37*
X29688139Y-12701468D02*
X29789626Y-12947084D01*
X30011746Y-13169593D01*
X30302110Y-13290163D01*
X30355860Y-13290210D01*
X31206779Y-14141129D01*
X30495309Y-14852599D01*
X20082886Y-14852599D01*
X20004711Y-14663400D01*
X19837481Y-14495877D01*
X19618872Y-14405103D01*
X19382166Y-14404897D01*
X19163400Y-14495289D01*
X18995877Y-14662519D01*
X18905103Y-14881128D01*
X18904897Y-15117834D01*
X18995289Y-15336600D01*
X19162519Y-15504123D01*
X19381128Y-15594897D01*
X19462249Y-15594968D01*
X19483637Y-15616356D01*
X19483639Y-15616359D01*
X19628786Y-15713343D01*
X19657193Y-15718993D01*
X19799999Y-15747400D01*
X19800004Y-15747399D01*
X30680624Y-15747399D01*
X30680629Y-15747400D01*
X30823435Y-15718993D01*
X30851842Y-15713343D01*
X30996989Y-15616359D01*
X31417809Y-15195538D01*
X39797382Y-15195538D01*
X39963755Y-15640876D01*
X40011354Y-15712113D01*
X40222430Y-15770499D01*
X40992929Y-15000000D01*
X41007071Y-15000000D01*
X41777570Y-15770499D01*
X41988646Y-15712113D01*
X42185904Y-15279568D01*
X42202618Y-14804462D01*
X42036245Y-14359124D01*
X41988646Y-14287887D01*
X41777570Y-14229501D01*
X41007071Y-15000000D01*
X40992929Y-15000000D01*
X40222430Y-14229501D01*
X40011354Y-14287887D01*
X39814096Y-14720432D01*
X39797382Y-15195538D01*
X31417809Y-15195538D01*
X32057203Y-14556144D01*
X32272539Y-14645560D01*
X32526311Y-14645781D01*
X32760851Y-14548871D01*
X32814816Y-14495000D01*
X36350000Y-14495000D01*
X36386355Y-14487769D01*
X36813132Y-14310992D01*
X36843952Y-14290398D01*
X36911920Y-14222430D01*
X40229501Y-14222430D01*
X41000000Y-14992929D01*
X41770499Y-14222430D01*
X41712113Y-14011354D01*
X41279568Y-13814096D01*
X40804462Y-13797382D01*
X40359124Y-13963755D01*
X40287887Y-14011354D01*
X40229501Y-14222430D01*
X36911920Y-14222430D01*
X37457105Y-13677245D01*
X42204845Y-13677245D01*
X42340814Y-14006314D01*
X42592361Y-14258302D01*
X42921192Y-14394844D01*
X43277245Y-14395155D01*
X43606314Y-14259186D01*
X43858302Y-14007639D01*
X43994844Y-13678808D01*
X43995155Y-13322755D01*
X43859186Y-12993686D01*
X43607639Y-12741698D01*
X43278808Y-12605156D01*
X42922755Y-12604845D01*
X42593686Y-12740814D01*
X42341698Y-12992361D01*
X42205156Y-13321192D01*
X42204845Y-13677245D01*
X37457105Y-13677245D01*
X38377035Y-12757315D01*
X38768898Y-12595000D01*
X49630000Y-12595000D01*
X49630000Y-21213556D01*
X49442136Y-22158013D01*
X48927789Y-22927789D01*
X48158013Y-23442136D01*
X47213556Y-23630000D01*
X16595000Y-23630000D01*
X16595000Y-21486657D01*
X46054793Y-21486657D01*
X46236338Y-21926029D01*
X46572203Y-22262481D01*
X47011257Y-22444792D01*
X47486657Y-22445207D01*
X47926029Y-22263662D01*
X48262481Y-21927797D01*
X48444792Y-21488743D01*
X48445207Y-21013343D01*
X48263662Y-20573971D01*
X47927797Y-20237519D01*
X47488743Y-20055208D01*
X47013343Y-20054793D01*
X46573971Y-20236338D01*
X46237519Y-20572203D01*
X46055208Y-21011257D01*
X46054793Y-21486657D01*
X16595000Y-21486657D01*
X16595000Y-18677245D01*
X42204845Y-18677245D01*
X42340814Y-19006314D01*
X42592361Y-19258302D01*
X42921192Y-19394844D01*
X43277245Y-19395155D01*
X43606314Y-19259186D01*
X43858302Y-19007639D01*
X43994844Y-18678808D01*
X43995155Y-18322755D01*
X43859186Y-17993686D01*
X43607639Y-17741698D01*
X43278808Y-17605156D01*
X42922755Y-17604845D01*
X42593686Y-17740814D01*
X42341698Y-17992361D01*
X42205156Y-18321192D01*
X42204845Y-18677245D01*
X16595000Y-18677245D01*
X16595000Y-17197049D01*
X40004828Y-17197049D01*
X40155988Y-17562886D01*
X40435642Y-17843028D01*
X40801214Y-17994827D01*
X41197049Y-17995172D01*
X41562886Y-17844012D01*
X41843028Y-17564358D01*
X41994827Y-17198786D01*
X41995172Y-16802951D01*
X41844012Y-16437114D01*
X41564358Y-16156972D01*
X41447550Y-16108469D01*
X41640876Y-16036245D01*
X41712113Y-15988646D01*
X41770499Y-15777570D01*
X41000000Y-15007071D01*
X40229501Y-15777570D01*
X40287887Y-15988646D01*
X40551340Y-16108791D01*
X40437114Y-16155988D01*
X40156972Y-16435642D01*
X40005173Y-16801214D01*
X40004828Y-17197049D01*
X16595000Y-17197049D01*
X16595000Y-14396600D01*
X20799995Y-14396600D01*
X20800000Y-14396601D01*
X20951773Y-14366411D01*
X21080439Y-14280439D01*
X22326435Y-13034442D01*
X22326438Y-13034440D01*
X22412410Y-12905773D01*
X22424374Y-12845626D01*
X22442600Y-12754001D01*
X22442599Y-12753996D01*
X22442599Y-12595000D01*
X29431102Y-12595000D01*
X29688139Y-12701468D01*
G36*
X5155000Y-4000000D02*
X5162231Y-4036355D01*
X5339008Y-4463132D01*
X5359602Y-4493952D01*
X6256048Y-5390398D01*
X6286868Y-5410992D01*
X6713645Y-5587769D01*
X6750000Y-5595000D01*
X15710650Y-5595000D01*
X15905000Y-5789350D01*
X15905000Y-13247790D01*
X14480899Y-13247790D01*
X14404711Y-13063400D01*
X14237481Y-12895877D01*
X14018872Y-12805103D01*
X13782166Y-12804897D01*
X13563400Y-12895289D01*
X13395877Y-13062519D01*
X13305103Y-13281128D01*
X13304897Y-13517834D01*
X13395289Y-13736600D01*
X13458542Y-13799964D01*
X13395877Y-13862519D01*
X13305103Y-14081128D01*
X13304897Y-14317834D01*
X13395289Y-14536600D01*
X13562519Y-14704123D01*
X13781128Y-14794897D01*
X14017834Y-14795103D01*
X14236600Y-14704711D01*
X14404123Y-14537481D01*
X14462622Y-14396600D01*
X15905000Y-14396600D01*
X15905000Y-23630000D01*
X2786444Y-23630000D01*
X1841987Y-23442136D01*
X1072211Y-22927789D01*
X557864Y-22158013D01*
X424324Y-21486657D01*
X1554793Y-21486657D01*
X1736338Y-21926029D01*
X2072203Y-22262481D01*
X2511257Y-22444792D01*
X2986657Y-22445207D01*
X3426029Y-22263662D01*
X3762481Y-21927797D01*
X3944792Y-21488743D01*
X3945207Y-21013343D01*
X3763662Y-20573971D01*
X3427797Y-20237519D01*
X2988743Y-20055208D01*
X2513343Y-20054793D01*
X2073971Y-20236338D01*
X1737519Y-20572203D01*
X1555208Y-21011257D01*
X1554793Y-21486657D01*
X424324Y-21486657D01*
X370000Y-21213556D01*
X370000Y-2986657D01*
X1554793Y-2986657D01*
X1736338Y-3426029D01*
X2072203Y-3762481D01*
X2511257Y-3944792D01*
X2986657Y-3945207D01*
X3426029Y-3763662D01*
X3762481Y-3427797D01*
X3944792Y-2988743D01*
X3945207Y-2513343D01*
X3763662Y-2073971D01*
X3427797Y-1737519D01*
X2988743Y-1555208D01*
X2513343Y-1554793D01*
X2073971Y-1736338D01*
X1737519Y-2072203D01*
X1555208Y-2511257D01*
X1554793Y-2986657D01*
X370000Y-2986657D01*
X370000Y-2786444D01*
X557864Y-1841987D01*
X1072211Y-1072211D01*
X1841987Y-557864D01*
X2786444Y-370000D01*
X5155000Y-370000D01*
X5155000Y-4000000D01*
X5155000Y-4000000D01*
G37*
X5155000Y-4000000D02*
X5162231Y-4036355D01*
X5339008Y-4463132D01*
X5359602Y-4493952D01*
X6256048Y-5390398D01*
X6286868Y-5410992D01*
X6713645Y-5587769D01*
X6750000Y-5595000D01*
X15710650Y-5595000D01*
X15905000Y-5789350D01*
X15905000Y-13247790D01*
X14480899Y-13247790D01*
X14404711Y-13063400D01*
X14237481Y-12895877D01*
X14018872Y-12805103D01*
X13782166Y-12804897D01*
X13563400Y-12895289D01*
X13395877Y-13062519D01*
X13305103Y-13281128D01*
X13304897Y-13517834D01*
X13395289Y-13736600D01*
X13458542Y-13799964D01*
X13395877Y-13862519D01*
X13305103Y-14081128D01*
X13304897Y-14317834D01*
X13395289Y-14536600D01*
X13562519Y-14704123D01*
X13781128Y-14794897D01*
X14017834Y-14795103D01*
X14236600Y-14704711D01*
X14404123Y-14537481D01*
X14462622Y-14396600D01*
X15905000Y-14396600D01*
X15905000Y-23630000D01*
X2786444Y-23630000D01*
X1841987Y-23442136D01*
X1072211Y-22927789D01*
X557864Y-22158013D01*
X424324Y-21486657D01*
X1554793Y-21486657D01*
X1736338Y-21926029D01*
X2072203Y-22262481D01*
X2511257Y-22444792D01*
X2986657Y-22445207D01*
X3426029Y-22263662D01*
X3762481Y-21927797D01*
X3944792Y-21488743D01*
X3945207Y-21013343D01*
X3763662Y-20573971D01*
X3427797Y-20237519D01*
X2988743Y-20055208D01*
X2513343Y-20054793D01*
X2073971Y-20236338D01*
X1737519Y-20572203D01*
X1555208Y-21011257D01*
X1554793Y-21486657D01*
X424324Y-21486657D01*
X370000Y-21213556D01*
X370000Y-2986657D01*
X1554793Y-2986657D01*
X1736338Y-3426029D01*
X2072203Y-3762481D01*
X2511257Y-3944792D01*
X2986657Y-3945207D01*
X3426029Y-3763662D01*
X3762481Y-3427797D01*
X3944792Y-2988743D01*
X3945207Y-2513343D01*
X3763662Y-2073971D01*
X3427797Y-1737519D01*
X2988743Y-1555208D01*
X2513343Y-1554793D01*
X2073971Y-1736338D01*
X1737519Y-2072203D01*
X1555208Y-2511257D01*
X1554793Y-2986657D01*
X370000Y-2986657D01*
X370000Y-2786444D01*
X557864Y-1841987D01*
X1072211Y-1072211D01*
X1841987Y-557864D01*
X2786444Y-370000D01*
X5155000Y-370000D01*
X5155000Y-4000000D01*
G36*
X48158013Y-557864D02*
X48927789Y-1072211D01*
X49442136Y-1841987D01*
X49630000Y-2786444D01*
X49630000Y-11905000D01*
X38500000Y-11905000D01*
X38463645Y-11912231D01*
X38036868Y-12089008D01*
X38006048Y-12109602D01*
X36372965Y-13742685D01*
X36286772Y-13778387D01*
X36330163Y-13673890D01*
X36330437Y-13359489D01*
X36210374Y-13068916D01*
X35988254Y-12846407D01*
X35697890Y-12725837D01*
X35383489Y-12725563D01*
X35092916Y-12845626D01*
X34870407Y-13067746D01*
X34749837Y-13358110D01*
X34749563Y-13672511D01*
X34845626Y-13905000D01*
X33037971Y-13905000D01*
X33037992Y-13881442D01*
X32941082Y-13646902D01*
X32847382Y-13553038D01*
X32847382Y-12743338D01*
X32951319Y-12639400D01*
X33273995Y-12639400D01*
X33274000Y-12639401D01*
X33416806Y-12610994D01*
X33445213Y-12605344D01*
X33590360Y-12508360D01*
X34749817Y-11348903D01*
X34749563Y-11640511D01*
X34869626Y-11931084D01*
X35091746Y-12153593D01*
X35382110Y-12274163D01*
X35696511Y-12274437D01*
X35987084Y-12154374D01*
X36209593Y-11932254D01*
X36330163Y-11641890D01*
X36330437Y-11327489D01*
X36210374Y-11036916D01*
X35988254Y-10814407D01*
X35697890Y-10693837D01*
X35405138Y-10693582D01*
X35421475Y-10677245D01*
X42204845Y-10677245D01*
X42340814Y-11006314D01*
X42592361Y-11258302D01*
X42921192Y-11394844D01*
X43277245Y-11395155D01*
X43606314Y-11259186D01*
X43858302Y-11007639D01*
X43994844Y-10678808D01*
X43995155Y-10322755D01*
X43859186Y-9993686D01*
X43607639Y-9741698D01*
X43278808Y-9605156D01*
X42922755Y-9604845D01*
X42593686Y-9740814D01*
X42341698Y-9992361D01*
X42205156Y-10321192D01*
X42204845Y-10677245D01*
X35421475Y-10677245D01*
X35622360Y-10476360D01*
X35626759Y-10469777D01*
X35719344Y-10331213D01*
X35726546Y-10295008D01*
X35753401Y-10160000D01*
X35753400Y-10159995D01*
X35753400Y-9197049D01*
X40004828Y-9197049D01*
X40155988Y-9562886D01*
X40435642Y-9843028D01*
X40801214Y-9994827D01*
X41197049Y-9995172D01*
X41562886Y-9844012D01*
X41843028Y-9564358D01*
X41994827Y-9198786D01*
X41995172Y-8802951D01*
X41844012Y-8437114D01*
X41564358Y-8156972D01*
X41198786Y-8005173D01*
X40802951Y-8004828D01*
X40437114Y-8155988D01*
X40156972Y-8435642D01*
X40005173Y-8801214D01*
X40004828Y-9197049D01*
X35753400Y-9197049D01*
X35753400Y-9144000D01*
X35719344Y-8972787D01*
X35622360Y-8827640D01*
X35622357Y-8827638D01*
X35114360Y-8319640D01*
X35092604Y-8305103D01*
X34969213Y-8222656D01*
X34940806Y-8217006D01*
X34798000Y-8188599D01*
X34797995Y-8188600D01*
X32647400Y-8188600D01*
X32647400Y-7197049D01*
X40004828Y-7197049D01*
X40155988Y-7562886D01*
X40435642Y-7843028D01*
X40801214Y-7994827D01*
X41197049Y-7995172D01*
X41562886Y-7844012D01*
X41843028Y-7564358D01*
X41994827Y-7198786D01*
X41995172Y-6802951D01*
X41844012Y-6437114D01*
X41564358Y-6156972D01*
X41198786Y-6005173D01*
X40802951Y-6004828D01*
X40437114Y-6155988D01*
X40156972Y-6435642D01*
X40005173Y-6801214D01*
X40004828Y-7197049D01*
X32647400Y-7197049D01*
X32647400Y-5751840D01*
X32721994Y-5677245D01*
X42204845Y-5677245D01*
X42340814Y-6006314D01*
X42592361Y-6258302D01*
X42921192Y-6394844D01*
X43277245Y-6395155D01*
X43606314Y-6259186D01*
X43858302Y-6007639D01*
X43994844Y-5678808D01*
X43995155Y-5322755D01*
X43859186Y-4993686D01*
X43607639Y-4741698D01*
X43278808Y-4605156D01*
X42922755Y-4604845D01*
X42593686Y-4740814D01*
X42341698Y-4992361D01*
X42205156Y-5321192D01*
X42204845Y-5677245D01*
X32721994Y-5677245D01*
X32790251Y-5608988D01*
X32790254Y-5608986D01*
X32887238Y-5463839D01*
X32890508Y-5447400D01*
X35245280Y-5447400D01*
X35338187Y-5540470D01*
X35572557Y-5637789D01*
X35826329Y-5638010D01*
X36060869Y-5541100D01*
X36240470Y-5361813D01*
X36337789Y-5127443D01*
X36338010Y-4873671D01*
X36241100Y-4639131D01*
X36061813Y-4459530D01*
X35827443Y-4362211D01*
X35573671Y-4361990D01*
X35339131Y-4458900D01*
X35245267Y-4552600D01*
X32921294Y-4552600D01*
X32921294Y-3600000D01*
X32887238Y-3428787D01*
X32790254Y-3283640D01*
X32790251Y-3283638D01*
X32493271Y-2986657D01*
X46054793Y-2986657D01*
X46236338Y-3426029D01*
X46572203Y-3762481D01*
X47011257Y-3944792D01*
X47486657Y-3945207D01*
X47926029Y-3763662D01*
X48262481Y-3427797D01*
X48444792Y-2988743D01*
X48445207Y-2513343D01*
X48263662Y-2073971D01*
X47927797Y-1737519D01*
X47488743Y-1555208D01*
X47013343Y-1554793D01*
X46573971Y-1736338D01*
X46237519Y-2072203D01*
X46055208Y-2511257D01*
X46054793Y-2986657D01*
X32493271Y-2986657D01*
X32149055Y-2642441D01*
X32098119Y-2608407D01*
X32003908Y-2545457D01*
X31975501Y-2539807D01*
X31832695Y-2511400D01*
X31832690Y-2511401D01*
X30339226Y-2511401D01*
X29171873Y-1344047D01*
X29139337Y-1322307D01*
X29026726Y-1247063D01*
X28998319Y-1241413D01*
X28855513Y-1213006D01*
X28855508Y-1213007D01*
X28246827Y-1213007D01*
X28075614Y-1247063D01*
X27930467Y-1344047D01*
X27930465Y-1344050D01*
X27909104Y-1365411D01*
X27777599Y-1365296D01*
X27543059Y-1462206D01*
X27449195Y-1555906D01*
X21586977Y-1555906D01*
X21586972Y-1555905D01*
X21444166Y-1584312D01*
X21415759Y-1589962D01*
X21270612Y-1686946D01*
X21270610Y-1686949D01*
X19108664Y-3848894D01*
X18916934Y-3848894D01*
X18824027Y-3755824D01*
X18589657Y-3658505D01*
X18335885Y-3658284D01*
X18113914Y-3750001D01*
X18113914Y-3617319D01*
X18113915Y-3617314D01*
X18083725Y-3465541D01*
X17997753Y-3336875D01*
X17997750Y-3336873D01*
X16207457Y-1546579D01*
X16078791Y-1460607D01*
X15927018Y-1430417D01*
X15927013Y-1430418D01*
X10970173Y-1430418D01*
X10862838Y-1322895D01*
X10644229Y-1232121D01*
X10407523Y-1231915D01*
X10188757Y-1322307D01*
X10021234Y-1489537D01*
X9930460Y-1708146D01*
X9930254Y-1944852D01*
X10020646Y-2163618D01*
X10187876Y-2331141D01*
X10406485Y-2421915D01*
X10643191Y-2422121D01*
X10861957Y-2331729D01*
X10970257Y-2223618D01*
X15762740Y-2223618D01*
X17320714Y-3781591D01*
X17320714Y-6587996D01*
X17213191Y-6695331D01*
X17122417Y-6913940D01*
X17122211Y-7150646D01*
X17212603Y-7369412D01*
X17379833Y-7536935D01*
X17598442Y-7627709D01*
X17835148Y-7627915D01*
X18014814Y-7553679D01*
X18014814Y-8432729D01*
X17863406Y-8495289D01*
X17695883Y-8662519D01*
X17605109Y-8881128D01*
X17604903Y-9117834D01*
X17695295Y-9336600D01*
X17862525Y-9504123D01*
X18081134Y-9594897D01*
X18317840Y-9595103D01*
X18536606Y-9504711D01*
X18704129Y-9337481D01*
X18794903Y-9118872D01*
X18794981Y-9029598D01*
X18875558Y-8909005D01*
X18887514Y-8848897D01*
X18909615Y-8737792D01*
X18909614Y-8737787D01*
X18909614Y-4751014D01*
X18916947Y-4743694D01*
X19293979Y-4743694D01*
X19293984Y-4743695D01*
X19436790Y-4715288D01*
X19465197Y-4709638D01*
X19610344Y-4612654D01*
X21772291Y-2450706D01*
X26307886Y-2450706D01*
X26195877Y-2562519D01*
X26105103Y-2781128D01*
X26104897Y-3017834D01*
X26195289Y-3236600D01*
X26362519Y-3404123D01*
X26581128Y-3494897D01*
X26728800Y-3495026D01*
X26728800Y-4329828D01*
X26595877Y-4462519D01*
X26505103Y-4681128D01*
X26504897Y-4917834D01*
X26595289Y-5136600D01*
X26762519Y-5304123D01*
X26981128Y-5394897D01*
X27217834Y-5395103D01*
X27436600Y-5304711D01*
X27604123Y-5137481D01*
X27694897Y-4918872D01*
X27695103Y-4682166D01*
X27604711Y-4463400D01*
X27471200Y-4329655D01*
X27471200Y-3300000D01*
X27442944Y-3157948D01*
X27362478Y-3037522D01*
X27294940Y-2969984D01*
X27295103Y-2782166D01*
X27204711Y-2563400D01*
X27092214Y-2450706D01*
X27449208Y-2450706D01*
X27542115Y-2543776D01*
X27776485Y-2641095D01*
X28030257Y-2641316D01*
X28137593Y-2596965D01*
X28195289Y-2736600D01*
X28303400Y-2844900D01*
X28303400Y-3776258D01*
X28233589Y-3880737D01*
X28203399Y-4032510D01*
X28203400Y-4032515D01*
X28203400Y-5035723D01*
X27535722Y-5703400D01*
X26369361Y-5703400D01*
X26369356Y-5703399D01*
X26217584Y-5733589D01*
X26088917Y-5819561D01*
X26088915Y-5819564D01*
X24921122Y-6987356D01*
X24835150Y-7116022D01*
X24804960Y-7267795D01*
X24804961Y-7267800D01*
X24804961Y-7634162D01*
X24748503Y-7690619D01*
X24309873Y-7690619D01*
X24158101Y-7720808D01*
X24029434Y-7806780D01*
X24029432Y-7806783D01*
X23358406Y-8477808D01*
X21952707Y-8477808D01*
X21952702Y-8477807D01*
X21800930Y-8507997D01*
X21672263Y-8593969D01*
X21672261Y-8593972D01*
X20334093Y-9932139D01*
X20182166Y-9932007D01*
X19963400Y-10022399D01*
X19795877Y-10189629D01*
X19705103Y-10408238D01*
X19704897Y-10644944D01*
X19795289Y-10863710D01*
X19962519Y-11031233D01*
X20181128Y-11122007D01*
X20363247Y-11122165D01*
X20363211Y-11163794D01*
X20453603Y-11382560D01*
X20620833Y-11550083D01*
X20839442Y-11640857D01*
X21076148Y-11641063D01*
X21293789Y-11551136D01*
X21293789Y-12321861D01*
X20622965Y-12992685D01*
X20231102Y-13155000D01*
X16789181Y-13155000D01*
X16593246Y-12960249D01*
X16546513Y-5249419D01*
X16539062Y-5213109D01*
X16518486Y-5182617D01*
X16266971Y-4932622D01*
X16236089Y-4912122D01*
X16200000Y-4905000D01*
X7018898Y-4905000D01*
X6627035Y-4742685D01*
X6007315Y-4122965D01*
X5845000Y-3731102D01*
X5845000Y-370000D01*
X47213556Y-370000D01*
X48158013Y-557864D01*
X48158013Y-557864D01*
G37*
X48158013Y-557864D02*
X48927789Y-1072211D01*
X49442136Y-1841987D01*
X49630000Y-2786444D01*
X49630000Y-11905000D01*
X38500000Y-11905000D01*
X38463645Y-11912231D01*
X38036868Y-12089008D01*
X38006048Y-12109602D01*
X36372965Y-13742685D01*
X36286772Y-13778387D01*
X36330163Y-13673890D01*
X36330437Y-13359489D01*
X36210374Y-13068916D01*
X35988254Y-12846407D01*
X35697890Y-12725837D01*
X35383489Y-12725563D01*
X35092916Y-12845626D01*
X34870407Y-13067746D01*
X34749837Y-13358110D01*
X34749563Y-13672511D01*
X34845626Y-13905000D01*
X33037971Y-13905000D01*
X33037992Y-13881442D01*
X32941082Y-13646902D01*
X32847382Y-13553038D01*
X32847382Y-12743338D01*
X32951319Y-12639400D01*
X33273995Y-12639400D01*
X33274000Y-12639401D01*
X33416806Y-12610994D01*
X33445213Y-12605344D01*
X33590360Y-12508360D01*
X34749817Y-11348903D01*
X34749563Y-11640511D01*
X34869626Y-11931084D01*
X35091746Y-12153593D01*
X35382110Y-12274163D01*
X35696511Y-12274437D01*
X35987084Y-12154374D01*
X36209593Y-11932254D01*
X36330163Y-11641890D01*
X36330437Y-11327489D01*
X36210374Y-11036916D01*
X35988254Y-10814407D01*
X35697890Y-10693837D01*
X35405138Y-10693582D01*
X35421475Y-10677245D01*
X42204845Y-10677245D01*
X42340814Y-11006314D01*
X42592361Y-11258302D01*
X42921192Y-11394844D01*
X43277245Y-11395155D01*
X43606314Y-11259186D01*
X43858302Y-11007639D01*
X43994844Y-10678808D01*
X43995155Y-10322755D01*
X43859186Y-9993686D01*
X43607639Y-9741698D01*
X43278808Y-9605156D01*
X42922755Y-9604845D01*
X42593686Y-9740814D01*
X42341698Y-9992361D01*
X42205156Y-10321192D01*
X42204845Y-10677245D01*
X35421475Y-10677245D01*
X35622360Y-10476360D01*
X35626759Y-10469777D01*
X35719344Y-10331213D01*
X35726546Y-10295008D01*
X35753401Y-10160000D01*
X35753400Y-10159995D01*
X35753400Y-9197049D01*
X40004828Y-9197049D01*
X40155988Y-9562886D01*
X40435642Y-9843028D01*
X40801214Y-9994827D01*
X41197049Y-9995172D01*
X41562886Y-9844012D01*
X41843028Y-9564358D01*
X41994827Y-9198786D01*
X41995172Y-8802951D01*
X41844012Y-8437114D01*
X41564358Y-8156972D01*
X41198786Y-8005173D01*
X40802951Y-8004828D01*
X40437114Y-8155988D01*
X40156972Y-8435642D01*
X40005173Y-8801214D01*
X40004828Y-9197049D01*
X35753400Y-9197049D01*
X35753400Y-9144000D01*
X35719344Y-8972787D01*
X35622360Y-8827640D01*
X35622357Y-8827638D01*
X35114360Y-8319640D01*
X35092604Y-8305103D01*
X34969213Y-8222656D01*
X34940806Y-8217006D01*
X34798000Y-8188599D01*
X34797995Y-8188600D01*
X32647400Y-8188600D01*
X32647400Y-7197049D01*
X40004828Y-7197049D01*
X40155988Y-7562886D01*
X40435642Y-7843028D01*
X40801214Y-7994827D01*
X41197049Y-7995172D01*
X41562886Y-7844012D01*
X41843028Y-7564358D01*
X41994827Y-7198786D01*
X41995172Y-6802951D01*
X41844012Y-6437114D01*
X41564358Y-6156972D01*
X41198786Y-6005173D01*
X40802951Y-6004828D01*
X40437114Y-6155988D01*
X40156972Y-6435642D01*
X40005173Y-6801214D01*
X40004828Y-7197049D01*
X32647400Y-7197049D01*
X32647400Y-5751840D01*
X32721994Y-5677245D01*
X42204845Y-5677245D01*
X42340814Y-6006314D01*
X42592361Y-6258302D01*
X42921192Y-6394844D01*
X43277245Y-6395155D01*
X43606314Y-6259186D01*
X43858302Y-6007639D01*
X43994844Y-5678808D01*
X43995155Y-5322755D01*
X43859186Y-4993686D01*
X43607639Y-4741698D01*
X43278808Y-4605156D01*
X42922755Y-4604845D01*
X42593686Y-4740814D01*
X42341698Y-4992361D01*
X42205156Y-5321192D01*
X42204845Y-5677245D01*
X32721994Y-5677245D01*
X32790251Y-5608988D01*
X32790254Y-5608986D01*
X32887238Y-5463839D01*
X32890508Y-5447400D01*
X35245280Y-5447400D01*
X35338187Y-5540470D01*
X35572557Y-5637789D01*
X35826329Y-5638010D01*
X36060869Y-5541100D01*
X36240470Y-5361813D01*
X36337789Y-5127443D01*
X36338010Y-4873671D01*
X36241100Y-4639131D01*
X36061813Y-4459530D01*
X35827443Y-4362211D01*
X35573671Y-4361990D01*
X35339131Y-4458900D01*
X35245267Y-4552600D01*
X32921294Y-4552600D01*
X32921294Y-3600000D01*
X32887238Y-3428787D01*
X32790254Y-3283640D01*
X32790251Y-3283638D01*
X32493271Y-2986657D01*
X46054793Y-2986657D01*
X46236338Y-3426029D01*
X46572203Y-3762481D01*
X47011257Y-3944792D01*
X47486657Y-3945207D01*
X47926029Y-3763662D01*
X48262481Y-3427797D01*
X48444792Y-2988743D01*
X48445207Y-2513343D01*
X48263662Y-2073971D01*
X47927797Y-1737519D01*
X47488743Y-1555208D01*
X47013343Y-1554793D01*
X46573971Y-1736338D01*
X46237519Y-2072203D01*
X46055208Y-2511257D01*
X46054793Y-2986657D01*
X32493271Y-2986657D01*
X32149055Y-2642441D01*
X32098119Y-2608407D01*
X32003908Y-2545457D01*
X31975501Y-2539807D01*
X31832695Y-2511400D01*
X31832690Y-2511401D01*
X30339226Y-2511401D01*
X29171873Y-1344047D01*
X29139337Y-1322307D01*
X29026726Y-1247063D01*
X28998319Y-1241413D01*
X28855513Y-1213006D01*
X28855508Y-1213007D01*
X28246827Y-1213007D01*
X28075614Y-1247063D01*
X27930467Y-1344047D01*
X27930465Y-1344050D01*
X27909104Y-1365411D01*
X27777599Y-1365296D01*
X27543059Y-1462206D01*
X27449195Y-1555906D01*
X21586977Y-1555906D01*
X21586972Y-1555905D01*
X21444166Y-1584312D01*
X21415759Y-1589962D01*
X21270612Y-1686946D01*
X21270610Y-1686949D01*
X19108664Y-3848894D01*
X18916934Y-3848894D01*
X18824027Y-3755824D01*
X18589657Y-3658505D01*
X18335885Y-3658284D01*
X18113914Y-3750001D01*
X18113914Y-3617319D01*
X18113915Y-3617314D01*
X18083725Y-3465541D01*
X17997753Y-3336875D01*
X17997750Y-3336873D01*
X16207457Y-1546579D01*
X16078791Y-1460607D01*
X15927018Y-1430417D01*
X15927013Y-1430418D01*
X10970173Y-1430418D01*
X10862838Y-1322895D01*
X10644229Y-1232121D01*
X10407523Y-1231915D01*
X10188757Y-1322307D01*
X10021234Y-1489537D01*
X9930460Y-1708146D01*
X9930254Y-1944852D01*
X10020646Y-2163618D01*
X10187876Y-2331141D01*
X10406485Y-2421915D01*
X10643191Y-2422121D01*
X10861957Y-2331729D01*
X10970257Y-2223618D01*
X15762740Y-2223618D01*
X17320714Y-3781591D01*
X17320714Y-6587996D01*
X17213191Y-6695331D01*
X17122417Y-6913940D01*
X17122211Y-7150646D01*
X17212603Y-7369412D01*
X17379833Y-7536935D01*
X17598442Y-7627709D01*
X17835148Y-7627915D01*
X18014814Y-7553679D01*
X18014814Y-8432729D01*
X17863406Y-8495289D01*
X17695883Y-8662519D01*
X17605109Y-8881128D01*
X17604903Y-9117834D01*
X17695295Y-9336600D01*
X17862525Y-9504123D01*
X18081134Y-9594897D01*
X18317840Y-9595103D01*
X18536606Y-9504711D01*
X18704129Y-9337481D01*
X18794903Y-9118872D01*
X18794981Y-9029598D01*
X18875558Y-8909005D01*
X18887514Y-8848897D01*
X18909615Y-8737792D01*
X18909614Y-8737787D01*
X18909614Y-4751014D01*
X18916947Y-4743694D01*
X19293979Y-4743694D01*
X19293984Y-4743695D01*
X19436790Y-4715288D01*
X19465197Y-4709638D01*
X19610344Y-4612654D01*
X21772291Y-2450706D01*
X26307886Y-2450706D01*
X26195877Y-2562519D01*
X26105103Y-2781128D01*
X26104897Y-3017834D01*
X26195289Y-3236600D01*
X26362519Y-3404123D01*
X26581128Y-3494897D01*
X26728800Y-3495026D01*
X26728800Y-4329828D01*
X26595877Y-4462519D01*
X26505103Y-4681128D01*
X26504897Y-4917834D01*
X26595289Y-5136600D01*
X26762519Y-5304123D01*
X26981128Y-5394897D01*
X27217834Y-5395103D01*
X27436600Y-5304711D01*
X27604123Y-5137481D01*
X27694897Y-4918872D01*
X27695103Y-4682166D01*
X27604711Y-4463400D01*
X27471200Y-4329655D01*
X27471200Y-3300000D01*
X27442944Y-3157948D01*
X27362478Y-3037522D01*
X27294940Y-2969984D01*
X27295103Y-2782166D01*
X27204711Y-2563400D01*
X27092214Y-2450706D01*
X27449208Y-2450706D01*
X27542115Y-2543776D01*
X27776485Y-2641095D01*
X28030257Y-2641316D01*
X28137593Y-2596965D01*
X28195289Y-2736600D01*
X28303400Y-2844900D01*
X28303400Y-3776258D01*
X28233589Y-3880737D01*
X28203399Y-4032510D01*
X28203400Y-4032515D01*
X28203400Y-5035723D01*
X27535722Y-5703400D01*
X26369361Y-5703400D01*
X26369356Y-5703399D01*
X26217584Y-5733589D01*
X26088917Y-5819561D01*
X26088915Y-5819564D01*
X24921122Y-6987356D01*
X24835150Y-7116022D01*
X24804960Y-7267795D01*
X24804961Y-7267800D01*
X24804961Y-7634162D01*
X24748503Y-7690619D01*
X24309873Y-7690619D01*
X24158101Y-7720808D01*
X24029434Y-7806780D01*
X24029432Y-7806783D01*
X23358406Y-8477808D01*
X21952707Y-8477808D01*
X21952702Y-8477807D01*
X21800930Y-8507997D01*
X21672263Y-8593969D01*
X21672261Y-8593972D01*
X20334093Y-9932139D01*
X20182166Y-9932007D01*
X19963400Y-10022399D01*
X19795877Y-10189629D01*
X19705103Y-10408238D01*
X19704897Y-10644944D01*
X19795289Y-10863710D01*
X19962519Y-11031233D01*
X20181128Y-11122007D01*
X20363247Y-11122165D01*
X20363211Y-11163794D01*
X20453603Y-11382560D01*
X20620833Y-11550083D01*
X20839442Y-11640857D01*
X21076148Y-11641063D01*
X21293789Y-11551136D01*
X21293789Y-12321861D01*
X20622965Y-12992685D01*
X20231102Y-13155000D01*
X16789181Y-13155000D01*
X16593246Y-12960249D01*
X16546513Y-5249419D01*
X16539062Y-5213109D01*
X16518486Y-5182617D01*
X16266971Y-4932622D01*
X16236089Y-4912122D01*
X16200000Y-4905000D01*
X7018898Y-4905000D01*
X6627035Y-4742685D01*
X6007315Y-4122965D01*
X5845000Y-3731102D01*
X5845000Y-370000D01*
X47213556Y-370000D01*
X48158013Y-557864D01*
G36*
X26673289Y-9226600D02*
X26840519Y-9394123D01*
X27059128Y-9484897D01*
X27295834Y-9485103D01*
X27514600Y-9394711D01*
X27622900Y-9286600D01*
X29086052Y-9286600D01*
X29070054Y-9325128D01*
X29069848Y-9561834D01*
X29072024Y-9567099D01*
X28541460Y-10097662D01*
X28318764Y-10005191D01*
X27883147Y-10004811D01*
X27480543Y-10171163D01*
X27172246Y-10478923D01*
X27005191Y-10881236D01*
X27004811Y-11316853D01*
X27171163Y-11719457D01*
X27356383Y-11905000D01*
X24067684Y-11905000D01*
X24171135Y-11872044D01*
X24385048Y-11403370D01*
X24403324Y-10888511D01*
X24392751Y-10860182D01*
X24402958Y-10862212D01*
X24402963Y-10862211D01*
X24443075Y-10862211D01*
X24550410Y-10969734D01*
X24769019Y-11060508D01*
X25005725Y-11060714D01*
X25224491Y-10970322D01*
X25332791Y-10862211D01*
X25372819Y-10862211D01*
X25372824Y-10862212D01*
X25524597Y-10832022D01*
X25653263Y-10746050D01*
X26548825Y-9850487D01*
X26548828Y-9850485D01*
X26616856Y-9748673D01*
X26634800Y-9721819D01*
X26664990Y-9570046D01*
X26664989Y-9570041D01*
X26664989Y-9206512D01*
X26673289Y-9226600D01*
X26673289Y-9226600D01*
G37*
X26673289Y-9226600D02*
X26840519Y-9394123D01*
X27059128Y-9484897D01*
X27295834Y-9485103D01*
X27514600Y-9394711D01*
X27622900Y-9286600D01*
X29086052Y-9286600D01*
X29070054Y-9325128D01*
X29069848Y-9561834D01*
X29072024Y-9567099D01*
X28541460Y-10097662D01*
X28318764Y-10005191D01*
X27883147Y-10004811D01*
X27480543Y-10171163D01*
X27172246Y-10478923D01*
X27005191Y-10881236D01*
X27004811Y-11316853D01*
X27171163Y-11719457D01*
X27356383Y-11905000D01*
X24067684Y-11905000D01*
X24171135Y-11872044D01*
X24385048Y-11403370D01*
X24403324Y-10888511D01*
X24392751Y-10860182D01*
X24402958Y-10862212D01*
X24402963Y-10862211D01*
X24443075Y-10862211D01*
X24550410Y-10969734D01*
X24769019Y-11060508D01*
X25005725Y-11060714D01*
X25224491Y-10970322D01*
X25332791Y-10862211D01*
X25372819Y-10862211D01*
X25372824Y-10862212D01*
X25524597Y-10832022D01*
X25653263Y-10746050D01*
X26548825Y-9850487D01*
X26548828Y-9850485D01*
X26616856Y-9748673D01*
X26634800Y-9721819D01*
X26664990Y-9570046D01*
X26664989Y-9570041D01*
X26664989Y-9206512D01*
X26673289Y-9226600D01*
G36*
X23121214Y-11085858D02*
X23107071Y-11100000D01*
X23121214Y-11114143D01*
X23114143Y-11121214D01*
X23100000Y-11107071D01*
X23085858Y-11121214D01*
X23078787Y-11114143D01*
X23092929Y-11100000D01*
X23078787Y-11085858D01*
X23085858Y-11078787D01*
X23100000Y-11092929D01*
X23114143Y-11078787D01*
X23121214Y-11085858D01*
X23121214Y-11085858D01*
G37*
X23121214Y-11085858D02*
X23107071Y-11100000D01*
X23121214Y-11114143D01*
X23114143Y-11121214D01*
X23100000Y-11107071D01*
X23085858Y-11121214D01*
X23078787Y-11114143D01*
X23092929Y-11100000D01*
X23078787Y-11085858D01*
X23085858Y-11078787D01*
X23100000Y-11092929D01*
X23114143Y-11078787D01*
X23121214Y-11085858D01*
M02*
