G04 #@! TF.GenerationSoftware,KiCad,Pcbnew,(2017-11-24 revision a01d81e4b)-makepkg*
G04 #@! TF.CreationDate,2018-02-25T20:08:33+10:30*
G04 #@! TF.ProjectId,ledGlasses,6C6564476C61737365732E6B69636164,rev?*
G04 #@! TF.SameCoordinates,PX5f5e100PY5f5e100*
G04 #@! TF.FileFunction,Legend,Top*
G04 #@! TF.FilePolarity,Positive*
%FSLAX46Y46*%
G04 Gerber Fmt 4.6, Leading zero omitted, Abs format (unit mm)*
G04 Created by KiCad (PCBNEW (2017-11-24 revision a01d81e4b)-makepkg) date 02/25/18 20:08:33*
%MOMM*%
%LPD*%
G01*
G04 APERTURE LIST*
%ADD10C,0.250000*%
%ADD11C,0.200000*%
%ADD12C,0.150000*%
%ADD13C,0.120000*%
%ADD14C,0.010000*%
%ADD15C,0.100000*%
G04 APERTURE END LIST*
D10*
X37652380Y-17007142D02*
X38947619Y-17007142D01*
X38300000Y-17578571D02*
X38300000Y-16435714D01*
D11*
X6352380Y-4900000D02*
X5352380Y-4900000D01*
X6066666Y-4500000D01*
X5352380Y-4100000D01*
X6352380Y-4100000D01*
X6352380Y-3357142D02*
X6304761Y-3471428D01*
X6257142Y-3528571D01*
X6161904Y-3585714D01*
X5876190Y-3585714D01*
X5780952Y-3528571D01*
X5733333Y-3471428D01*
X5685714Y-3357142D01*
X5685714Y-3185714D01*
X5733333Y-3071428D01*
X5780952Y-3014285D01*
X5876190Y-2957142D01*
X6161904Y-2957142D01*
X6257142Y-3014285D01*
X6304761Y-3071428D01*
X6352380Y-3185714D01*
X6352380Y-3357142D01*
X6352380Y-1928571D02*
X5352380Y-1928571D01*
X6304761Y-1928571D02*
X6352380Y-2042857D01*
X6352380Y-2271428D01*
X6304761Y-2385714D01*
X6257142Y-2442857D01*
X6161904Y-2500000D01*
X5876190Y-2500000D01*
X5780952Y-2442857D01*
X5733333Y-2385714D01*
X5685714Y-2271428D01*
X5685714Y-2042857D01*
X5733333Y-1928571D01*
X6304761Y-900000D02*
X6352380Y-1014285D01*
X6352380Y-1242857D01*
X6304761Y-1357142D01*
X6209523Y-1414285D01*
X5828571Y-1414285D01*
X5733333Y-1357142D01*
X5685714Y-1242857D01*
X5685714Y-1014285D01*
X5733333Y-900000D01*
X5828571Y-842857D01*
X5923809Y-842857D01*
X6019047Y-1414285D01*
D10*
X39733333Y-21678571D02*
X39733333Y-20178571D01*
X40380952Y-20178571D01*
X40542857Y-20250000D01*
X40623809Y-20321428D01*
X40704761Y-20464285D01*
X40704761Y-20678571D01*
X40623809Y-20821428D01*
X40542857Y-20892857D01*
X40380952Y-20964285D01*
X39733333Y-20964285D01*
X41271428Y-20178571D02*
X41676190Y-21678571D01*
X42000000Y-20607142D01*
X42323809Y-21678571D01*
X42728571Y-20178571D01*
X44347619Y-21678571D02*
X43780952Y-20964285D01*
X43376190Y-21678571D02*
X43376190Y-20178571D01*
X44023809Y-20178571D01*
X44185714Y-20250000D01*
X44266666Y-20321428D01*
X44347619Y-20464285D01*
X44347619Y-20678571D01*
X44266666Y-20821428D01*
X44185714Y-20892857D01*
X44023809Y-20964285D01*
X43376190Y-20964285D01*
X38950000Y-3678571D02*
X38950000Y-2178571D01*
X39354761Y-2178571D01*
X39597619Y-2250000D01*
X39759523Y-2392857D01*
X39840476Y-2535714D01*
X39921428Y-2821428D01*
X39921428Y-3035714D01*
X39840476Y-3321428D01*
X39759523Y-3464285D01*
X39597619Y-3607142D01*
X39354761Y-3678571D01*
X38950000Y-3678571D01*
X40569047Y-3250000D02*
X41378571Y-3250000D01*
X40407142Y-3678571D02*
X40973809Y-2178571D01*
X41540476Y-3678571D01*
X41864285Y-2178571D02*
X42835714Y-2178571D01*
X42350000Y-3678571D02*
X42350000Y-2178571D01*
X43321428Y-3250000D02*
X44130952Y-3250000D01*
X43159523Y-3678571D02*
X43726190Y-2178571D01*
X44292857Y-3678571D01*
D11*
X4000000Y-10000000D02*
X4000000Y-10250000D01*
X2000000Y-10000000D02*
X2000000Y-10250000D01*
X5000000Y-10000000D02*
X5000000Y-9500000D01*
X4000000Y-10000000D02*
X5000000Y-10000000D01*
X1000000Y-10000000D02*
X2000000Y-10000000D01*
X1000000Y-9500000D02*
X1000000Y-10000000D01*
X1000000Y-6000000D02*
X2000000Y-6000000D01*
X1000000Y-6500000D02*
X1000000Y-6000000D01*
D12*
X26500000Y-5000000D02*
X26500000Y-6000000D01*
X23900000Y-4850000D02*
X23375000Y-4850000D01*
X23900000Y-9150000D02*
X23375000Y-9150000D01*
X19600000Y-9150000D02*
X20125000Y-9150000D01*
X19600000Y-4850000D02*
X20125000Y-4850000D01*
X23900000Y-9150000D02*
X23900000Y-8625000D01*
X19600000Y-9150000D02*
X19600000Y-8625000D01*
X23900000Y-4850000D02*
X23900000Y-5375000D01*
D13*
X31580000Y-17240000D02*
X31580000Y-18700000D01*
X28420000Y-17240000D02*
X28420000Y-19400000D01*
X28420000Y-17240000D02*
X29350000Y-17240000D01*
X31580000Y-17240000D02*
X30650000Y-17240000D01*
D14*
G36*
X30645530Y-20140121D02*
X30730032Y-20140786D01*
X31190356Y-20144678D01*
X31227346Y-20186913D01*
X31256522Y-20241551D01*
X31260786Y-20302328D01*
X31241761Y-20358989D01*
X31201071Y-20401281D01*
X31192650Y-20406034D01*
X31165132Y-20412374D01*
X31110890Y-20418721D01*
X31036077Y-20424573D01*
X30946846Y-20429432D01*
X30869773Y-20432253D01*
X30735470Y-20436991D01*
X30629935Y-20443241D01*
X30549058Y-20452020D01*
X30488732Y-20464345D01*
X30444847Y-20481234D01*
X30413294Y-20503704D01*
X30389966Y-20532775D01*
X30378093Y-20554034D01*
X30358717Y-20601462D01*
X30336240Y-20669873D01*
X30313084Y-20750078D01*
X30291670Y-20832888D01*
X30274417Y-20909113D01*
X30263748Y-20969563D01*
X30261488Y-20996647D01*
X30265289Y-21028697D01*
X30279632Y-21052083D01*
X30308926Y-21068270D01*
X30357582Y-21078725D01*
X30430010Y-21084913D01*
X30530619Y-21088301D01*
X30537655Y-21088447D01*
X30628676Y-21091825D01*
X30704500Y-21097630D01*
X30758847Y-21105251D01*
X30782883Y-21112372D01*
X30815210Y-21145527D01*
X30838866Y-21198021D01*
X30849717Y-21256628D01*
X30843868Y-21307450D01*
X30819874Y-21347262D01*
X30783113Y-21384028D01*
X30782267Y-21384663D01*
X30760502Y-21398566D01*
X30734714Y-21408358D01*
X30698767Y-21414873D01*
X30646521Y-21418944D01*
X30571838Y-21421407D01*
X30502785Y-21422621D01*
X30416437Y-21423899D01*
X30340249Y-21425064D01*
X30281074Y-21426008D01*
X30245769Y-21426623D01*
X30240697Y-21426731D01*
X30211905Y-21437807D01*
X30172542Y-21464997D01*
X30154178Y-21480874D01*
X30111804Y-21533051D01*
X30076496Y-21600309D01*
X30050059Y-21675024D01*
X30034295Y-21749570D01*
X30031007Y-21816324D01*
X30041999Y-21867661D01*
X30057629Y-21889129D01*
X30088011Y-21900253D01*
X30150796Y-21910007D01*
X30246152Y-21918414D01*
X30333001Y-21923540D01*
X30449810Y-21929848D01*
X30538584Y-21935970D01*
X30604152Y-21942769D01*
X30651343Y-21951112D01*
X30684985Y-21961862D01*
X30709907Y-21975884D01*
X30730938Y-21994043D01*
X30731869Y-21994970D01*
X30764376Y-22048209D01*
X30770124Y-22109247D01*
X30750827Y-22169441D01*
X30708198Y-22220148D01*
X30683979Y-22236409D01*
X30659176Y-22241343D01*
X30606776Y-22245819D01*
X30532060Y-22249764D01*
X30440309Y-22253105D01*
X30336804Y-22255767D01*
X30226825Y-22257678D01*
X30115655Y-22258764D01*
X30008573Y-22258953D01*
X29910860Y-22258170D01*
X29827799Y-22256343D01*
X29764669Y-22253397D01*
X29728922Y-22249671D01*
X29684277Y-22230264D01*
X29650410Y-22199754D01*
X29639303Y-22183641D01*
X29632406Y-22166846D01*
X29630169Y-22144145D01*
X29633041Y-22110312D01*
X29641475Y-22060121D01*
X29655919Y-21988346D01*
X29676825Y-21889762D01*
X29677331Y-21887392D01*
X29701614Y-21779098D01*
X29729133Y-21665114D01*
X29757064Y-21556623D01*
X29782587Y-21464807D01*
X29791362Y-21435663D01*
X29839295Y-21277381D01*
X29886760Y-21112098D01*
X29935693Y-20932793D01*
X29988030Y-20732442D01*
X30021478Y-20600767D01*
X30047249Y-20502940D01*
X30073208Y-20412394D01*
X30097353Y-20335540D01*
X30117687Y-20278789D01*
X30130560Y-20251015D01*
X30151121Y-20219373D01*
X30171951Y-20194197D01*
X30196861Y-20174785D01*
X30229665Y-20160438D01*
X30274175Y-20150453D01*
X30334204Y-20144130D01*
X30413564Y-20140768D01*
X30516069Y-20139665D01*
X30645530Y-20140121D01*
X30645530Y-20140121D01*
G37*
X30645530Y-20140121D02*
X30730032Y-20140786D01*
X31190356Y-20144678D01*
X31227346Y-20186913D01*
X31256522Y-20241551D01*
X31260786Y-20302328D01*
X31241761Y-20358989D01*
X31201071Y-20401281D01*
X31192650Y-20406034D01*
X31165132Y-20412374D01*
X31110890Y-20418721D01*
X31036077Y-20424573D01*
X30946846Y-20429432D01*
X30869773Y-20432253D01*
X30735470Y-20436991D01*
X30629935Y-20443241D01*
X30549058Y-20452020D01*
X30488732Y-20464345D01*
X30444847Y-20481234D01*
X30413294Y-20503704D01*
X30389966Y-20532775D01*
X30378093Y-20554034D01*
X30358717Y-20601462D01*
X30336240Y-20669873D01*
X30313084Y-20750078D01*
X30291670Y-20832888D01*
X30274417Y-20909113D01*
X30263748Y-20969563D01*
X30261488Y-20996647D01*
X30265289Y-21028697D01*
X30279632Y-21052083D01*
X30308926Y-21068270D01*
X30357582Y-21078725D01*
X30430010Y-21084913D01*
X30530619Y-21088301D01*
X30537655Y-21088447D01*
X30628676Y-21091825D01*
X30704500Y-21097630D01*
X30758847Y-21105251D01*
X30782883Y-21112372D01*
X30815210Y-21145527D01*
X30838866Y-21198021D01*
X30849717Y-21256628D01*
X30843868Y-21307450D01*
X30819874Y-21347262D01*
X30783113Y-21384028D01*
X30782267Y-21384663D01*
X30760502Y-21398566D01*
X30734714Y-21408358D01*
X30698767Y-21414873D01*
X30646521Y-21418944D01*
X30571838Y-21421407D01*
X30502785Y-21422621D01*
X30416437Y-21423899D01*
X30340249Y-21425064D01*
X30281074Y-21426008D01*
X30245769Y-21426623D01*
X30240697Y-21426731D01*
X30211905Y-21437807D01*
X30172542Y-21464997D01*
X30154178Y-21480874D01*
X30111804Y-21533051D01*
X30076496Y-21600309D01*
X30050059Y-21675024D01*
X30034295Y-21749570D01*
X30031007Y-21816324D01*
X30041999Y-21867661D01*
X30057629Y-21889129D01*
X30088011Y-21900253D01*
X30150796Y-21910007D01*
X30246152Y-21918414D01*
X30333001Y-21923540D01*
X30449810Y-21929848D01*
X30538584Y-21935970D01*
X30604152Y-21942769D01*
X30651343Y-21951112D01*
X30684985Y-21961862D01*
X30709907Y-21975884D01*
X30730938Y-21994043D01*
X30731869Y-21994970D01*
X30764376Y-22048209D01*
X30770124Y-22109247D01*
X30750827Y-22169441D01*
X30708198Y-22220148D01*
X30683979Y-22236409D01*
X30659176Y-22241343D01*
X30606776Y-22245819D01*
X30532060Y-22249764D01*
X30440309Y-22253105D01*
X30336804Y-22255767D01*
X30226825Y-22257678D01*
X30115655Y-22258764D01*
X30008573Y-22258953D01*
X29910860Y-22258170D01*
X29827799Y-22256343D01*
X29764669Y-22253397D01*
X29728922Y-22249671D01*
X29684277Y-22230264D01*
X29650410Y-22199754D01*
X29639303Y-22183641D01*
X29632406Y-22166846D01*
X29630169Y-22144145D01*
X29633041Y-22110312D01*
X29641475Y-22060121D01*
X29655919Y-21988346D01*
X29676825Y-21889762D01*
X29677331Y-21887392D01*
X29701614Y-21779098D01*
X29729133Y-21665114D01*
X29757064Y-21556623D01*
X29782587Y-21464807D01*
X29791362Y-21435663D01*
X29839295Y-21277381D01*
X29886760Y-21112098D01*
X29935693Y-20932793D01*
X29988030Y-20732442D01*
X30021478Y-20600767D01*
X30047249Y-20502940D01*
X30073208Y-20412394D01*
X30097353Y-20335540D01*
X30117687Y-20278789D01*
X30130560Y-20251015D01*
X30151121Y-20219373D01*
X30171951Y-20194197D01*
X30196861Y-20174785D01*
X30229665Y-20160438D01*
X30274175Y-20150453D01*
X30334204Y-20144130D01*
X30413564Y-20140768D01*
X30516069Y-20139665D01*
X30645530Y-20140121D01*
G36*
X14487985Y-20157081D02*
X14531044Y-20175104D01*
X14535118Y-20178958D01*
X14555078Y-20201905D01*
X14566372Y-20223330D01*
X14566857Y-20246540D01*
X14554393Y-20274846D01*
X14526837Y-20311556D01*
X14482048Y-20359980D01*
X14417882Y-20423425D01*
X14332199Y-20505202D01*
X14310867Y-20525396D01*
X14220790Y-20610302D01*
X14127095Y-20698074D01*
X14036423Y-20782528D01*
X13955414Y-20857480D01*
X13890711Y-20916749D01*
X13883825Y-20922995D01*
X13794977Y-21006451D01*
X13730302Y-21074808D01*
X13687046Y-21131844D01*
X13662461Y-21181336D01*
X13653794Y-21227059D01*
X13653808Y-21238775D01*
X13662040Y-21270874D01*
X13684526Y-21329080D01*
X13719994Y-21410522D01*
X13767171Y-21512323D01*
X13824783Y-21631611D01*
X13853678Y-21690035D01*
X13906078Y-21796149D01*
X13953266Y-21893380D01*
X13993324Y-21977638D01*
X14024332Y-22044832D01*
X14044370Y-22090872D01*
X14051521Y-22111668D01*
X14051521Y-22111698D01*
X14037608Y-22163695D01*
X14002491Y-22212833D01*
X13956101Y-22245689D01*
X13950926Y-22247667D01*
X13914931Y-22259766D01*
X13890062Y-22263480D01*
X13862666Y-22258159D01*
X13819088Y-22243151D01*
X13813356Y-22241107D01*
X13766455Y-22219422D01*
X13731318Y-22194523D01*
X13725822Y-22188398D01*
X13688719Y-22132761D01*
X13640724Y-22051146D01*
X13584111Y-21947709D01*
X13521152Y-21826602D01*
X13454232Y-21692206D01*
X13418623Y-21650583D01*
X13370378Y-21636124D01*
X13327311Y-21646726D01*
X13300483Y-21670229D01*
X13277290Y-21715190D01*
X13258518Y-21772728D01*
X13218854Y-21904164D01*
X13180291Y-22015968D01*
X13144125Y-22104938D01*
X13111652Y-22167873D01*
X13085343Y-22200677D01*
X13027514Y-22227582D01*
X12962925Y-22229486D01*
X12904719Y-22206327D01*
X12898423Y-22201567D01*
X12882047Y-22184538D01*
X12870478Y-22161928D01*
X12864166Y-22131179D01*
X12863563Y-22089729D01*
X12869119Y-22035019D01*
X12881284Y-21964490D01*
X12900510Y-21875582D01*
X12927247Y-21765735D01*
X12961946Y-21632388D01*
X13005058Y-21472983D01*
X13057032Y-21284959D01*
X13064573Y-21257888D01*
X13094677Y-21150926D01*
X13123565Y-21050193D01*
X13149501Y-20961594D01*
X13170751Y-20891030D01*
X13185580Y-20844406D01*
X13188653Y-20835598D01*
X13203244Y-20789871D01*
X13222450Y-20721658D01*
X13243664Y-20640551D01*
X13262350Y-20564336D01*
X13290170Y-20450828D01*
X13313862Y-20364736D01*
X13335297Y-20301149D01*
X13356344Y-20255154D01*
X13378872Y-20221840D01*
X13401296Y-20199205D01*
X13455415Y-20169583D01*
X13515430Y-20162258D01*
X13569545Y-20177636D01*
X13589458Y-20192695D01*
X13618495Y-20235714D01*
X13631435Y-20293336D01*
X13628387Y-20369773D01*
X13609460Y-20469236D01*
X13597842Y-20515016D01*
X13571995Y-20616112D01*
X13556094Y-20693091D01*
X13551826Y-20746135D01*
X13560875Y-20775423D01*
X13584929Y-20781137D01*
X13625673Y-20763456D01*
X13684795Y-20722561D01*
X13763979Y-20658632D01*
X13864911Y-20571850D01*
X13893668Y-20546669D01*
X13975094Y-20474533D01*
X14049104Y-20407700D01*
X14111740Y-20349844D01*
X14159047Y-20304641D01*
X14187067Y-20275766D01*
X14192064Y-20269496D01*
X14233164Y-20227619D01*
X14291956Y-20193156D01*
X14359790Y-20168390D01*
X14428017Y-20155604D01*
X14487985Y-20157081D01*
X14487985Y-20157081D01*
G37*
X14487985Y-20157081D02*
X14531044Y-20175104D01*
X14535118Y-20178958D01*
X14555078Y-20201905D01*
X14566372Y-20223330D01*
X14566857Y-20246540D01*
X14554393Y-20274846D01*
X14526837Y-20311556D01*
X14482048Y-20359980D01*
X14417882Y-20423425D01*
X14332199Y-20505202D01*
X14310867Y-20525396D01*
X14220790Y-20610302D01*
X14127095Y-20698074D01*
X14036423Y-20782528D01*
X13955414Y-20857480D01*
X13890711Y-20916749D01*
X13883825Y-20922995D01*
X13794977Y-21006451D01*
X13730302Y-21074808D01*
X13687046Y-21131844D01*
X13662461Y-21181336D01*
X13653794Y-21227059D01*
X13653808Y-21238775D01*
X13662040Y-21270874D01*
X13684526Y-21329080D01*
X13719994Y-21410522D01*
X13767171Y-21512323D01*
X13824783Y-21631611D01*
X13853678Y-21690035D01*
X13906078Y-21796149D01*
X13953266Y-21893380D01*
X13993324Y-21977638D01*
X14024332Y-22044832D01*
X14044370Y-22090872D01*
X14051521Y-22111668D01*
X14051521Y-22111698D01*
X14037608Y-22163695D01*
X14002491Y-22212833D01*
X13956101Y-22245689D01*
X13950926Y-22247667D01*
X13914931Y-22259766D01*
X13890062Y-22263480D01*
X13862666Y-22258159D01*
X13819088Y-22243151D01*
X13813356Y-22241107D01*
X13766455Y-22219422D01*
X13731318Y-22194523D01*
X13725822Y-22188398D01*
X13688719Y-22132761D01*
X13640724Y-22051146D01*
X13584111Y-21947709D01*
X13521152Y-21826602D01*
X13454232Y-21692206D01*
X13418623Y-21650583D01*
X13370378Y-21636124D01*
X13327311Y-21646726D01*
X13300483Y-21670229D01*
X13277290Y-21715190D01*
X13258518Y-21772728D01*
X13218854Y-21904164D01*
X13180291Y-22015968D01*
X13144125Y-22104938D01*
X13111652Y-22167873D01*
X13085343Y-22200677D01*
X13027514Y-22227582D01*
X12962925Y-22229486D01*
X12904719Y-22206327D01*
X12898423Y-22201567D01*
X12882047Y-22184538D01*
X12870478Y-22161928D01*
X12864166Y-22131179D01*
X12863563Y-22089729D01*
X12869119Y-22035019D01*
X12881284Y-21964490D01*
X12900510Y-21875582D01*
X12927247Y-21765735D01*
X12961946Y-21632388D01*
X13005058Y-21472983D01*
X13057032Y-21284959D01*
X13064573Y-21257888D01*
X13094677Y-21150926D01*
X13123565Y-21050193D01*
X13149501Y-20961594D01*
X13170751Y-20891030D01*
X13185580Y-20844406D01*
X13188653Y-20835598D01*
X13203244Y-20789871D01*
X13222450Y-20721658D01*
X13243664Y-20640551D01*
X13262350Y-20564336D01*
X13290170Y-20450828D01*
X13313862Y-20364736D01*
X13335297Y-20301149D01*
X13356344Y-20255154D01*
X13378872Y-20221840D01*
X13401296Y-20199205D01*
X13455415Y-20169583D01*
X13515430Y-20162258D01*
X13569545Y-20177636D01*
X13589458Y-20192695D01*
X13618495Y-20235714D01*
X13631435Y-20293336D01*
X13628387Y-20369773D01*
X13609460Y-20469236D01*
X13597842Y-20515016D01*
X13571995Y-20616112D01*
X13556094Y-20693091D01*
X13551826Y-20746135D01*
X13560875Y-20775423D01*
X13584929Y-20781137D01*
X13625673Y-20763456D01*
X13684795Y-20722561D01*
X13763979Y-20658632D01*
X13864911Y-20571850D01*
X13893668Y-20546669D01*
X13975094Y-20474533D01*
X14049104Y-20407700D01*
X14111740Y-20349844D01*
X14159047Y-20304641D01*
X14187067Y-20275766D01*
X14192064Y-20269496D01*
X14233164Y-20227619D01*
X14291956Y-20193156D01*
X14359790Y-20168390D01*
X14428017Y-20155604D01*
X14487985Y-20157081D01*
G36*
X32280909Y-20141830D02*
X32300065Y-20142148D01*
X32408768Y-20144288D01*
X32490532Y-20146891D01*
X32551297Y-20150664D01*
X32597003Y-20156313D01*
X32633589Y-20164545D01*
X32666995Y-20176066D01*
X32698696Y-20189584D01*
X32785676Y-20241175D01*
X32866791Y-20312041D01*
X32930706Y-20391687D01*
X32946713Y-20419303D01*
X32981431Y-20516277D01*
X32998148Y-20633156D01*
X32996732Y-20762245D01*
X32977051Y-20895846D01*
X32956306Y-20975340D01*
X32929636Y-21049385D01*
X32895204Y-21118842D01*
X32849606Y-21188057D01*
X32789437Y-21261376D01*
X32711291Y-21343146D01*
X32611765Y-21437713D01*
X32550638Y-21493204D01*
X32494239Y-21545289D01*
X32458783Y-21582925D01*
X32439670Y-21612365D01*
X32432301Y-21639862D01*
X32431582Y-21655075D01*
X32439040Y-21720234D01*
X32459389Y-21803603D01*
X32489603Y-21894622D01*
X32523703Y-21976454D01*
X32556679Y-22069980D01*
X32561453Y-22147870D01*
X32538109Y-22209576D01*
X32486729Y-22254550D01*
X32481235Y-22257499D01*
X32441131Y-22276351D01*
X32412495Y-22279786D01*
X32378799Y-22267786D01*
X32357605Y-22257357D01*
X32291211Y-22209426D01*
X32230648Y-22139408D01*
X32184731Y-22057959D01*
X32177468Y-22039560D01*
X32134538Y-21923107D01*
X32099412Y-21834216D01*
X32069606Y-21769219D01*
X32042640Y-21724448D01*
X32016030Y-21696235D01*
X31987296Y-21680910D01*
X31953955Y-21674807D01*
X31930162Y-21674045D01*
X31866409Y-21685628D01*
X31815910Y-21722862D01*
X31777489Y-21781218D01*
X31758270Y-21826404D01*
X31735338Y-21891199D01*
X31712638Y-21963235D01*
X31694113Y-22030143D01*
X31685058Y-22071050D01*
X31655228Y-22150408D01*
X31599802Y-22215017D01*
X31559624Y-22241558D01*
X31498011Y-22263324D01*
X31446626Y-22256492D01*
X31401226Y-22223433D01*
X31377135Y-22195871D01*
X31366084Y-22168284D01*
X31365222Y-22128630D01*
X31369090Y-22087802D01*
X31377884Y-22036034D01*
X31394384Y-21962441D01*
X31416293Y-21876518D01*
X31441312Y-21787762D01*
X31443354Y-21780906D01*
X31473466Y-21677398D01*
X31505770Y-21561666D01*
X31536019Y-21449158D01*
X31556370Y-21369903D01*
X31584911Y-21256227D01*
X31933658Y-21256227D01*
X31936284Y-21304362D01*
X31940303Y-21315953D01*
X31952059Y-21332247D01*
X31970630Y-21341475D01*
X32003483Y-21344906D01*
X32058088Y-21343810D01*
X32093868Y-21342068D01*
X32179221Y-21334514D01*
X32246695Y-21319957D01*
X32311101Y-21294929D01*
X32326504Y-21287588D01*
X32436073Y-21217841D01*
X32530442Y-21125933D01*
X32604933Y-21018305D01*
X32654869Y-20901398D01*
X32673588Y-20809655D01*
X32676266Y-20751432D01*
X32668030Y-20702459D01*
X32645619Y-20646362D01*
X32637870Y-20630226D01*
X32602031Y-20568006D01*
X32560329Y-20524014D01*
X32508224Y-20489089D01*
X32457832Y-20461998D01*
X32415615Y-20447852D01*
X32367256Y-20443460D01*
X32310469Y-20445022D01*
X32248185Y-20449508D01*
X32208091Y-20457955D01*
X32179498Y-20474148D01*
X32152570Y-20500913D01*
X32124850Y-20543728D01*
X32094447Y-20610381D01*
X32062875Y-20695060D01*
X32031647Y-20791953D01*
X32002279Y-20895249D01*
X31976282Y-20999136D01*
X31955170Y-21097802D01*
X31940458Y-21185436D01*
X31933658Y-21256227D01*
X31584911Y-21256227D01*
X31596780Y-21208957D01*
X31637514Y-21049521D01*
X31677659Y-20894959D01*
X31716300Y-20748637D01*
X31752523Y-20613918D01*
X31785414Y-20494167D01*
X31814058Y-20392748D01*
X31837543Y-20313025D01*
X31854952Y-20258365D01*
X31865374Y-20232129D01*
X31865602Y-20231766D01*
X31889240Y-20200304D01*
X31916980Y-20176655D01*
X31953498Y-20159854D01*
X32003472Y-20148936D01*
X32071580Y-20142936D01*
X32162500Y-20140889D01*
X32280909Y-20141830D01*
X32280909Y-20141830D01*
G37*
X32280909Y-20141830D02*
X32300065Y-20142148D01*
X32408768Y-20144288D01*
X32490532Y-20146891D01*
X32551297Y-20150664D01*
X32597003Y-20156313D01*
X32633589Y-20164545D01*
X32666995Y-20176066D01*
X32698696Y-20189584D01*
X32785676Y-20241175D01*
X32866791Y-20312041D01*
X32930706Y-20391687D01*
X32946713Y-20419303D01*
X32981431Y-20516277D01*
X32998148Y-20633156D01*
X32996732Y-20762245D01*
X32977051Y-20895846D01*
X32956306Y-20975340D01*
X32929636Y-21049385D01*
X32895204Y-21118842D01*
X32849606Y-21188057D01*
X32789437Y-21261376D01*
X32711291Y-21343146D01*
X32611765Y-21437713D01*
X32550638Y-21493204D01*
X32494239Y-21545289D01*
X32458783Y-21582925D01*
X32439670Y-21612365D01*
X32432301Y-21639862D01*
X32431582Y-21655075D01*
X32439040Y-21720234D01*
X32459389Y-21803603D01*
X32489603Y-21894622D01*
X32523703Y-21976454D01*
X32556679Y-22069980D01*
X32561453Y-22147870D01*
X32538109Y-22209576D01*
X32486729Y-22254550D01*
X32481235Y-22257499D01*
X32441131Y-22276351D01*
X32412495Y-22279786D01*
X32378799Y-22267786D01*
X32357605Y-22257357D01*
X32291211Y-22209426D01*
X32230648Y-22139408D01*
X32184731Y-22057959D01*
X32177468Y-22039560D01*
X32134538Y-21923107D01*
X32099412Y-21834216D01*
X32069606Y-21769219D01*
X32042640Y-21724448D01*
X32016030Y-21696235D01*
X31987296Y-21680910D01*
X31953955Y-21674807D01*
X31930162Y-21674045D01*
X31866409Y-21685628D01*
X31815910Y-21722862D01*
X31777489Y-21781218D01*
X31758270Y-21826404D01*
X31735338Y-21891199D01*
X31712638Y-21963235D01*
X31694113Y-22030143D01*
X31685058Y-22071050D01*
X31655228Y-22150408D01*
X31599802Y-22215017D01*
X31559624Y-22241558D01*
X31498011Y-22263324D01*
X31446626Y-22256492D01*
X31401226Y-22223433D01*
X31377135Y-22195871D01*
X31366084Y-22168284D01*
X31365222Y-22128630D01*
X31369090Y-22087802D01*
X31377884Y-22036034D01*
X31394384Y-21962441D01*
X31416293Y-21876518D01*
X31441312Y-21787762D01*
X31443354Y-21780906D01*
X31473466Y-21677398D01*
X31505770Y-21561666D01*
X31536019Y-21449158D01*
X31556370Y-21369903D01*
X31584911Y-21256227D01*
X31933658Y-21256227D01*
X31936284Y-21304362D01*
X31940303Y-21315953D01*
X31952059Y-21332247D01*
X31970630Y-21341475D01*
X32003483Y-21344906D01*
X32058088Y-21343810D01*
X32093868Y-21342068D01*
X32179221Y-21334514D01*
X32246695Y-21319957D01*
X32311101Y-21294929D01*
X32326504Y-21287588D01*
X32436073Y-21217841D01*
X32530442Y-21125933D01*
X32604933Y-21018305D01*
X32654869Y-20901398D01*
X32673588Y-20809655D01*
X32676266Y-20751432D01*
X32668030Y-20702459D01*
X32645619Y-20646362D01*
X32637870Y-20630226D01*
X32602031Y-20568006D01*
X32560329Y-20524014D01*
X32508224Y-20489089D01*
X32457832Y-20461998D01*
X32415615Y-20447852D01*
X32367256Y-20443460D01*
X32310469Y-20445022D01*
X32248185Y-20449508D01*
X32208091Y-20457955D01*
X32179498Y-20474148D01*
X32152570Y-20500913D01*
X32124850Y-20543728D01*
X32094447Y-20610381D01*
X32062875Y-20695060D01*
X32031647Y-20791953D01*
X32002279Y-20895249D01*
X31976282Y-20999136D01*
X31955170Y-21097802D01*
X31940458Y-21185436D01*
X31933658Y-21256227D01*
X31584911Y-21256227D01*
X31596780Y-21208957D01*
X31637514Y-21049521D01*
X31677659Y-20894959D01*
X31716300Y-20748637D01*
X31752523Y-20613918D01*
X31785414Y-20494167D01*
X31814058Y-20392748D01*
X31837543Y-20313025D01*
X31854952Y-20258365D01*
X31865374Y-20232129D01*
X31865602Y-20231766D01*
X31889240Y-20200304D01*
X31916980Y-20176655D01*
X31953498Y-20159854D01*
X32003472Y-20148936D01*
X32071580Y-20142936D01*
X32162500Y-20140889D01*
X32280909Y-20141830D01*
G36*
X23518320Y-20141830D02*
X23537476Y-20142148D01*
X23646179Y-20144288D01*
X23727943Y-20146891D01*
X23788708Y-20150664D01*
X23834414Y-20156313D01*
X23871000Y-20164545D01*
X23904406Y-20176066D01*
X23936107Y-20189584D01*
X24023087Y-20241175D01*
X24104202Y-20312041D01*
X24168117Y-20391687D01*
X24184124Y-20419303D01*
X24218842Y-20516277D01*
X24235559Y-20633156D01*
X24234143Y-20762245D01*
X24214462Y-20895846D01*
X24193717Y-20975340D01*
X24167047Y-21049385D01*
X24132615Y-21118842D01*
X24087017Y-21188057D01*
X24026848Y-21261376D01*
X23948702Y-21343146D01*
X23849176Y-21437713D01*
X23788049Y-21493204D01*
X23731650Y-21545289D01*
X23696194Y-21582925D01*
X23677081Y-21612365D01*
X23669712Y-21639862D01*
X23668993Y-21655075D01*
X23676451Y-21720234D01*
X23696800Y-21803603D01*
X23727014Y-21894622D01*
X23761114Y-21976454D01*
X23794090Y-22069980D01*
X23798864Y-22147870D01*
X23775520Y-22209576D01*
X23724140Y-22254550D01*
X23718646Y-22257499D01*
X23678542Y-22276351D01*
X23649906Y-22279786D01*
X23616210Y-22267786D01*
X23595016Y-22257357D01*
X23528622Y-22209426D01*
X23468059Y-22139408D01*
X23422142Y-22057959D01*
X23414879Y-22039560D01*
X23371949Y-21923107D01*
X23336823Y-21834216D01*
X23307017Y-21769219D01*
X23280051Y-21724448D01*
X23253441Y-21696235D01*
X23224707Y-21680910D01*
X23191366Y-21674807D01*
X23167573Y-21674045D01*
X23103820Y-21685628D01*
X23053321Y-21722862D01*
X23014900Y-21781218D01*
X22995681Y-21826404D01*
X22972749Y-21891199D01*
X22950049Y-21963235D01*
X22931524Y-22030143D01*
X22922469Y-22071050D01*
X22892639Y-22150408D01*
X22837213Y-22215017D01*
X22797035Y-22241558D01*
X22735422Y-22263324D01*
X22684037Y-22256492D01*
X22638637Y-22223433D01*
X22614546Y-22195871D01*
X22603495Y-22168284D01*
X22602633Y-22128630D01*
X22606501Y-22087802D01*
X22615295Y-22036034D01*
X22631795Y-21962441D01*
X22653704Y-21876518D01*
X22678723Y-21787762D01*
X22680765Y-21780906D01*
X22710877Y-21677398D01*
X22743181Y-21561666D01*
X22773430Y-21449158D01*
X22793781Y-21369903D01*
X22822322Y-21256227D01*
X23171069Y-21256227D01*
X23173695Y-21304362D01*
X23177714Y-21315953D01*
X23189470Y-21332247D01*
X23208041Y-21341475D01*
X23240894Y-21344906D01*
X23295499Y-21343810D01*
X23331279Y-21342068D01*
X23416632Y-21334514D01*
X23484106Y-21319957D01*
X23548512Y-21294929D01*
X23563915Y-21287588D01*
X23673484Y-21217841D01*
X23767853Y-21125933D01*
X23842344Y-21018305D01*
X23892280Y-20901398D01*
X23910999Y-20809655D01*
X23913677Y-20751432D01*
X23905441Y-20702459D01*
X23883030Y-20646362D01*
X23875281Y-20630226D01*
X23839442Y-20568006D01*
X23797740Y-20524014D01*
X23745635Y-20489089D01*
X23695243Y-20461998D01*
X23653026Y-20447852D01*
X23604667Y-20443460D01*
X23547880Y-20445022D01*
X23485596Y-20449508D01*
X23445502Y-20457955D01*
X23416909Y-20474148D01*
X23389981Y-20500913D01*
X23362261Y-20543728D01*
X23331858Y-20610381D01*
X23300286Y-20695060D01*
X23269058Y-20791953D01*
X23239690Y-20895249D01*
X23213693Y-20999136D01*
X23192581Y-21097802D01*
X23177869Y-21185436D01*
X23171069Y-21256227D01*
X22822322Y-21256227D01*
X22834191Y-21208957D01*
X22874925Y-21049521D01*
X22915070Y-20894959D01*
X22953711Y-20748637D01*
X22989934Y-20613918D01*
X23022825Y-20494167D01*
X23051469Y-20392748D01*
X23074954Y-20313025D01*
X23092363Y-20258365D01*
X23102785Y-20232129D01*
X23103013Y-20231766D01*
X23126651Y-20200304D01*
X23154391Y-20176655D01*
X23190909Y-20159854D01*
X23240883Y-20148936D01*
X23308991Y-20142936D01*
X23399911Y-20140889D01*
X23518320Y-20141830D01*
X23518320Y-20141830D01*
G37*
X23518320Y-20141830D02*
X23537476Y-20142148D01*
X23646179Y-20144288D01*
X23727943Y-20146891D01*
X23788708Y-20150664D01*
X23834414Y-20156313D01*
X23871000Y-20164545D01*
X23904406Y-20176066D01*
X23936107Y-20189584D01*
X24023087Y-20241175D01*
X24104202Y-20312041D01*
X24168117Y-20391687D01*
X24184124Y-20419303D01*
X24218842Y-20516277D01*
X24235559Y-20633156D01*
X24234143Y-20762245D01*
X24214462Y-20895846D01*
X24193717Y-20975340D01*
X24167047Y-21049385D01*
X24132615Y-21118842D01*
X24087017Y-21188057D01*
X24026848Y-21261376D01*
X23948702Y-21343146D01*
X23849176Y-21437713D01*
X23788049Y-21493204D01*
X23731650Y-21545289D01*
X23696194Y-21582925D01*
X23677081Y-21612365D01*
X23669712Y-21639862D01*
X23668993Y-21655075D01*
X23676451Y-21720234D01*
X23696800Y-21803603D01*
X23727014Y-21894622D01*
X23761114Y-21976454D01*
X23794090Y-22069980D01*
X23798864Y-22147870D01*
X23775520Y-22209576D01*
X23724140Y-22254550D01*
X23718646Y-22257499D01*
X23678542Y-22276351D01*
X23649906Y-22279786D01*
X23616210Y-22267786D01*
X23595016Y-22257357D01*
X23528622Y-22209426D01*
X23468059Y-22139408D01*
X23422142Y-22057959D01*
X23414879Y-22039560D01*
X23371949Y-21923107D01*
X23336823Y-21834216D01*
X23307017Y-21769219D01*
X23280051Y-21724448D01*
X23253441Y-21696235D01*
X23224707Y-21680910D01*
X23191366Y-21674807D01*
X23167573Y-21674045D01*
X23103820Y-21685628D01*
X23053321Y-21722862D01*
X23014900Y-21781218D01*
X22995681Y-21826404D01*
X22972749Y-21891199D01*
X22950049Y-21963235D01*
X22931524Y-22030143D01*
X22922469Y-22071050D01*
X22892639Y-22150408D01*
X22837213Y-22215017D01*
X22797035Y-22241558D01*
X22735422Y-22263324D01*
X22684037Y-22256492D01*
X22638637Y-22223433D01*
X22614546Y-22195871D01*
X22603495Y-22168284D01*
X22602633Y-22128630D01*
X22606501Y-22087802D01*
X22615295Y-22036034D01*
X22631795Y-21962441D01*
X22653704Y-21876518D01*
X22678723Y-21787762D01*
X22680765Y-21780906D01*
X22710877Y-21677398D01*
X22743181Y-21561666D01*
X22773430Y-21449158D01*
X22793781Y-21369903D01*
X22822322Y-21256227D01*
X23171069Y-21256227D01*
X23173695Y-21304362D01*
X23177714Y-21315953D01*
X23189470Y-21332247D01*
X23208041Y-21341475D01*
X23240894Y-21344906D01*
X23295499Y-21343810D01*
X23331279Y-21342068D01*
X23416632Y-21334514D01*
X23484106Y-21319957D01*
X23548512Y-21294929D01*
X23563915Y-21287588D01*
X23673484Y-21217841D01*
X23767853Y-21125933D01*
X23842344Y-21018305D01*
X23892280Y-20901398D01*
X23910999Y-20809655D01*
X23913677Y-20751432D01*
X23905441Y-20702459D01*
X23883030Y-20646362D01*
X23875281Y-20630226D01*
X23839442Y-20568006D01*
X23797740Y-20524014D01*
X23745635Y-20489089D01*
X23695243Y-20461998D01*
X23653026Y-20447852D01*
X23604667Y-20443460D01*
X23547880Y-20445022D01*
X23485596Y-20449508D01*
X23445502Y-20457955D01*
X23416909Y-20474148D01*
X23389981Y-20500913D01*
X23362261Y-20543728D01*
X23331858Y-20610381D01*
X23300286Y-20695060D01*
X23269058Y-20791953D01*
X23239690Y-20895249D01*
X23213693Y-20999136D01*
X23192581Y-21097802D01*
X23177869Y-21185436D01*
X23171069Y-21256227D01*
X22822322Y-21256227D01*
X22834191Y-21208957D01*
X22874925Y-21049521D01*
X22915070Y-20894959D01*
X22953711Y-20748637D01*
X22989934Y-20613918D01*
X23022825Y-20494167D01*
X23051469Y-20392748D01*
X23074954Y-20313025D01*
X23092363Y-20258365D01*
X23102785Y-20232129D01*
X23103013Y-20231766D01*
X23126651Y-20200304D01*
X23154391Y-20176655D01*
X23190909Y-20159854D01*
X23240883Y-20148936D01*
X23308991Y-20142936D01*
X23399911Y-20140889D01*
X23518320Y-20141830D01*
G36*
X21964494Y-20171503D02*
X22055232Y-20173388D01*
X22191742Y-20177046D01*
X22298921Y-20181120D01*
X22380314Y-20186621D01*
X22439466Y-20194563D01*
X22479921Y-20205957D01*
X22505223Y-20221817D01*
X22518918Y-20243154D01*
X22524548Y-20270981D01*
X22525660Y-20306311D01*
X22525660Y-20307759D01*
X22519695Y-20363726D01*
X22498997Y-20405707D01*
X22459362Y-20436581D01*
X22396588Y-20459231D01*
X22306470Y-20476536D01*
X22272522Y-20481240D01*
X22178089Y-20495924D01*
X22109176Y-20513632D01*
X22058420Y-20537622D01*
X22018461Y-20571154D01*
X21989747Y-20606452D01*
X21977268Y-20633395D01*
X21957820Y-20687591D01*
X21932742Y-20764482D01*
X21903374Y-20859508D01*
X21871054Y-20968110D01*
X21837124Y-21085729D01*
X21802921Y-21207806D01*
X21769785Y-21329781D01*
X21739057Y-21447095D01*
X21717161Y-21534304D01*
X21693567Y-21624863D01*
X21665740Y-21723263D01*
X21638544Y-21812516D01*
X21630076Y-21838446D01*
X21607230Y-21910480D01*
X21587651Y-21979021D01*
X21574688Y-22032132D01*
X21572573Y-22043380D01*
X21546569Y-22134651D01*
X21499313Y-22206778D01*
X21465348Y-22239271D01*
X21414967Y-22272942D01*
X21370607Y-22279640D01*
X21326278Y-22263346D01*
X21291259Y-22240422D01*
X21268088Y-22213273D01*
X21256408Y-22176960D01*
X21255865Y-22126542D01*
X21266102Y-22057079D01*
X21286765Y-21963629D01*
X21300645Y-21907355D01*
X21325372Y-21807165D01*
X21352372Y-21694753D01*
X21377585Y-21587144D01*
X21389931Y-21533012D01*
X21410374Y-21447374D01*
X21432736Y-21362211D01*
X21453799Y-21289412D01*
X21465562Y-21253530D01*
X21484907Y-21193738D01*
X21507352Y-21115596D01*
X21531422Y-21025306D01*
X21555641Y-20929068D01*
X21578532Y-20833083D01*
X21598619Y-20743551D01*
X21614428Y-20666674D01*
X21624480Y-20608652D01*
X21627302Y-20575685D01*
X21627194Y-20574507D01*
X21618415Y-20549189D01*
X21595573Y-20528637D01*
X21554049Y-20510903D01*
X21489222Y-20494036D01*
X21396470Y-20476089D01*
X21392039Y-20475308D01*
X21311736Y-20452857D01*
X21260835Y-20418212D01*
X21237705Y-20370040D01*
X21235857Y-20347977D01*
X21245572Y-20296285D01*
X21269914Y-20245567D01*
X21301679Y-20209341D01*
X21313340Y-20202537D01*
X21358706Y-20191259D01*
X21433648Y-20182254D01*
X21534932Y-20175649D01*
X21659323Y-20171571D01*
X21803589Y-20170146D01*
X21964494Y-20171503D01*
X21964494Y-20171503D01*
G37*
X21964494Y-20171503D02*
X22055232Y-20173388D01*
X22191742Y-20177046D01*
X22298921Y-20181120D01*
X22380314Y-20186621D01*
X22439466Y-20194563D01*
X22479921Y-20205957D01*
X22505223Y-20221817D01*
X22518918Y-20243154D01*
X22524548Y-20270981D01*
X22525660Y-20306311D01*
X22525660Y-20307759D01*
X22519695Y-20363726D01*
X22498997Y-20405707D01*
X22459362Y-20436581D01*
X22396588Y-20459231D01*
X22306470Y-20476536D01*
X22272522Y-20481240D01*
X22178089Y-20495924D01*
X22109176Y-20513632D01*
X22058420Y-20537622D01*
X22018461Y-20571154D01*
X21989747Y-20606452D01*
X21977268Y-20633395D01*
X21957820Y-20687591D01*
X21932742Y-20764482D01*
X21903374Y-20859508D01*
X21871054Y-20968110D01*
X21837124Y-21085729D01*
X21802921Y-21207806D01*
X21769785Y-21329781D01*
X21739057Y-21447095D01*
X21717161Y-21534304D01*
X21693567Y-21624863D01*
X21665740Y-21723263D01*
X21638544Y-21812516D01*
X21630076Y-21838446D01*
X21607230Y-21910480D01*
X21587651Y-21979021D01*
X21574688Y-22032132D01*
X21572573Y-22043380D01*
X21546569Y-22134651D01*
X21499313Y-22206778D01*
X21465348Y-22239271D01*
X21414967Y-22272942D01*
X21370607Y-22279640D01*
X21326278Y-22263346D01*
X21291259Y-22240422D01*
X21268088Y-22213273D01*
X21256408Y-22176960D01*
X21255865Y-22126542D01*
X21266102Y-22057079D01*
X21286765Y-21963629D01*
X21300645Y-21907355D01*
X21325372Y-21807165D01*
X21352372Y-21694753D01*
X21377585Y-21587144D01*
X21389931Y-21533012D01*
X21410374Y-21447374D01*
X21432736Y-21362211D01*
X21453799Y-21289412D01*
X21465562Y-21253530D01*
X21484907Y-21193738D01*
X21507352Y-21115596D01*
X21531422Y-21025306D01*
X21555641Y-20929068D01*
X21578532Y-20833083D01*
X21598619Y-20743551D01*
X21614428Y-20666674D01*
X21624480Y-20608652D01*
X21627302Y-20575685D01*
X21627194Y-20574507D01*
X21618415Y-20549189D01*
X21595573Y-20528637D01*
X21554049Y-20510903D01*
X21489222Y-20494036D01*
X21396470Y-20476089D01*
X21392039Y-20475308D01*
X21311736Y-20452857D01*
X21260835Y-20418212D01*
X21237705Y-20370040D01*
X21235857Y-20347977D01*
X21245572Y-20296285D01*
X21269914Y-20245567D01*
X21301679Y-20209341D01*
X21313340Y-20202537D01*
X21358706Y-20191259D01*
X21433648Y-20182254D01*
X21534932Y-20175649D01*
X21659323Y-20171571D01*
X21803589Y-20170146D01*
X21964494Y-20171503D01*
G36*
X19722402Y-20195054D02*
X19766751Y-20239266D01*
X19808654Y-20309090D01*
X19849408Y-20406277D01*
X19890309Y-20532576D01*
X19932655Y-20689739D01*
X19936238Y-20704077D01*
X19978709Y-20870971D01*
X20018633Y-21020164D01*
X20055276Y-21149268D01*
X20087906Y-21255893D01*
X20115791Y-21337652D01*
X20138198Y-21392154D01*
X20154395Y-21417011D01*
X20154919Y-21417364D01*
X20192683Y-21425360D01*
X20226618Y-21404768D01*
X20250464Y-21359789D01*
X20252650Y-21351749D01*
X20262098Y-21314206D01*
X20278569Y-21249832D01*
X20300775Y-21163607D01*
X20327426Y-21060511D01*
X20357235Y-20945527D01*
X20388911Y-20823633D01*
X20421167Y-20699811D01*
X20441433Y-20622187D01*
X20479223Y-20487246D01*
X20514980Y-20381674D01*
X20550440Y-20302178D01*
X20587341Y-20245463D01*
X20627421Y-20208235D01*
X20670612Y-20187739D01*
X20726078Y-20186303D01*
X20777818Y-20211089D01*
X20818776Y-20255609D01*
X20841894Y-20313375D01*
X20844483Y-20347620D01*
X20839525Y-20379697D01*
X20826975Y-20437392D01*
X20808281Y-20514711D01*
X20784893Y-20605659D01*
X20758306Y-20704077D01*
X20725905Y-20822293D01*
X20691001Y-20951442D01*
X20656749Y-21079734D01*
X20626305Y-21195377D01*
X20610914Y-21254822D01*
X20585898Y-21349814D01*
X20560404Y-21442283D01*
X20536921Y-21523479D01*
X20517939Y-21584651D01*
X20512694Y-21600064D01*
X20493107Y-21660912D01*
X20470167Y-21740546D01*
X20447636Y-21825651D01*
X20438411Y-21863107D01*
X20407170Y-21986560D01*
X20378538Y-22081408D01*
X20350339Y-22151576D01*
X20320399Y-22200988D01*
X20286541Y-22233571D01*
X20246590Y-22253248D01*
X20218050Y-22260641D01*
X20164728Y-22268028D01*
X20119681Y-22265260D01*
X20080986Y-22249477D01*
X20046719Y-22217822D01*
X20014957Y-22167434D01*
X19983775Y-22095455D01*
X19951251Y-21999025D01*
X19915461Y-21875287D01*
X19886723Y-21768188D01*
X19860449Y-21669509D01*
X19833155Y-21569029D01*
X19807687Y-21477101D01*
X19786891Y-21404079D01*
X19782778Y-21390065D01*
X19762537Y-21318249D01*
X19744977Y-21249771D01*
X19733300Y-21197259D01*
X19731831Y-21189061D01*
X19718667Y-21136375D01*
X19700381Y-21091824D01*
X19697110Y-21086310D01*
X19663645Y-21056440D01*
X19624162Y-21049635D01*
X19590031Y-21065896D01*
X19577008Y-21086310D01*
X19554374Y-21151297D01*
X19525762Y-21242388D01*
X19492829Y-21353705D01*
X19457234Y-21479371D01*
X19420633Y-21613509D01*
X19384685Y-21750242D01*
X19351046Y-21883691D01*
X19344023Y-21912427D01*
X19308834Y-22040952D01*
X19272899Y-22138600D01*
X19235280Y-22207373D01*
X19195041Y-22249272D01*
X19183073Y-22256516D01*
X19123112Y-22278956D01*
X19070311Y-22276227D01*
X19034178Y-22261537D01*
X19009735Y-22246786D01*
X18992187Y-22228446D01*
X18981758Y-22202806D01*
X18978674Y-22166158D01*
X18983158Y-22114794D01*
X18995436Y-22045004D01*
X19015733Y-21953079D01*
X19044272Y-21835311D01*
X19065014Y-21752414D01*
X19096368Y-21629354D01*
X19128774Y-21504759D01*
X19160246Y-21386074D01*
X19188803Y-21280744D01*
X19212458Y-21196214D01*
X19221731Y-21164401D01*
X19244872Y-21084871D01*
X19273684Y-20983147D01*
X19305489Y-20868839D01*
X19337608Y-20751555D01*
X19361222Y-20663941D01*
X19399830Y-20525117D01*
X19434027Y-20415398D01*
X19465218Y-20331524D01*
X19494804Y-20270240D01*
X19524191Y-20228286D01*
X19554781Y-20202406D01*
X19561712Y-20198596D01*
X19621179Y-20176469D01*
X19674310Y-20174705D01*
X19722402Y-20195054D01*
X19722402Y-20195054D01*
G37*
X19722402Y-20195054D02*
X19766751Y-20239266D01*
X19808654Y-20309090D01*
X19849408Y-20406277D01*
X19890309Y-20532576D01*
X19932655Y-20689739D01*
X19936238Y-20704077D01*
X19978709Y-20870971D01*
X20018633Y-21020164D01*
X20055276Y-21149268D01*
X20087906Y-21255893D01*
X20115791Y-21337652D01*
X20138198Y-21392154D01*
X20154395Y-21417011D01*
X20154919Y-21417364D01*
X20192683Y-21425360D01*
X20226618Y-21404768D01*
X20250464Y-21359789D01*
X20252650Y-21351749D01*
X20262098Y-21314206D01*
X20278569Y-21249832D01*
X20300775Y-21163607D01*
X20327426Y-21060511D01*
X20357235Y-20945527D01*
X20388911Y-20823633D01*
X20421167Y-20699811D01*
X20441433Y-20622187D01*
X20479223Y-20487246D01*
X20514980Y-20381674D01*
X20550440Y-20302178D01*
X20587341Y-20245463D01*
X20627421Y-20208235D01*
X20670612Y-20187739D01*
X20726078Y-20186303D01*
X20777818Y-20211089D01*
X20818776Y-20255609D01*
X20841894Y-20313375D01*
X20844483Y-20347620D01*
X20839525Y-20379697D01*
X20826975Y-20437392D01*
X20808281Y-20514711D01*
X20784893Y-20605659D01*
X20758306Y-20704077D01*
X20725905Y-20822293D01*
X20691001Y-20951442D01*
X20656749Y-21079734D01*
X20626305Y-21195377D01*
X20610914Y-21254822D01*
X20585898Y-21349814D01*
X20560404Y-21442283D01*
X20536921Y-21523479D01*
X20517939Y-21584651D01*
X20512694Y-21600064D01*
X20493107Y-21660912D01*
X20470167Y-21740546D01*
X20447636Y-21825651D01*
X20438411Y-21863107D01*
X20407170Y-21986560D01*
X20378538Y-22081408D01*
X20350339Y-22151576D01*
X20320399Y-22200988D01*
X20286541Y-22233571D01*
X20246590Y-22253248D01*
X20218050Y-22260641D01*
X20164728Y-22268028D01*
X20119681Y-22265260D01*
X20080986Y-22249477D01*
X20046719Y-22217822D01*
X20014957Y-22167434D01*
X19983775Y-22095455D01*
X19951251Y-21999025D01*
X19915461Y-21875287D01*
X19886723Y-21768188D01*
X19860449Y-21669509D01*
X19833155Y-21569029D01*
X19807687Y-21477101D01*
X19786891Y-21404079D01*
X19782778Y-21390065D01*
X19762537Y-21318249D01*
X19744977Y-21249771D01*
X19733300Y-21197259D01*
X19731831Y-21189061D01*
X19718667Y-21136375D01*
X19700381Y-21091824D01*
X19697110Y-21086310D01*
X19663645Y-21056440D01*
X19624162Y-21049635D01*
X19590031Y-21065896D01*
X19577008Y-21086310D01*
X19554374Y-21151297D01*
X19525762Y-21242388D01*
X19492829Y-21353705D01*
X19457234Y-21479371D01*
X19420633Y-21613509D01*
X19384685Y-21750242D01*
X19351046Y-21883691D01*
X19344023Y-21912427D01*
X19308834Y-22040952D01*
X19272899Y-22138600D01*
X19235280Y-22207373D01*
X19195041Y-22249272D01*
X19183073Y-22256516D01*
X19123112Y-22278956D01*
X19070311Y-22276227D01*
X19034178Y-22261537D01*
X19009735Y-22246786D01*
X18992187Y-22228446D01*
X18981758Y-22202806D01*
X18978674Y-22166158D01*
X18983158Y-22114794D01*
X18995436Y-22045004D01*
X19015733Y-21953079D01*
X19044272Y-21835311D01*
X19065014Y-21752414D01*
X19096368Y-21629354D01*
X19128774Y-21504759D01*
X19160246Y-21386074D01*
X19188803Y-21280744D01*
X19212458Y-21196214D01*
X19221731Y-21164401D01*
X19244872Y-21084871D01*
X19273684Y-20983147D01*
X19305489Y-20868839D01*
X19337608Y-20751555D01*
X19361222Y-20663941D01*
X19399830Y-20525117D01*
X19434027Y-20415398D01*
X19465218Y-20331524D01*
X19494804Y-20270240D01*
X19524191Y-20228286D01*
X19554781Y-20202406D01*
X19561712Y-20198596D01*
X19621179Y-20176469D01*
X19674310Y-20174705D01*
X19722402Y-20195054D01*
G36*
X28753928Y-20170816D02*
X28797435Y-20192641D01*
X28836500Y-20225939D01*
X28860748Y-20260861D01*
X28864077Y-20275389D01*
X28859979Y-20306822D01*
X28848549Y-20364662D01*
X28831084Y-20443588D01*
X28808881Y-20538281D01*
X28783237Y-20643420D01*
X28755449Y-20753684D01*
X28726815Y-20863753D01*
X28698631Y-20968307D01*
X28672899Y-21059596D01*
X28645556Y-21155267D01*
X28621360Y-21243489D01*
X28598663Y-21330983D01*
X28575819Y-21424468D01*
X28551182Y-21530662D01*
X28523105Y-21656287D01*
X28493430Y-21791994D01*
X28482626Y-21851150D01*
X28477467Y-21899566D01*
X28478955Y-21926120D01*
X28506582Y-21955572D01*
X28558982Y-21975786D01*
X28628807Y-21984540D01*
X28669749Y-21983813D01*
X28725141Y-21982784D01*
X28800805Y-21984709D01*
X28884305Y-21989178D01*
X28925942Y-21992306D01*
X29003493Y-21999491D01*
X29055377Y-22006839D01*
X29088757Y-22016328D01*
X29110796Y-22029939D01*
X29127333Y-22047954D01*
X29155998Y-22107187D01*
X29154482Y-22168078D01*
X29124564Y-22224550D01*
X29068021Y-22270525D01*
X29061177Y-22274204D01*
X29035948Y-22283533D01*
X28998810Y-22290148D01*
X28944987Y-22294363D01*
X28869703Y-22296494D01*
X28768182Y-22296853D01*
X28721043Y-22296585D01*
X28613993Y-22294999D01*
X28506965Y-22292025D01*
X28408986Y-22288009D01*
X28329081Y-22283299D01*
X28291579Y-22280079D01*
X28205335Y-22269053D01*
X28146495Y-22255799D01*
X28109586Y-22238097D01*
X28089130Y-22213731D01*
X28082578Y-22195397D01*
X28082967Y-22167244D01*
X28090068Y-22113580D01*
X28102801Y-22040836D01*
X28120088Y-21955444D01*
X28131455Y-21904059D01*
X28145277Y-21844111D01*
X28159708Y-21783085D01*
X28175519Y-21717997D01*
X28193484Y-21645864D01*
X28214374Y-21563702D01*
X28238961Y-21468529D01*
X28268017Y-21357360D01*
X28302316Y-21227212D01*
X28342628Y-21075103D01*
X28389726Y-20898047D01*
X28444383Y-20693063D01*
X28461189Y-20630097D01*
X28505796Y-20477511D01*
X28549971Y-20356629D01*
X28594452Y-20266294D01*
X28639975Y-20205350D01*
X28687277Y-20172643D01*
X28737096Y-20167014D01*
X28753928Y-20170816D01*
X28753928Y-20170816D01*
G37*
X28753928Y-20170816D02*
X28797435Y-20192641D01*
X28836500Y-20225939D01*
X28860748Y-20260861D01*
X28864077Y-20275389D01*
X28859979Y-20306822D01*
X28848549Y-20364662D01*
X28831084Y-20443588D01*
X28808881Y-20538281D01*
X28783237Y-20643420D01*
X28755449Y-20753684D01*
X28726815Y-20863753D01*
X28698631Y-20968307D01*
X28672899Y-21059596D01*
X28645556Y-21155267D01*
X28621360Y-21243489D01*
X28598663Y-21330983D01*
X28575819Y-21424468D01*
X28551182Y-21530662D01*
X28523105Y-21656287D01*
X28493430Y-21791994D01*
X28482626Y-21851150D01*
X28477467Y-21899566D01*
X28478955Y-21926120D01*
X28506582Y-21955572D01*
X28558982Y-21975786D01*
X28628807Y-21984540D01*
X28669749Y-21983813D01*
X28725141Y-21982784D01*
X28800805Y-21984709D01*
X28884305Y-21989178D01*
X28925942Y-21992306D01*
X29003493Y-21999491D01*
X29055377Y-22006839D01*
X29088757Y-22016328D01*
X29110796Y-22029939D01*
X29127333Y-22047954D01*
X29155998Y-22107187D01*
X29154482Y-22168078D01*
X29124564Y-22224550D01*
X29068021Y-22270525D01*
X29061177Y-22274204D01*
X29035948Y-22283533D01*
X28998810Y-22290148D01*
X28944987Y-22294363D01*
X28869703Y-22296494D01*
X28768182Y-22296853D01*
X28721043Y-22296585D01*
X28613993Y-22294999D01*
X28506965Y-22292025D01*
X28408986Y-22288009D01*
X28329081Y-22283299D01*
X28291579Y-22280079D01*
X28205335Y-22269053D01*
X28146495Y-22255799D01*
X28109586Y-22238097D01*
X28089130Y-22213731D01*
X28082578Y-22195397D01*
X28082967Y-22167244D01*
X28090068Y-22113580D01*
X28102801Y-22040836D01*
X28120088Y-21955444D01*
X28131455Y-21904059D01*
X28145277Y-21844111D01*
X28159708Y-21783085D01*
X28175519Y-21717997D01*
X28193484Y-21645864D01*
X28214374Y-21563702D01*
X28238961Y-21468529D01*
X28268017Y-21357360D01*
X28302316Y-21227212D01*
X28342628Y-21075103D01*
X28389726Y-20898047D01*
X28444383Y-20693063D01*
X28461189Y-20630097D01*
X28505796Y-20477511D01*
X28549971Y-20356629D01*
X28594452Y-20266294D01*
X28639975Y-20205350D01*
X28687277Y-20172643D01*
X28737096Y-20167014D01*
X28753928Y-20170816D01*
G36*
X27257876Y-20170816D02*
X27301383Y-20192641D01*
X27340449Y-20225939D01*
X27364697Y-20260861D01*
X27368026Y-20275389D01*
X27363927Y-20306822D01*
X27352497Y-20364662D01*
X27335032Y-20443588D01*
X27312829Y-20538281D01*
X27287185Y-20643420D01*
X27259397Y-20753684D01*
X27230763Y-20863753D01*
X27202579Y-20968307D01*
X27176847Y-21059596D01*
X27149504Y-21155267D01*
X27125308Y-21243489D01*
X27102611Y-21330983D01*
X27079767Y-21424468D01*
X27055130Y-21530662D01*
X27027053Y-21656287D01*
X26997378Y-21791994D01*
X26986575Y-21851150D01*
X26981415Y-21899566D01*
X26982903Y-21926120D01*
X27010530Y-21955572D01*
X27062931Y-21975786D01*
X27132756Y-21984540D01*
X27173697Y-21983813D01*
X27229089Y-21982784D01*
X27304753Y-21984709D01*
X27388253Y-21989178D01*
X27429890Y-21992306D01*
X27507441Y-21999491D01*
X27559325Y-22006839D01*
X27592705Y-22016328D01*
X27614745Y-22029939D01*
X27631282Y-22047954D01*
X27659946Y-22107187D01*
X27658430Y-22168078D01*
X27628512Y-22224550D01*
X27571969Y-22270525D01*
X27565126Y-22274204D01*
X27539896Y-22283533D01*
X27502758Y-22290148D01*
X27448935Y-22294363D01*
X27373651Y-22296494D01*
X27272131Y-22296853D01*
X27224991Y-22296585D01*
X27117941Y-22294999D01*
X27010913Y-22292025D01*
X26912934Y-22288009D01*
X26833029Y-22283299D01*
X26795527Y-22280079D01*
X26709283Y-22269053D01*
X26650444Y-22255799D01*
X26613534Y-22238097D01*
X26593078Y-22213731D01*
X26586526Y-22195397D01*
X26586915Y-22167244D01*
X26594016Y-22113580D01*
X26606749Y-22040836D01*
X26624036Y-21955444D01*
X26635403Y-21904059D01*
X26649225Y-21844111D01*
X26663656Y-21783085D01*
X26679467Y-21717997D01*
X26697432Y-21645864D01*
X26718322Y-21563702D01*
X26742909Y-21468529D01*
X26771965Y-21357360D01*
X26806264Y-21227212D01*
X26846576Y-21075103D01*
X26893675Y-20898047D01*
X26948331Y-20693063D01*
X26965137Y-20630097D01*
X27009744Y-20477511D01*
X27053919Y-20356629D01*
X27098400Y-20266294D01*
X27143923Y-20205350D01*
X27191226Y-20172643D01*
X27241044Y-20167014D01*
X27257876Y-20170816D01*
X27257876Y-20170816D01*
G37*
X27257876Y-20170816D02*
X27301383Y-20192641D01*
X27340449Y-20225939D01*
X27364697Y-20260861D01*
X27368026Y-20275389D01*
X27363927Y-20306822D01*
X27352497Y-20364662D01*
X27335032Y-20443588D01*
X27312829Y-20538281D01*
X27287185Y-20643420D01*
X27259397Y-20753684D01*
X27230763Y-20863753D01*
X27202579Y-20968307D01*
X27176847Y-21059596D01*
X27149504Y-21155267D01*
X27125308Y-21243489D01*
X27102611Y-21330983D01*
X27079767Y-21424468D01*
X27055130Y-21530662D01*
X27027053Y-21656287D01*
X26997378Y-21791994D01*
X26986575Y-21851150D01*
X26981415Y-21899566D01*
X26982903Y-21926120D01*
X27010530Y-21955572D01*
X27062931Y-21975786D01*
X27132756Y-21984540D01*
X27173697Y-21983813D01*
X27229089Y-21982784D01*
X27304753Y-21984709D01*
X27388253Y-21989178D01*
X27429890Y-21992306D01*
X27507441Y-21999491D01*
X27559325Y-22006839D01*
X27592705Y-22016328D01*
X27614745Y-22029939D01*
X27631282Y-22047954D01*
X27659946Y-22107187D01*
X27658430Y-22168078D01*
X27628512Y-22224550D01*
X27571969Y-22270525D01*
X27565126Y-22274204D01*
X27539896Y-22283533D01*
X27502758Y-22290148D01*
X27448935Y-22294363D01*
X27373651Y-22296494D01*
X27272131Y-22296853D01*
X27224991Y-22296585D01*
X27117941Y-22294999D01*
X27010913Y-22292025D01*
X26912934Y-22288009D01*
X26833029Y-22283299D01*
X26795527Y-22280079D01*
X26709283Y-22269053D01*
X26650444Y-22255799D01*
X26613534Y-22238097D01*
X26593078Y-22213731D01*
X26586526Y-22195397D01*
X26586915Y-22167244D01*
X26594016Y-22113580D01*
X26606749Y-22040836D01*
X26624036Y-21955444D01*
X26635403Y-21904059D01*
X26649225Y-21844111D01*
X26663656Y-21783085D01*
X26679467Y-21717997D01*
X26697432Y-21645864D01*
X26718322Y-21563702D01*
X26742909Y-21468529D01*
X26771965Y-21357360D01*
X26806264Y-21227212D01*
X26846576Y-21075103D01*
X26893675Y-20898047D01*
X26948331Y-20693063D01*
X26965137Y-20630097D01*
X27009744Y-20477511D01*
X27053919Y-20356629D01*
X27098400Y-20266294D01*
X27143923Y-20205350D01*
X27191226Y-20172643D01*
X27241044Y-20167014D01*
X27257876Y-20170816D01*
G36*
X12115177Y-20177248D02*
X12243152Y-20221572D01*
X12312368Y-20260484D01*
X12385569Y-20321868D01*
X12445095Y-20397018D01*
X12490158Y-20480956D01*
X12519973Y-20568706D01*
X12533754Y-20655291D01*
X12530715Y-20735734D01*
X12510071Y-20805058D01*
X12471036Y-20858287D01*
X12412824Y-20890443D01*
X12411878Y-20890717D01*
X12349315Y-20894233D01*
X12314911Y-20882446D01*
X12289710Y-20866965D01*
X12266829Y-20843224D01*
X12242894Y-20805821D01*
X12214535Y-20749352D01*
X12178379Y-20668414D01*
X12171716Y-20652999D01*
X12122475Y-20567348D01*
X12069641Y-20513257D01*
X12035026Y-20489162D01*
X12002545Y-20474913D01*
X11961780Y-20467972D01*
X11902310Y-20465800D01*
X11874483Y-20465696D01*
X11796761Y-20467943D01*
X11737693Y-20476498D01*
X11683249Y-20494080D01*
X11648031Y-20509594D01*
X11547847Y-20570775D01*
X11458480Y-20652176D01*
X11389486Y-20744589D01*
X11373852Y-20773778D01*
X11348122Y-20835197D01*
X11317472Y-20921349D01*
X11284046Y-21024852D01*
X11249990Y-21138328D01*
X11217448Y-21254394D01*
X11188564Y-21365672D01*
X11165483Y-21464780D01*
X11150825Y-21541309D01*
X11137367Y-21646229D01*
X11135638Y-21727267D01*
X11146720Y-21791648D01*
X11171696Y-21846600D01*
X11202933Y-21889255D01*
X11261344Y-21941715D01*
X11333402Y-21972867D01*
X11425807Y-21985246D01*
X11457562Y-21985686D01*
X11560296Y-21977205D01*
X11651397Y-21951208D01*
X11736206Y-21904551D01*
X11820062Y-21834093D01*
X11908306Y-21736689D01*
X11933337Y-21705665D01*
X12007362Y-21618877D01*
X12070621Y-21560787D01*
X12125933Y-21530150D01*
X12176118Y-21525722D01*
X12223997Y-21546259D01*
X12248926Y-21566399D01*
X12279725Y-21604328D01*
X12289977Y-21646690D01*
X12279665Y-21700535D01*
X12248774Y-21772907D01*
X12248450Y-21773568D01*
X12189492Y-21866760D01*
X12105754Y-21961856D01*
X12004231Y-22052318D01*
X11891920Y-22131608D01*
X11823883Y-22170269D01*
X11674434Y-22238150D01*
X11537419Y-22279928D01*
X11406840Y-22296727D01*
X11276697Y-22289673D01*
X11229656Y-22281681D01*
X11157940Y-22260465D01*
X11081899Y-22226884D01*
X11013823Y-22187168D01*
X10966700Y-22148326D01*
X10925379Y-22090567D01*
X10884414Y-22012226D01*
X10849405Y-21925181D01*
X10829425Y-21857155D01*
X10816654Y-21746658D01*
X10826128Y-21616302D01*
X10858011Y-21464299D01*
X10869206Y-21423734D01*
X10889607Y-21350511D01*
X10914321Y-21258400D01*
X10939883Y-21160458D01*
X10958116Y-21088676D01*
X11003865Y-20923481D01*
X11052961Y-20784708D01*
X11108698Y-20665901D01*
X11174368Y-20560600D01*
X11253263Y-20462350D01*
X11305980Y-20406454D01*
X11418336Y-20313285D01*
X11547012Y-20241043D01*
X11686520Y-20190522D01*
X11831375Y-20162518D01*
X11976090Y-20157828D01*
X12115177Y-20177248D01*
X12115177Y-20177248D01*
G37*
X12115177Y-20177248D02*
X12243152Y-20221572D01*
X12312368Y-20260484D01*
X12385569Y-20321868D01*
X12445095Y-20397018D01*
X12490158Y-20480956D01*
X12519973Y-20568706D01*
X12533754Y-20655291D01*
X12530715Y-20735734D01*
X12510071Y-20805058D01*
X12471036Y-20858287D01*
X12412824Y-20890443D01*
X12411878Y-20890717D01*
X12349315Y-20894233D01*
X12314911Y-20882446D01*
X12289710Y-20866965D01*
X12266829Y-20843224D01*
X12242894Y-20805821D01*
X12214535Y-20749352D01*
X12178379Y-20668414D01*
X12171716Y-20652999D01*
X12122475Y-20567348D01*
X12069641Y-20513257D01*
X12035026Y-20489162D01*
X12002545Y-20474913D01*
X11961780Y-20467972D01*
X11902310Y-20465800D01*
X11874483Y-20465696D01*
X11796761Y-20467943D01*
X11737693Y-20476498D01*
X11683249Y-20494080D01*
X11648031Y-20509594D01*
X11547847Y-20570775D01*
X11458480Y-20652176D01*
X11389486Y-20744589D01*
X11373852Y-20773778D01*
X11348122Y-20835197D01*
X11317472Y-20921349D01*
X11284046Y-21024852D01*
X11249990Y-21138328D01*
X11217448Y-21254394D01*
X11188564Y-21365672D01*
X11165483Y-21464780D01*
X11150825Y-21541309D01*
X11137367Y-21646229D01*
X11135638Y-21727267D01*
X11146720Y-21791648D01*
X11171696Y-21846600D01*
X11202933Y-21889255D01*
X11261344Y-21941715D01*
X11333402Y-21972867D01*
X11425807Y-21985246D01*
X11457562Y-21985686D01*
X11560296Y-21977205D01*
X11651397Y-21951208D01*
X11736206Y-21904551D01*
X11820062Y-21834093D01*
X11908306Y-21736689D01*
X11933337Y-21705665D01*
X12007362Y-21618877D01*
X12070621Y-21560787D01*
X12125933Y-21530150D01*
X12176118Y-21525722D01*
X12223997Y-21546259D01*
X12248926Y-21566399D01*
X12279725Y-21604328D01*
X12289977Y-21646690D01*
X12279665Y-21700535D01*
X12248774Y-21772907D01*
X12248450Y-21773568D01*
X12189492Y-21866760D01*
X12105754Y-21961856D01*
X12004231Y-22052318D01*
X11891920Y-22131608D01*
X11823883Y-22170269D01*
X11674434Y-22238150D01*
X11537419Y-22279928D01*
X11406840Y-22296727D01*
X11276697Y-22289673D01*
X11229656Y-22281681D01*
X11157940Y-22260465D01*
X11081899Y-22226884D01*
X11013823Y-22187168D01*
X10966700Y-22148326D01*
X10925379Y-22090567D01*
X10884414Y-22012226D01*
X10849405Y-21925181D01*
X10829425Y-21857155D01*
X10816654Y-21746658D01*
X10826128Y-21616302D01*
X10858011Y-21464299D01*
X10869206Y-21423734D01*
X10889607Y-21350511D01*
X10914321Y-21258400D01*
X10939883Y-21160458D01*
X10958116Y-21088676D01*
X11003865Y-20923481D01*
X11052961Y-20784708D01*
X11108698Y-20665901D01*
X11174368Y-20560600D01*
X11253263Y-20462350D01*
X11305980Y-20406454D01*
X11418336Y-20313285D01*
X11547012Y-20241043D01*
X11686520Y-20190522D01*
X11831375Y-20162518D01*
X11976090Y-20157828D01*
X12115177Y-20177248D01*
G36*
X7957164Y-20170816D02*
X8000671Y-20192641D01*
X8039737Y-20225939D01*
X8063985Y-20260861D01*
X8067314Y-20275389D01*
X8063215Y-20306822D01*
X8051785Y-20364662D01*
X8034320Y-20443588D01*
X8012117Y-20538281D01*
X7986473Y-20643420D01*
X7958685Y-20753684D01*
X7930051Y-20863753D01*
X7901867Y-20968307D01*
X7876135Y-21059596D01*
X7848792Y-21155267D01*
X7824596Y-21243489D01*
X7801899Y-21330983D01*
X7779055Y-21424468D01*
X7754418Y-21530662D01*
X7726341Y-21656287D01*
X7696666Y-21791994D01*
X7685863Y-21851150D01*
X7680703Y-21899566D01*
X7682192Y-21926120D01*
X7709818Y-21955572D01*
X7762219Y-21975786D01*
X7832044Y-21984540D01*
X7872985Y-21983813D01*
X7928378Y-21982784D01*
X8004041Y-21984709D01*
X8087541Y-21989178D01*
X8129178Y-21992306D01*
X8206729Y-21999491D01*
X8258613Y-22006839D01*
X8291993Y-22016328D01*
X8314033Y-22029939D01*
X8330570Y-22047954D01*
X8359234Y-22107187D01*
X8357718Y-22168078D01*
X8327800Y-22224550D01*
X8271257Y-22270525D01*
X8264414Y-22274204D01*
X8239184Y-22283533D01*
X8202046Y-22290148D01*
X8148223Y-22294363D01*
X8072939Y-22296494D01*
X7971419Y-22296853D01*
X7924279Y-22296585D01*
X7817229Y-22294999D01*
X7710202Y-22292025D01*
X7612222Y-22288009D01*
X7532317Y-22283299D01*
X7494815Y-22280079D01*
X7408571Y-22269053D01*
X7349732Y-22255799D01*
X7312822Y-22238097D01*
X7292366Y-22213731D01*
X7285814Y-22195397D01*
X7286203Y-22167244D01*
X7293304Y-22113580D01*
X7306037Y-22040836D01*
X7323324Y-21955444D01*
X7334691Y-21904059D01*
X7348513Y-21844111D01*
X7362944Y-21783085D01*
X7378755Y-21717997D01*
X7396720Y-21645864D01*
X7417610Y-21563702D01*
X7442197Y-21468529D01*
X7471254Y-21357360D01*
X7505552Y-21227212D01*
X7545864Y-21075103D01*
X7592963Y-20898047D01*
X7647619Y-20693063D01*
X7664425Y-20630097D01*
X7709032Y-20477511D01*
X7753207Y-20356629D01*
X7797688Y-20266294D01*
X7843211Y-20205350D01*
X7890514Y-20172643D01*
X7940332Y-20167014D01*
X7957164Y-20170816D01*
X7957164Y-20170816D01*
G37*
X7957164Y-20170816D02*
X8000671Y-20192641D01*
X8039737Y-20225939D01*
X8063985Y-20260861D01*
X8067314Y-20275389D01*
X8063215Y-20306822D01*
X8051785Y-20364662D01*
X8034320Y-20443588D01*
X8012117Y-20538281D01*
X7986473Y-20643420D01*
X7958685Y-20753684D01*
X7930051Y-20863753D01*
X7901867Y-20968307D01*
X7876135Y-21059596D01*
X7848792Y-21155267D01*
X7824596Y-21243489D01*
X7801899Y-21330983D01*
X7779055Y-21424468D01*
X7754418Y-21530662D01*
X7726341Y-21656287D01*
X7696666Y-21791994D01*
X7685863Y-21851150D01*
X7680703Y-21899566D01*
X7682192Y-21926120D01*
X7709818Y-21955572D01*
X7762219Y-21975786D01*
X7832044Y-21984540D01*
X7872985Y-21983813D01*
X7928378Y-21982784D01*
X8004041Y-21984709D01*
X8087541Y-21989178D01*
X8129178Y-21992306D01*
X8206729Y-21999491D01*
X8258613Y-22006839D01*
X8291993Y-22016328D01*
X8314033Y-22029939D01*
X8330570Y-22047954D01*
X8359234Y-22107187D01*
X8357718Y-22168078D01*
X8327800Y-22224550D01*
X8271257Y-22270525D01*
X8264414Y-22274204D01*
X8239184Y-22283533D01*
X8202046Y-22290148D01*
X8148223Y-22294363D01*
X8072939Y-22296494D01*
X7971419Y-22296853D01*
X7924279Y-22296585D01*
X7817229Y-22294999D01*
X7710202Y-22292025D01*
X7612222Y-22288009D01*
X7532317Y-22283299D01*
X7494815Y-22280079D01*
X7408571Y-22269053D01*
X7349732Y-22255799D01*
X7312822Y-22238097D01*
X7292366Y-22213731D01*
X7285814Y-22195397D01*
X7286203Y-22167244D01*
X7293304Y-22113580D01*
X7306037Y-22040836D01*
X7323324Y-21955444D01*
X7334691Y-21904059D01*
X7348513Y-21844111D01*
X7362944Y-21783085D01*
X7378755Y-21717997D01*
X7396720Y-21645864D01*
X7417610Y-21563702D01*
X7442197Y-21468529D01*
X7471254Y-21357360D01*
X7505552Y-21227212D01*
X7545864Y-21075103D01*
X7592963Y-20898047D01*
X7647619Y-20693063D01*
X7664425Y-20630097D01*
X7709032Y-20477511D01*
X7753207Y-20356629D01*
X7797688Y-20266294D01*
X7843211Y-20205350D01*
X7890514Y-20172643D01*
X7940332Y-20167014D01*
X7957164Y-20170816D01*
G36*
X25724149Y-20178013D02*
X25850951Y-20204627D01*
X25953594Y-20246482D01*
X26038441Y-20306588D01*
X26076446Y-20344723D01*
X26141399Y-20433373D01*
X26181387Y-20530283D01*
X26199218Y-20643388D01*
X26200776Y-20696221D01*
X26195295Y-20786316D01*
X26179934Y-20900472D01*
X26156320Y-21031951D01*
X26126079Y-21174013D01*
X26090837Y-21319918D01*
X26052219Y-21462926D01*
X26011852Y-21596299D01*
X25971361Y-21713295D01*
X25933160Y-21805499D01*
X25863529Y-21920120D01*
X25767953Y-22028029D01*
X25652628Y-22125309D01*
X25523753Y-22208040D01*
X25387523Y-22272307D01*
X25250136Y-22314191D01*
X25117791Y-22329774D01*
X25103916Y-22329717D01*
X25031737Y-22326618D01*
X24959653Y-22320587D01*
X24915176Y-22314759D01*
X24801966Y-22280847D01*
X24699948Y-22221798D01*
X24614923Y-22142538D01*
X24552690Y-22047992D01*
X24528958Y-21986849D01*
X24510820Y-21911021D01*
X24501370Y-21832946D01*
X24501048Y-21747761D01*
X24504933Y-21706925D01*
X24818811Y-21706925D01*
X24837098Y-21810250D01*
X24883160Y-21896889D01*
X24955196Y-21964519D01*
X25051404Y-22010818D01*
X25055553Y-22012138D01*
X25110334Y-22027475D01*
X25153815Y-22032707D01*
X25198472Y-22027263D01*
X25256784Y-22010575D01*
X25283395Y-22001748D01*
X25418501Y-21941259D01*
X25529186Y-21858841D01*
X25615949Y-21754014D01*
X25679288Y-21626301D01*
X25682012Y-21618854D01*
X25710147Y-21534769D01*
X25740871Y-21433053D01*
X25772449Y-21320535D01*
X25803146Y-21204047D01*
X25831226Y-21090419D01*
X25854956Y-20986481D01*
X25872600Y-20899063D01*
X25882423Y-20834996D01*
X25883204Y-20826749D01*
X25880943Y-20717329D01*
X25853876Y-20628786D01*
X25801027Y-20559341D01*
X25721418Y-20507212D01*
X25703389Y-20499203D01*
X25605698Y-20475319D01*
X25499805Y-20478474D01*
X25391978Y-20506179D01*
X25288483Y-20555947D01*
X25195587Y-20625290D01*
X25119557Y-20711720D01*
X25102753Y-20737631D01*
X25075400Y-20792329D01*
X25043251Y-20871582D01*
X25008022Y-20969531D01*
X24971430Y-21080317D01*
X24935192Y-21198081D01*
X24901022Y-21316964D01*
X24870638Y-21431107D01*
X24845756Y-21534650D01*
X24828093Y-21621736D01*
X24819363Y-21686505D01*
X24818811Y-21706925D01*
X24504933Y-21706925D01*
X24510293Y-21650600D01*
X24529544Y-21536600D01*
X24559239Y-21400898D01*
X24594730Y-21258235D01*
X24645130Y-21073597D01*
X24694113Y-20917731D01*
X24743740Y-20786713D01*
X24796066Y-20676618D01*
X24853151Y-20583522D01*
X24917053Y-20503501D01*
X24989828Y-20432630D01*
X25055056Y-20380451D01*
X25212552Y-20279611D01*
X25369235Y-20211523D01*
X25525459Y-20176081D01*
X25681578Y-20173177D01*
X25724149Y-20178013D01*
X25724149Y-20178013D01*
G37*
X25724149Y-20178013D02*
X25850951Y-20204627D01*
X25953594Y-20246482D01*
X26038441Y-20306588D01*
X26076446Y-20344723D01*
X26141399Y-20433373D01*
X26181387Y-20530283D01*
X26199218Y-20643388D01*
X26200776Y-20696221D01*
X26195295Y-20786316D01*
X26179934Y-20900472D01*
X26156320Y-21031951D01*
X26126079Y-21174013D01*
X26090837Y-21319918D01*
X26052219Y-21462926D01*
X26011852Y-21596299D01*
X25971361Y-21713295D01*
X25933160Y-21805499D01*
X25863529Y-21920120D01*
X25767953Y-22028029D01*
X25652628Y-22125309D01*
X25523753Y-22208040D01*
X25387523Y-22272307D01*
X25250136Y-22314191D01*
X25117791Y-22329774D01*
X25103916Y-22329717D01*
X25031737Y-22326618D01*
X24959653Y-22320587D01*
X24915176Y-22314759D01*
X24801966Y-22280847D01*
X24699948Y-22221798D01*
X24614923Y-22142538D01*
X24552690Y-22047992D01*
X24528958Y-21986849D01*
X24510820Y-21911021D01*
X24501370Y-21832946D01*
X24501048Y-21747761D01*
X24504933Y-21706925D01*
X24818811Y-21706925D01*
X24837098Y-21810250D01*
X24883160Y-21896889D01*
X24955196Y-21964519D01*
X25051404Y-22010818D01*
X25055553Y-22012138D01*
X25110334Y-22027475D01*
X25153815Y-22032707D01*
X25198472Y-22027263D01*
X25256784Y-22010575D01*
X25283395Y-22001748D01*
X25418501Y-21941259D01*
X25529186Y-21858841D01*
X25615949Y-21754014D01*
X25679288Y-21626301D01*
X25682012Y-21618854D01*
X25710147Y-21534769D01*
X25740871Y-21433053D01*
X25772449Y-21320535D01*
X25803146Y-21204047D01*
X25831226Y-21090419D01*
X25854956Y-20986481D01*
X25872600Y-20899063D01*
X25882423Y-20834996D01*
X25883204Y-20826749D01*
X25880943Y-20717329D01*
X25853876Y-20628786D01*
X25801027Y-20559341D01*
X25721418Y-20507212D01*
X25703389Y-20499203D01*
X25605698Y-20475319D01*
X25499805Y-20478474D01*
X25391978Y-20506179D01*
X25288483Y-20555947D01*
X25195587Y-20625290D01*
X25119557Y-20711720D01*
X25102753Y-20737631D01*
X25075400Y-20792329D01*
X25043251Y-20871582D01*
X25008022Y-20969531D01*
X24971430Y-21080317D01*
X24935192Y-21198081D01*
X24901022Y-21316964D01*
X24870638Y-21431107D01*
X24845756Y-21534650D01*
X24828093Y-21621736D01*
X24819363Y-21686505D01*
X24818811Y-21706925D01*
X24504933Y-21706925D01*
X24510293Y-21650600D01*
X24529544Y-21536600D01*
X24559239Y-21400898D01*
X24594730Y-21258235D01*
X24645130Y-21073597D01*
X24694113Y-20917731D01*
X24743740Y-20786713D01*
X24796066Y-20676618D01*
X24853151Y-20583522D01*
X24917053Y-20503501D01*
X24989828Y-20432630D01*
X25055056Y-20380451D01*
X25212552Y-20279611D01*
X25369235Y-20211523D01*
X25525459Y-20176081D01*
X25681578Y-20173177D01*
X25724149Y-20178013D01*
G36*
X18260330Y-20178013D02*
X18387132Y-20204627D01*
X18489775Y-20246482D01*
X18574622Y-20306588D01*
X18612628Y-20344723D01*
X18677580Y-20433373D01*
X18717568Y-20530283D01*
X18735399Y-20643388D01*
X18736958Y-20696221D01*
X18731476Y-20786316D01*
X18716115Y-20900472D01*
X18692501Y-21031951D01*
X18662260Y-21174013D01*
X18627018Y-21319918D01*
X18588400Y-21462926D01*
X18548033Y-21596299D01*
X18507542Y-21713295D01*
X18469341Y-21805499D01*
X18399711Y-21920120D01*
X18304134Y-22028029D01*
X18188810Y-22125309D01*
X18059934Y-22208040D01*
X17923704Y-22272307D01*
X17786318Y-22314191D01*
X17653972Y-22329774D01*
X17640098Y-22329717D01*
X17567919Y-22326618D01*
X17495834Y-22320587D01*
X17451357Y-22314759D01*
X17338147Y-22280847D01*
X17236130Y-22221798D01*
X17151104Y-22142538D01*
X17088871Y-22047992D01*
X17065140Y-21986849D01*
X17047001Y-21911021D01*
X17037551Y-21832946D01*
X17037229Y-21747761D01*
X17041114Y-21706925D01*
X17354993Y-21706925D01*
X17373279Y-21810250D01*
X17419342Y-21896889D01*
X17491378Y-21964519D01*
X17587585Y-22010818D01*
X17591734Y-22012138D01*
X17646516Y-22027475D01*
X17689996Y-22032707D01*
X17734653Y-22027263D01*
X17792965Y-22010575D01*
X17819576Y-22001748D01*
X17954682Y-21941259D01*
X18065368Y-21858841D01*
X18152131Y-21754014D01*
X18215469Y-21626301D01*
X18218193Y-21618854D01*
X18246329Y-21534769D01*
X18277052Y-21433053D01*
X18308630Y-21320535D01*
X18339327Y-21204047D01*
X18367407Y-21090419D01*
X18391137Y-20986481D01*
X18408781Y-20899063D01*
X18418604Y-20834996D01*
X18419386Y-20826749D01*
X18417124Y-20717329D01*
X18390057Y-20628786D01*
X18337208Y-20559341D01*
X18257600Y-20507212D01*
X18239570Y-20499203D01*
X18141879Y-20475319D01*
X18035987Y-20478474D01*
X17928159Y-20506179D01*
X17824664Y-20555947D01*
X17731768Y-20625290D01*
X17655738Y-20711720D01*
X17638934Y-20737631D01*
X17611581Y-20792329D01*
X17579432Y-20871582D01*
X17544204Y-20969531D01*
X17507612Y-21080317D01*
X17471373Y-21198081D01*
X17437203Y-21316964D01*
X17406819Y-21431107D01*
X17381938Y-21534650D01*
X17364274Y-21621736D01*
X17355545Y-21686505D01*
X17354993Y-21706925D01*
X17041114Y-21706925D01*
X17046474Y-21650600D01*
X17065725Y-21536600D01*
X17095421Y-21400898D01*
X17130912Y-21258235D01*
X17181311Y-21073597D01*
X17230295Y-20917731D01*
X17279921Y-20786713D01*
X17332247Y-20676618D01*
X17389332Y-20583522D01*
X17453234Y-20503501D01*
X17526010Y-20432630D01*
X17591237Y-20380451D01*
X17748733Y-20279611D01*
X17905416Y-20211523D01*
X18061640Y-20176081D01*
X18217759Y-20173177D01*
X18260330Y-20178013D01*
X18260330Y-20178013D01*
G37*
X18260330Y-20178013D02*
X18387132Y-20204627D01*
X18489775Y-20246482D01*
X18574622Y-20306588D01*
X18612628Y-20344723D01*
X18677580Y-20433373D01*
X18717568Y-20530283D01*
X18735399Y-20643388D01*
X18736958Y-20696221D01*
X18731476Y-20786316D01*
X18716115Y-20900472D01*
X18692501Y-21031951D01*
X18662260Y-21174013D01*
X18627018Y-21319918D01*
X18588400Y-21462926D01*
X18548033Y-21596299D01*
X18507542Y-21713295D01*
X18469341Y-21805499D01*
X18399711Y-21920120D01*
X18304134Y-22028029D01*
X18188810Y-22125309D01*
X18059934Y-22208040D01*
X17923704Y-22272307D01*
X17786318Y-22314191D01*
X17653972Y-22329774D01*
X17640098Y-22329717D01*
X17567919Y-22326618D01*
X17495834Y-22320587D01*
X17451357Y-22314759D01*
X17338147Y-22280847D01*
X17236130Y-22221798D01*
X17151104Y-22142538D01*
X17088871Y-22047992D01*
X17065140Y-21986849D01*
X17047001Y-21911021D01*
X17037551Y-21832946D01*
X17037229Y-21747761D01*
X17041114Y-21706925D01*
X17354993Y-21706925D01*
X17373279Y-21810250D01*
X17419342Y-21896889D01*
X17491378Y-21964519D01*
X17587585Y-22010818D01*
X17591734Y-22012138D01*
X17646516Y-22027475D01*
X17689996Y-22032707D01*
X17734653Y-22027263D01*
X17792965Y-22010575D01*
X17819576Y-22001748D01*
X17954682Y-21941259D01*
X18065368Y-21858841D01*
X18152131Y-21754014D01*
X18215469Y-21626301D01*
X18218193Y-21618854D01*
X18246329Y-21534769D01*
X18277052Y-21433053D01*
X18308630Y-21320535D01*
X18339327Y-21204047D01*
X18367407Y-21090419D01*
X18391137Y-20986481D01*
X18408781Y-20899063D01*
X18418604Y-20834996D01*
X18419386Y-20826749D01*
X18417124Y-20717329D01*
X18390057Y-20628786D01*
X18337208Y-20559341D01*
X18257600Y-20507212D01*
X18239570Y-20499203D01*
X18141879Y-20475319D01*
X18035987Y-20478474D01*
X17928159Y-20506179D01*
X17824664Y-20555947D01*
X17731768Y-20625290D01*
X17655738Y-20711720D01*
X17638934Y-20737631D01*
X17611581Y-20792329D01*
X17579432Y-20871582D01*
X17544204Y-20969531D01*
X17507612Y-21080317D01*
X17471373Y-21198081D01*
X17437203Y-21316964D01*
X17406819Y-21431107D01*
X17381938Y-21534650D01*
X17364274Y-21621736D01*
X17355545Y-21686505D01*
X17354993Y-21706925D01*
X17041114Y-21706925D01*
X17046474Y-21650600D01*
X17065725Y-21536600D01*
X17095421Y-21400898D01*
X17130912Y-21258235D01*
X17181311Y-21073597D01*
X17230295Y-20917731D01*
X17279921Y-20786713D01*
X17332247Y-20676618D01*
X17389332Y-20583522D01*
X17453234Y-20503501D01*
X17526010Y-20432630D01*
X17591237Y-20380451D01*
X17748733Y-20279611D01*
X17905416Y-20211523D01*
X18061640Y-20176081D01*
X18217759Y-20173177D01*
X18260330Y-20178013D01*
G36*
X9958065Y-20178013D02*
X10084866Y-20204627D01*
X10187510Y-20246482D01*
X10272357Y-20306588D01*
X10310362Y-20344723D01*
X10375315Y-20433373D01*
X10415303Y-20530283D01*
X10433134Y-20643388D01*
X10434692Y-20696221D01*
X10429211Y-20786316D01*
X10413850Y-20900472D01*
X10390236Y-21031951D01*
X10359995Y-21174013D01*
X10324752Y-21319918D01*
X10286135Y-21462926D01*
X10245767Y-21596299D01*
X10205277Y-21713295D01*
X10167076Y-21805499D01*
X10097445Y-21920120D01*
X10001869Y-22028029D01*
X9886544Y-22125309D01*
X9757668Y-22208040D01*
X9621439Y-22272307D01*
X9484052Y-22314191D01*
X9351707Y-22329774D01*
X9337832Y-22329717D01*
X9265653Y-22326618D01*
X9193568Y-22320587D01*
X9149092Y-22314759D01*
X9035882Y-22280847D01*
X8933864Y-22221798D01*
X8848839Y-22142538D01*
X8786606Y-22047992D01*
X8762874Y-21986849D01*
X8744736Y-21911021D01*
X8735286Y-21832946D01*
X8734964Y-21747761D01*
X8738849Y-21706925D01*
X9052727Y-21706925D01*
X9071014Y-21810250D01*
X9117076Y-21896889D01*
X9189112Y-21964519D01*
X9285319Y-22010818D01*
X9289469Y-22012138D01*
X9344250Y-22027475D01*
X9387730Y-22032707D01*
X9432387Y-22027263D01*
X9490700Y-22010575D01*
X9517310Y-22001748D01*
X9652417Y-21941259D01*
X9763102Y-21858841D01*
X9849865Y-21754014D01*
X9913204Y-21626301D01*
X9915928Y-21618854D01*
X9944063Y-21534769D01*
X9974787Y-21433053D01*
X10006365Y-21320535D01*
X10037061Y-21204047D01*
X10065142Y-21090419D01*
X10088872Y-20986481D01*
X10106516Y-20899063D01*
X10116339Y-20834996D01*
X10117120Y-20826749D01*
X10114859Y-20717329D01*
X10087792Y-20628786D01*
X10034943Y-20559341D01*
X9955334Y-20507212D01*
X9937305Y-20499203D01*
X9839614Y-20475319D01*
X9733721Y-20478474D01*
X9625894Y-20506179D01*
X9522399Y-20555947D01*
X9429503Y-20625290D01*
X9353472Y-20711720D01*
X9336669Y-20737631D01*
X9309316Y-20792329D01*
X9277167Y-20871582D01*
X9241938Y-20969531D01*
X9205346Y-21080317D01*
X9169108Y-21198081D01*
X9134938Y-21316964D01*
X9104554Y-21431107D01*
X9079672Y-21534650D01*
X9062008Y-21621736D01*
X9053279Y-21686505D01*
X9052727Y-21706925D01*
X8738849Y-21706925D01*
X8744209Y-21650600D01*
X8763459Y-21536600D01*
X8793155Y-21400898D01*
X8828646Y-21258235D01*
X8879046Y-21073597D01*
X8928029Y-20917731D01*
X8977656Y-20786713D01*
X9029982Y-20676618D01*
X9087067Y-20583522D01*
X9150969Y-20503501D01*
X9223744Y-20432630D01*
X9288972Y-20380451D01*
X9446468Y-20279611D01*
X9603151Y-20211523D01*
X9759375Y-20176081D01*
X9915494Y-20173177D01*
X9958065Y-20178013D01*
X9958065Y-20178013D01*
G37*
X9958065Y-20178013D02*
X10084866Y-20204627D01*
X10187510Y-20246482D01*
X10272357Y-20306588D01*
X10310362Y-20344723D01*
X10375315Y-20433373D01*
X10415303Y-20530283D01*
X10433134Y-20643388D01*
X10434692Y-20696221D01*
X10429211Y-20786316D01*
X10413850Y-20900472D01*
X10390236Y-21031951D01*
X10359995Y-21174013D01*
X10324752Y-21319918D01*
X10286135Y-21462926D01*
X10245767Y-21596299D01*
X10205277Y-21713295D01*
X10167076Y-21805499D01*
X10097445Y-21920120D01*
X10001869Y-22028029D01*
X9886544Y-22125309D01*
X9757668Y-22208040D01*
X9621439Y-22272307D01*
X9484052Y-22314191D01*
X9351707Y-22329774D01*
X9337832Y-22329717D01*
X9265653Y-22326618D01*
X9193568Y-22320587D01*
X9149092Y-22314759D01*
X9035882Y-22280847D01*
X8933864Y-22221798D01*
X8848839Y-22142538D01*
X8786606Y-22047992D01*
X8762874Y-21986849D01*
X8744736Y-21911021D01*
X8735286Y-21832946D01*
X8734964Y-21747761D01*
X8738849Y-21706925D01*
X9052727Y-21706925D01*
X9071014Y-21810250D01*
X9117076Y-21896889D01*
X9189112Y-21964519D01*
X9285319Y-22010818D01*
X9289469Y-22012138D01*
X9344250Y-22027475D01*
X9387730Y-22032707D01*
X9432387Y-22027263D01*
X9490700Y-22010575D01*
X9517310Y-22001748D01*
X9652417Y-21941259D01*
X9763102Y-21858841D01*
X9849865Y-21754014D01*
X9913204Y-21626301D01*
X9915928Y-21618854D01*
X9944063Y-21534769D01*
X9974787Y-21433053D01*
X10006365Y-21320535D01*
X10037061Y-21204047D01*
X10065142Y-21090419D01*
X10088872Y-20986481D01*
X10106516Y-20899063D01*
X10116339Y-20834996D01*
X10117120Y-20826749D01*
X10114859Y-20717329D01*
X10087792Y-20628786D01*
X10034943Y-20559341D01*
X9955334Y-20507212D01*
X9937305Y-20499203D01*
X9839614Y-20475319D01*
X9733721Y-20478474D01*
X9625894Y-20506179D01*
X9522399Y-20555947D01*
X9429503Y-20625290D01*
X9353472Y-20711720D01*
X9336669Y-20737631D01*
X9309316Y-20792329D01*
X9277167Y-20871582D01*
X9241938Y-20969531D01*
X9205346Y-21080317D01*
X9169108Y-21198081D01*
X9134938Y-21316964D01*
X9104554Y-21431107D01*
X9079672Y-21534650D01*
X9062008Y-21621736D01*
X9053279Y-21686505D01*
X9052727Y-21706925D01*
X8738849Y-21706925D01*
X8744209Y-21650600D01*
X8763459Y-21536600D01*
X8793155Y-21400898D01*
X8828646Y-21258235D01*
X8879046Y-21073597D01*
X8928029Y-20917731D01*
X8977656Y-20786713D01*
X9029982Y-20676618D01*
X9087067Y-20583522D01*
X9150969Y-20503501D01*
X9223744Y-20432630D01*
X9288972Y-20380451D01*
X9446468Y-20279611D01*
X9603151Y-20211523D01*
X9759375Y-20176081D01*
X9915494Y-20173177D01*
X9958065Y-20178013D01*
G36*
X16434206Y-19214201D02*
X16523489Y-19230481D01*
X16617609Y-19253885D01*
X16703953Y-19281318D01*
X16764398Y-19306797D01*
X16826851Y-19349961D01*
X16889300Y-19411661D01*
X16942052Y-19480845D01*
X16975412Y-19546461D01*
X16975895Y-19547901D01*
X16994511Y-19629576D01*
X17005039Y-19729409D01*
X17007179Y-19834714D01*
X17000631Y-19932804D01*
X16986710Y-20005650D01*
X16931304Y-20152982D01*
X16858280Y-20276661D01*
X16769260Y-20374510D01*
X16665862Y-20444355D01*
X16656538Y-20448895D01*
X16565894Y-20482140D01*
X16490788Y-20487968D01*
X16428648Y-20466404D01*
X16408308Y-20451386D01*
X16374625Y-20411538D01*
X16363268Y-20362094D01*
X16363003Y-20349751D01*
X16363568Y-20322518D01*
X16368082Y-20300879D01*
X16380779Y-20280064D01*
X16405889Y-20255301D01*
X16447645Y-20221821D01*
X16510279Y-20174851D01*
X16533278Y-20157784D01*
X16614992Y-20077857D01*
X16669258Y-19980096D01*
X16695649Y-19865398D01*
X16698320Y-19810323D01*
X16690049Y-19710872D01*
X16663497Y-19635582D01*
X16615879Y-19581761D01*
X16544410Y-19546717D01*
X16446305Y-19527757D01*
X16402459Y-19524265D01*
X16281977Y-19529374D01*
X16160023Y-19559617D01*
X16031085Y-19616630D01*
X15965189Y-19653928D01*
X15900198Y-19700685D01*
X15823688Y-19767763D01*
X15742444Y-19848173D01*
X15663256Y-19934924D01*
X15592909Y-20021026D01*
X15548962Y-20082599D01*
X15423395Y-20296359D01*
X15311173Y-20532910D01*
X15215796Y-20783669D01*
X15140764Y-21040054D01*
X15117767Y-21139741D01*
X15099132Y-21250768D01*
X15086028Y-21377593D01*
X15078535Y-21512384D01*
X15076735Y-21647307D01*
X15080708Y-21774530D01*
X15090536Y-21886219D01*
X15106298Y-21974541D01*
X15109049Y-21984831D01*
X15159860Y-22127636D01*
X15225266Y-22243451D01*
X15308209Y-22336028D01*
X15411633Y-22409125D01*
X15461692Y-22434829D01*
X15522790Y-22461156D01*
X15572657Y-22474781D01*
X15626972Y-22478668D01*
X15683681Y-22476783D01*
X15745130Y-22470751D01*
X15803811Y-22457947D01*
X15865830Y-22435866D01*
X15937289Y-22402001D01*
X16024293Y-22353846D01*
X16115739Y-22299375D01*
X16173080Y-22267361D01*
X16224099Y-22243820D01*
X16258956Y-22233210D01*
X16262181Y-22233009D01*
X16307718Y-22245892D01*
X16354339Y-22277592D01*
X16388090Y-22317688D01*
X16394234Y-22331633D01*
X16393422Y-22369252D01*
X16377447Y-22421751D01*
X16351187Y-22477944D01*
X16319520Y-22526644D01*
X16300132Y-22547458D01*
X16221016Y-22608174D01*
X16127396Y-22667264D01*
X16032894Y-22716678D01*
X15970458Y-22742264D01*
X15863602Y-22768686D01*
X15739679Y-22782984D01*
X15612443Y-22784491D01*
X15495648Y-22772538D01*
X15466903Y-22766737D01*
X15328564Y-22719738D01*
X15194350Y-22645579D01*
X15072049Y-22549781D01*
X14969447Y-22437859D01*
X14936273Y-22390752D01*
X14882285Y-22289693D01*
X14833938Y-22165601D01*
X14794337Y-22028222D01*
X14766588Y-21887307D01*
X14760125Y-21837830D01*
X14751742Y-21694129D01*
X14754907Y-21528719D01*
X14768617Y-21350279D01*
X14791870Y-21167492D01*
X14823666Y-20989037D01*
X14863001Y-20823598D01*
X14886235Y-20745178D01*
X14950953Y-20565330D01*
X15030841Y-20378270D01*
X15120622Y-20195046D01*
X15215022Y-20026705D01*
X15272478Y-19936258D01*
X15396027Y-19764290D01*
X15517650Y-19620772D01*
X15641392Y-19501820D01*
X15771298Y-19403552D01*
X15911416Y-19322084D01*
X15913411Y-19321073D01*
X15999044Y-19284984D01*
X16101677Y-19252565D01*
X16208716Y-19226982D01*
X16307568Y-19211404D01*
X16362373Y-19208141D01*
X16434206Y-19214201D01*
X16434206Y-19214201D01*
G37*
X16434206Y-19214201D02*
X16523489Y-19230481D01*
X16617609Y-19253885D01*
X16703953Y-19281318D01*
X16764398Y-19306797D01*
X16826851Y-19349961D01*
X16889300Y-19411661D01*
X16942052Y-19480845D01*
X16975412Y-19546461D01*
X16975895Y-19547901D01*
X16994511Y-19629576D01*
X17005039Y-19729409D01*
X17007179Y-19834714D01*
X17000631Y-19932804D01*
X16986710Y-20005650D01*
X16931304Y-20152982D01*
X16858280Y-20276661D01*
X16769260Y-20374510D01*
X16665862Y-20444355D01*
X16656538Y-20448895D01*
X16565894Y-20482140D01*
X16490788Y-20487968D01*
X16428648Y-20466404D01*
X16408308Y-20451386D01*
X16374625Y-20411538D01*
X16363268Y-20362094D01*
X16363003Y-20349751D01*
X16363568Y-20322518D01*
X16368082Y-20300879D01*
X16380779Y-20280064D01*
X16405889Y-20255301D01*
X16447645Y-20221821D01*
X16510279Y-20174851D01*
X16533278Y-20157784D01*
X16614992Y-20077857D01*
X16669258Y-19980096D01*
X16695649Y-19865398D01*
X16698320Y-19810323D01*
X16690049Y-19710872D01*
X16663497Y-19635582D01*
X16615879Y-19581761D01*
X16544410Y-19546717D01*
X16446305Y-19527757D01*
X16402459Y-19524265D01*
X16281977Y-19529374D01*
X16160023Y-19559617D01*
X16031085Y-19616630D01*
X15965189Y-19653928D01*
X15900198Y-19700685D01*
X15823688Y-19767763D01*
X15742444Y-19848173D01*
X15663256Y-19934924D01*
X15592909Y-20021026D01*
X15548962Y-20082599D01*
X15423395Y-20296359D01*
X15311173Y-20532910D01*
X15215796Y-20783669D01*
X15140764Y-21040054D01*
X15117767Y-21139741D01*
X15099132Y-21250768D01*
X15086028Y-21377593D01*
X15078535Y-21512384D01*
X15076735Y-21647307D01*
X15080708Y-21774530D01*
X15090536Y-21886219D01*
X15106298Y-21974541D01*
X15109049Y-21984831D01*
X15159860Y-22127636D01*
X15225266Y-22243451D01*
X15308209Y-22336028D01*
X15411633Y-22409125D01*
X15461692Y-22434829D01*
X15522790Y-22461156D01*
X15572657Y-22474781D01*
X15626972Y-22478668D01*
X15683681Y-22476783D01*
X15745130Y-22470751D01*
X15803811Y-22457947D01*
X15865830Y-22435866D01*
X15937289Y-22402001D01*
X16024293Y-22353846D01*
X16115739Y-22299375D01*
X16173080Y-22267361D01*
X16224099Y-22243820D01*
X16258956Y-22233210D01*
X16262181Y-22233009D01*
X16307718Y-22245892D01*
X16354339Y-22277592D01*
X16388090Y-22317688D01*
X16394234Y-22331633D01*
X16393422Y-22369252D01*
X16377447Y-22421751D01*
X16351187Y-22477944D01*
X16319520Y-22526644D01*
X16300132Y-22547458D01*
X16221016Y-22608174D01*
X16127396Y-22667264D01*
X16032894Y-22716678D01*
X15970458Y-22742264D01*
X15863602Y-22768686D01*
X15739679Y-22782984D01*
X15612443Y-22784491D01*
X15495648Y-22772538D01*
X15466903Y-22766737D01*
X15328564Y-22719738D01*
X15194350Y-22645579D01*
X15072049Y-22549781D01*
X14969447Y-22437859D01*
X14936273Y-22390752D01*
X14882285Y-22289693D01*
X14833938Y-22165601D01*
X14794337Y-22028222D01*
X14766588Y-21887307D01*
X14760125Y-21837830D01*
X14751742Y-21694129D01*
X14754907Y-21528719D01*
X14768617Y-21350279D01*
X14791870Y-21167492D01*
X14823666Y-20989037D01*
X14863001Y-20823598D01*
X14886235Y-20745178D01*
X14950953Y-20565330D01*
X15030841Y-20378270D01*
X15120622Y-20195046D01*
X15215022Y-20026705D01*
X15272478Y-19936258D01*
X15396027Y-19764290D01*
X15517650Y-19620772D01*
X15641392Y-19501820D01*
X15771298Y-19403552D01*
X15911416Y-19322084D01*
X15913411Y-19321073D01*
X15999044Y-19284984D01*
X16101677Y-19252565D01*
X16208716Y-19226982D01*
X16307568Y-19211404D01*
X16362373Y-19208141D01*
X16434206Y-19214201D01*
G36*
X6685209Y-19214201D02*
X6774492Y-19230481D01*
X6868612Y-19253885D01*
X6954956Y-19281318D01*
X7015401Y-19306797D01*
X7077854Y-19349961D01*
X7140303Y-19411661D01*
X7193055Y-19480845D01*
X7226416Y-19546461D01*
X7226898Y-19547901D01*
X7245514Y-19629576D01*
X7256043Y-19729409D01*
X7258182Y-19834714D01*
X7251634Y-19932804D01*
X7237714Y-20005650D01*
X7182307Y-20152982D01*
X7109283Y-20276661D01*
X7020263Y-20374510D01*
X6916865Y-20444355D01*
X6907541Y-20448895D01*
X6816897Y-20482140D01*
X6741791Y-20487968D01*
X6679651Y-20466404D01*
X6659311Y-20451386D01*
X6625628Y-20411538D01*
X6614271Y-20362094D01*
X6614006Y-20349751D01*
X6614571Y-20322518D01*
X6619085Y-20300879D01*
X6631782Y-20280064D01*
X6656892Y-20255301D01*
X6698648Y-20221821D01*
X6761282Y-20174851D01*
X6784281Y-20157784D01*
X6865995Y-20077857D01*
X6920261Y-19980096D01*
X6946652Y-19865398D01*
X6949323Y-19810323D01*
X6941052Y-19710872D01*
X6914500Y-19635582D01*
X6866882Y-19581761D01*
X6795413Y-19546717D01*
X6697308Y-19527757D01*
X6653463Y-19524265D01*
X6532980Y-19529374D01*
X6411026Y-19559617D01*
X6282088Y-19616630D01*
X6216192Y-19653928D01*
X6151201Y-19700685D01*
X6074691Y-19767763D01*
X5993448Y-19848173D01*
X5914259Y-19934924D01*
X5843912Y-20021026D01*
X5799966Y-20082599D01*
X5674398Y-20296359D01*
X5562176Y-20532910D01*
X5466799Y-20783669D01*
X5391767Y-21040054D01*
X5368770Y-21139741D01*
X5350135Y-21250768D01*
X5337031Y-21377593D01*
X5329538Y-21512384D01*
X5327738Y-21647307D01*
X5331711Y-21774530D01*
X5341539Y-21886219D01*
X5357301Y-21974541D01*
X5360052Y-21984831D01*
X5410863Y-22127636D01*
X5476269Y-22243451D01*
X5559213Y-22336028D01*
X5662636Y-22409125D01*
X5712695Y-22434829D01*
X5773794Y-22461156D01*
X5823660Y-22474781D01*
X5877975Y-22478668D01*
X5934684Y-22476783D01*
X5996133Y-22470751D01*
X6054815Y-22457947D01*
X6116833Y-22435866D01*
X6188292Y-22402001D01*
X6275297Y-22353846D01*
X6366742Y-22299375D01*
X6424083Y-22267361D01*
X6475102Y-22243820D01*
X6509960Y-22233210D01*
X6513185Y-22233009D01*
X6558722Y-22245892D01*
X6605343Y-22277592D01*
X6639093Y-22317688D01*
X6645237Y-22331633D01*
X6644425Y-22369252D01*
X6628450Y-22421751D01*
X6602190Y-22477944D01*
X6570523Y-22526644D01*
X6551136Y-22547458D01*
X6472019Y-22608174D01*
X6378399Y-22667264D01*
X6283897Y-22716678D01*
X6221462Y-22742264D01*
X6114605Y-22768686D01*
X5990682Y-22782984D01*
X5863446Y-22784491D01*
X5746651Y-22772538D01*
X5717906Y-22766737D01*
X5579567Y-22719738D01*
X5445353Y-22645579D01*
X5323052Y-22549781D01*
X5220450Y-22437859D01*
X5187276Y-22390752D01*
X5133288Y-22289693D01*
X5084941Y-22165601D01*
X5045340Y-22028222D01*
X5017591Y-21887307D01*
X5011128Y-21837830D01*
X5002745Y-21694129D01*
X5005910Y-21528719D01*
X5019620Y-21350279D01*
X5042874Y-21167492D01*
X5074669Y-20989037D01*
X5114004Y-20823598D01*
X5137239Y-20745178D01*
X5201957Y-20565330D01*
X5281844Y-20378270D01*
X5371625Y-20195046D01*
X5466025Y-20026705D01*
X5523481Y-19936258D01*
X5647031Y-19764290D01*
X5768653Y-19620772D01*
X5892395Y-19501820D01*
X6022301Y-19403552D01*
X6162419Y-19322084D01*
X6164414Y-19321073D01*
X6250048Y-19284984D01*
X6352680Y-19252565D01*
X6459719Y-19226982D01*
X6558571Y-19211404D01*
X6613376Y-19208141D01*
X6685209Y-19214201D01*
X6685209Y-19214201D01*
G37*
X6685209Y-19214201D02*
X6774492Y-19230481D01*
X6868612Y-19253885D01*
X6954956Y-19281318D01*
X7015401Y-19306797D01*
X7077854Y-19349961D01*
X7140303Y-19411661D01*
X7193055Y-19480845D01*
X7226416Y-19546461D01*
X7226898Y-19547901D01*
X7245514Y-19629576D01*
X7256043Y-19729409D01*
X7258182Y-19834714D01*
X7251634Y-19932804D01*
X7237714Y-20005650D01*
X7182307Y-20152982D01*
X7109283Y-20276661D01*
X7020263Y-20374510D01*
X6916865Y-20444355D01*
X6907541Y-20448895D01*
X6816897Y-20482140D01*
X6741791Y-20487968D01*
X6679651Y-20466404D01*
X6659311Y-20451386D01*
X6625628Y-20411538D01*
X6614271Y-20362094D01*
X6614006Y-20349751D01*
X6614571Y-20322518D01*
X6619085Y-20300879D01*
X6631782Y-20280064D01*
X6656892Y-20255301D01*
X6698648Y-20221821D01*
X6761282Y-20174851D01*
X6784281Y-20157784D01*
X6865995Y-20077857D01*
X6920261Y-19980096D01*
X6946652Y-19865398D01*
X6949323Y-19810323D01*
X6941052Y-19710872D01*
X6914500Y-19635582D01*
X6866882Y-19581761D01*
X6795413Y-19546717D01*
X6697308Y-19527757D01*
X6653463Y-19524265D01*
X6532980Y-19529374D01*
X6411026Y-19559617D01*
X6282088Y-19616630D01*
X6216192Y-19653928D01*
X6151201Y-19700685D01*
X6074691Y-19767763D01*
X5993448Y-19848173D01*
X5914259Y-19934924D01*
X5843912Y-20021026D01*
X5799966Y-20082599D01*
X5674398Y-20296359D01*
X5562176Y-20532910D01*
X5466799Y-20783669D01*
X5391767Y-21040054D01*
X5368770Y-21139741D01*
X5350135Y-21250768D01*
X5337031Y-21377593D01*
X5329538Y-21512384D01*
X5327738Y-21647307D01*
X5331711Y-21774530D01*
X5341539Y-21886219D01*
X5357301Y-21974541D01*
X5360052Y-21984831D01*
X5410863Y-22127636D01*
X5476269Y-22243451D01*
X5559213Y-22336028D01*
X5662636Y-22409125D01*
X5712695Y-22434829D01*
X5773794Y-22461156D01*
X5823660Y-22474781D01*
X5877975Y-22478668D01*
X5934684Y-22476783D01*
X5996133Y-22470751D01*
X6054815Y-22457947D01*
X6116833Y-22435866D01*
X6188292Y-22402001D01*
X6275297Y-22353846D01*
X6366742Y-22299375D01*
X6424083Y-22267361D01*
X6475102Y-22243820D01*
X6509960Y-22233210D01*
X6513185Y-22233009D01*
X6558722Y-22245892D01*
X6605343Y-22277592D01*
X6639093Y-22317688D01*
X6645237Y-22331633D01*
X6644425Y-22369252D01*
X6628450Y-22421751D01*
X6602190Y-22477944D01*
X6570523Y-22526644D01*
X6551136Y-22547458D01*
X6472019Y-22608174D01*
X6378399Y-22667264D01*
X6283897Y-22716678D01*
X6221462Y-22742264D01*
X6114605Y-22768686D01*
X5990682Y-22782984D01*
X5863446Y-22784491D01*
X5746651Y-22772538D01*
X5717906Y-22766737D01*
X5579567Y-22719738D01*
X5445353Y-22645579D01*
X5323052Y-22549781D01*
X5220450Y-22437859D01*
X5187276Y-22390752D01*
X5133288Y-22289693D01*
X5084941Y-22165601D01*
X5045340Y-22028222D01*
X5017591Y-21887307D01*
X5011128Y-21837830D01*
X5002745Y-21694129D01*
X5005910Y-21528719D01*
X5019620Y-21350279D01*
X5042874Y-21167492D01*
X5074669Y-20989037D01*
X5114004Y-20823598D01*
X5137239Y-20745178D01*
X5201957Y-20565330D01*
X5281844Y-20378270D01*
X5371625Y-20195046D01*
X5466025Y-20026705D01*
X5523481Y-19936258D01*
X5647031Y-19764290D01*
X5768653Y-19620772D01*
X5892395Y-19501820D01*
X6022301Y-19403552D01*
X6162419Y-19322084D01*
X6164414Y-19321073D01*
X6250048Y-19284984D01*
X6352680Y-19252565D01*
X6459719Y-19226982D01*
X6558571Y-19211404D01*
X6613376Y-19208141D01*
X6685209Y-19214201D01*
D13*
X31100000Y-8032000D02*
X31100000Y-8732000D01*
X29900000Y-8732000D02*
X29900000Y-8032000D01*
X17150000Y-13100000D02*
X17150000Y-12400000D01*
X18350000Y-12400000D02*
X18350000Y-13100000D01*
X19850000Y-12400000D02*
X19850000Y-13100000D01*
X18650000Y-13100000D02*
X18650000Y-12400000D01*
X31200000Y-16050000D02*
X32200000Y-16050000D01*
X32200000Y-14350000D02*
X31200000Y-14350000D01*
X25650000Y-2400000D02*
X24950000Y-2400000D01*
X24950000Y-1200000D02*
X25650000Y-1200000D01*
X25400000Y-4850000D02*
X25400000Y-4150000D01*
X26600000Y-4150000D02*
X26600000Y-4850000D01*
X25650000Y-14400000D02*
X26350000Y-14400000D01*
X26350000Y-15600000D02*
X25650000Y-15600000D01*
X20850000Y-17500000D02*
X20850000Y-16500000D01*
X19150000Y-16500000D02*
X19150000Y-17500000D01*
X17150000Y-16500000D02*
X17150000Y-17500000D01*
X18850000Y-17500000D02*
X18850000Y-16500000D01*
X27930000Y-15800000D02*
X27930000Y-13700000D01*
X29070000Y-15800000D02*
X29070000Y-13700000D01*
X27930000Y-15800000D02*
X29070000Y-15800000D01*
X20420000Y-15260000D02*
X20420000Y-13800000D01*
X23580000Y-15260000D02*
X23580000Y-13100000D01*
X23580000Y-15260000D02*
X22650000Y-15260000D01*
X20420000Y-15260000D02*
X21350000Y-15260000D01*
X23820000Y-4200000D02*
X23820000Y-3200000D01*
X25180000Y-3200000D02*
X25180000Y-4200000D01*
X35320000Y-9400000D02*
X35320000Y-8400000D01*
X36680000Y-8400000D02*
X36680000Y-9400000D01*
X35500000Y-20320000D02*
X36500000Y-20320000D01*
X36500000Y-21680000D02*
X35500000Y-21680000D01*
X22000000Y-17820000D02*
X23000000Y-17820000D01*
X23000000Y-19180000D02*
X22000000Y-19180000D01*
X23000000Y-17680000D02*
X22000000Y-17680000D01*
X22000000Y-16320000D02*
X23000000Y-16320000D01*
X34500000Y-1320000D02*
X33500000Y-1320000D01*
X34500000Y-4680000D02*
X33500000Y-4680000D01*
X26900000Y-15890000D02*
X24450000Y-15890000D01*
X25100000Y-19110000D02*
X26900000Y-19110000D01*
X31390000Y-8000000D02*
X31390000Y-10450000D01*
X34610000Y-9800000D02*
X34610000Y-8000000D01*
D12*
X32437500Y-16375000D02*
X35612500Y-16375000D01*
X33162500Y-19625000D02*
X35612500Y-19625000D01*
D13*
X2100000Y-14550000D02*
X2100000Y-15250000D01*
X900000Y-15250000D02*
X900000Y-14550000D01*
D12*
X44500000Y-13000000D02*
X44500000Y-13000000D01*
X49500000Y-13000000D02*
X44500000Y-13000000D01*
X49500000Y-19000000D02*
X49500000Y-13000000D01*
X44500000Y-19000000D02*
X49500000Y-19000000D01*
X37500000Y-13000000D02*
X42000000Y-13000000D01*
X37500000Y-14000000D02*
X37500000Y-13000000D01*
X39500000Y-14000000D02*
X37500000Y-14000000D01*
X40000000Y-14500000D02*
X39500000Y-14000000D01*
X40000000Y-17500000D02*
X40000000Y-14500000D01*
X39500000Y-18000000D02*
X40000000Y-17500000D01*
X37500000Y-18000000D02*
X39500000Y-18000000D01*
X37500000Y-19000000D02*
X37500000Y-18000000D01*
X42000000Y-19000000D02*
X37500000Y-19000000D01*
D13*
X3680000Y-14400000D02*
X3680000Y-15400000D01*
X2320000Y-15400000D02*
X2320000Y-14400000D01*
D12*
X16500000Y-7600000D02*
X16500000Y-6500000D01*
X16500000Y-16400000D02*
X16500000Y-7600000D01*
X5500000Y-16400000D02*
X5500000Y-7600000D01*
X44500000Y-5000000D02*
X44500000Y-5000000D01*
X49500000Y-5000000D02*
X44500000Y-5000000D01*
X49500000Y-11000000D02*
X49500000Y-5000000D01*
X44500000Y-11000000D02*
X49500000Y-11000000D01*
X37500000Y-5000000D02*
X42000000Y-5000000D01*
X37500000Y-6000000D02*
X37500000Y-5000000D01*
X39500000Y-6000000D02*
X37500000Y-6000000D01*
X40000000Y-6500000D02*
X39500000Y-6000000D01*
X40000000Y-9500000D02*
X40000000Y-6500000D01*
X39500000Y-10000000D02*
X40000000Y-9500000D01*
X37500000Y-10000000D02*
X39500000Y-10000000D01*
X37500000Y-11000000D02*
X37500000Y-10000000D01*
X42000000Y-11000000D02*
X37500000Y-11000000D01*
D13*
X22040000Y-12160000D02*
X22040000Y-10040000D01*
X29160000Y-12160000D02*
X29160000Y-10040000D01*
X29160000Y-10040000D02*
X22040000Y-10040000D01*
X29160000Y-12160000D02*
X22040000Y-12160000D01*
X31095000Y-13770000D02*
X31095000Y-13135000D01*
X31730000Y-13770000D02*
X31095000Y-13770000D01*
X25300000Y-12220000D02*
X26500000Y-12220000D01*
X26500000Y-13980000D02*
X25300000Y-13980000D01*
X2700000Y-11980000D02*
X1700000Y-11980000D01*
X1700000Y-10620000D02*
X2700000Y-10620000D01*
X12950000Y-1000000D02*
X12950000Y-1100000D01*
X12950000Y-4500000D02*
X12950000Y-4400000D01*
X8050000Y-4400000D02*
X8050000Y-4500000D01*
X8050000Y-1000000D02*
X8050000Y-1100000D01*
X8050000Y-2400000D02*
X8050000Y-3100000D01*
X12950000Y-2400000D02*
X12950000Y-3100000D01*
X12950000Y-1000000D02*
X8050000Y-1000000D01*
X8050000Y-4500000D02*
X12950000Y-4500000D01*
X17300000Y-11300000D02*
X19700000Y-11300000D01*
X17300000Y-9700000D02*
X17300000Y-11300000D01*
X19700000Y-9700000D02*
X17300000Y-9700000D01*
D15*
X6000000Y-6000000D02*
X6000000Y-6000000D01*
X6000000Y-6000000D02*
X6000000Y-6000000D01*
X6000000Y-6000000D01*
X6000000Y-6000000D02*
X6000000Y-6000000D01*
X6000000Y-6000000D02*
X6000000Y-6000000D01*
X6000000Y-6000000D01*
X6000000Y-6000000D01*
X6000000Y-6000000D02*
X6000000Y-6000000D01*
X6000000Y-6000000D02*
X6000000Y-6000000D01*
X6000000Y-6000000D01*
X6000000Y-6000000D01*
X6000000Y-6000000D01*
X30000000Y-2000000D02*
X30000000Y-2000000D01*
X30000000Y-2000000D01*
X30000000Y-2000000D01*
X30000000Y-2000000D01*
X30000000Y-2000000D01*
X30000000Y-2000000D01*
X30000000Y-2000000D01*
X30000000Y-2000000D01*
X30000000Y-2000000D01*
X30000000Y-2000000D02*
X30000000Y-2000000D01*
X30000000Y-2000000D01*
X30000000Y-2000000D01*
X30000000Y-2000000D01*
X30000000Y-2000000D01*
X30000000Y-2000000D01*
X30000000Y-2000000D01*
X30000000Y-2000000D01*
X30000000Y-2000000D01*
X30000000Y-2000000D01*
X30000000Y-2000000D01*
X30000000Y-2000000D01*
X30000000Y-2000000D01*
X30000000Y-2000000D01*
X30000000Y-2000000D01*
X21750000Y-3625000D02*
X21750000Y-3625000D01*
X21750000Y-3625000D01*
X21750000Y-3625000D01*
X21750000Y-3625000D01*
X21750000Y-3625000D01*
X21750000Y-3625000D01*
X21750000Y-3625000D01*
X21750000Y-3625000D01*
X21750000Y-3625000D01*
X21750000Y-3625000D02*
X21750000Y-3625000D01*
X21750000Y-3625000D01*
X21750000Y-3625000D01*
X21750000Y-3625000D01*
X21750000Y-3625000D01*
X21750000Y-3625000D01*
X21750000Y-3625000D01*
X21750000Y-3625000D01*
X21750000Y-3625000D01*
X21750000Y-3625000D01*
X27500000Y-18000000D02*
X27500000Y-18000000D01*
X27500000Y-18000000D01*
X27500000Y-18000000D01*
X27500000Y-18000000D01*
X27500000Y-18000000D01*
X27500000Y-18000000D01*
X27500000Y-18000000D01*
X27500000Y-18000000D01*
X27500000Y-18000000D01*
X27500000Y-18000000D01*
X27500000Y-18000000D01*
X27500000Y-18000000D01*
X27500000Y-18000000D02*
X27500000Y-18000000D01*
X27500000Y-18000000D02*
X27500000Y-18000000D01*
X27500000Y-18000000D01*
X27500000Y-18000000D01*
X27500000Y-18000000D01*
X29000000Y-8382000D02*
X29000000Y-8382000D01*
X29000000Y-8382000D01*
X29000000Y-8382000D01*
X29000000Y-8382000D01*
X29000000Y-8382000D01*
X29000000Y-8382000D01*
X29000000Y-8382000D01*
X29000000Y-8382000D01*
X29000000Y-8382000D01*
X29000000Y-8382000D01*
X29000000Y-8382000D01*
X29000000Y-8382000D01*
X29000000Y-8382000D01*
X29000000Y-8382000D01*
X29000000Y-8382000D01*
X29000000Y-8382000D02*
X29000000Y-8382000D01*
X29000000Y-8382000D02*
X29000000Y-8382000D01*
X29000000Y-8382000D01*
X29000000Y-8382000D01*
X29000000Y-8382000D01*
X16250000Y-12750000D02*
X16250000Y-12750000D01*
X16250000Y-12750000D01*
X16250000Y-12750000D01*
X16250000Y-12750000D01*
X16250000Y-12750000D01*
X16250000Y-12750000D01*
X16250000Y-12750000D01*
X16250000Y-12750000D01*
X16250000Y-12750000D01*
X16250000Y-12750000D01*
X16250000Y-12750000D01*
X16250000Y-12750000D01*
X16250000Y-12750000D01*
X16250000Y-12750000D01*
X16250000Y-12750000D01*
X16250000Y-12750000D02*
X16250000Y-12750000D01*
X16250000Y-12750000D01*
X16250000Y-12750000D01*
X16250000Y-12750000D01*
X16250000Y-12750000D01*
X16250000Y-12750000D01*
X16250000Y-12750000D01*
X16250000Y-12750000D01*
X16250000Y-12750000D01*
X16250000Y-12750000D01*
X17750000Y-12750000D02*
X17750000Y-12750000D01*
X17750000Y-12750000D01*
X17750000Y-12750000D01*
X17750000Y-12750000D01*
X17750000Y-12750000D01*
X17750000Y-12750000D01*
X17750000Y-12750000D01*
X17750000Y-12750000D01*
X17750000Y-12750000D01*
X17750000Y-12750000D01*
X17750000Y-12750000D01*
X17750000Y-12750000D01*
X17750000Y-12750000D01*
X17750000Y-12750000D01*
X17750000Y-12750000D01*
X17750000Y-12750000D02*
X17750000Y-12750000D01*
X17750000Y-12750000D01*
X17750000Y-12750000D01*
X17750000Y-12750000D01*
X17750000Y-12750000D01*
X17750000Y-12750000D01*
X17750000Y-12750000D01*
X17750000Y-12750000D01*
X17750000Y-12750000D01*
X17750000Y-12750000D01*
X17750000Y-12750000D01*
X17750000Y-12750000D01*
X17750000Y-12750000D01*
X31700000Y-13700000D02*
X31700000Y-13700000D01*
X31700000Y-13700000D01*
X31700000Y-13700000D01*
X31700000Y-13700000D01*
X31700000Y-13700000D01*
X31700000Y-13700000D01*
X31700000Y-13700000D01*
X31700000Y-13700000D01*
X31700000Y-13700000D01*
X31700000Y-13700000D01*
X31700000Y-13700000D01*
X31700000Y-13700000D01*
X31700000Y-13700000D01*
X31700000Y-13700000D01*
X31700000Y-13700000D01*
X31700000Y-13700000D02*
X31700000Y-13700000D01*
X31700000Y-13700000D02*
X31700000Y-13700000D01*
X31700000Y-13700000D01*
X25300000Y-3300000D02*
X25300000Y-3300000D01*
X25300000Y-3300000D01*
X25300000Y-3300000D01*
X25300000Y-3300000D01*
X25300000Y-3300000D01*
X25300000Y-3300000D01*
X25300000Y-3300000D01*
X25300000Y-3300000D01*
X25300000Y-3300000D01*
X25300000Y-3300000D01*
X25300000Y-3300000D01*
X25300000Y-3300000D01*
X25300000Y-3300000D01*
X25300000Y-3300000D01*
X25300000Y-3300000D01*
X25300000Y-3300000D02*
X25300000Y-3300000D01*
X25300000Y-3300000D01*
X25300000Y-3300000D01*
X25300000Y-3300000D01*
X25300000Y-3300000D01*
X25300000Y-3300000D01*
X25300000Y-3300000D01*
X25300000Y-3300000D01*
X25300000Y-3300000D01*
X25300000Y-3300000D01*
X25300000Y-3300000D01*
X25300000Y-3300000D01*
X25300000Y-3300000D01*
X25300000Y-3300000D01*
X25300000Y-3300000D01*
X24500000Y-4500000D02*
X24500000Y-4500000D01*
X24500000Y-4500000D01*
X24500000Y-4500000D01*
X24500000Y-4500000D01*
X24500000Y-4500000D01*
X24500000Y-4500000D01*
X24500000Y-4500000D01*
X24500000Y-4500000D01*
X24500000Y-4500000D01*
X24500000Y-4500000D01*
X24500000Y-4500000D01*
X24500000Y-4500000D01*
X24500000Y-4500000D01*
X24500000Y-4500000D01*
X24500000Y-4500000D01*
X24500000Y-4500000D02*
X24500000Y-4500000D01*
X24500000Y-4500000D01*
X24500000Y-4500000D01*
X24500000Y-4500000D01*
X24500000Y-4500000D01*
X24500000Y-4500000D01*
X24500000Y-4500000D01*
X24500000Y-4500000D01*
X24500000Y-4500000D01*
X24500000Y-4500000D01*
X24500000Y-4500000D01*
X24500000Y-4500000D01*
X24500000Y-4500000D01*
X24500000Y-4500000D01*
X24500000Y-4500000D01*
X24500000Y-4500000D01*
X24500000Y-4500000D01*
X24500000Y-4500000D01*
X24500000Y-4500000D01*
X24500000Y-4500000D01*
X24500000Y-4500000D01*
X26000000Y-13500000D02*
X26000000Y-13500000D01*
X26000000Y-13500000D01*
X26000000Y-13500000D01*
X26000000Y-13500000D01*
X26000000Y-13500000D01*
X26000000Y-13500000D01*
X26000000Y-13500000D01*
X26000000Y-13500000D01*
X26000000Y-13500000D01*
X26000000Y-13500000D01*
X26000000Y-13500000D01*
X26000000Y-13500000D01*
X26000000Y-13500000D01*
X26000000Y-13500000D01*
X26000000Y-13500000D01*
X26000000Y-13500000D02*
X26000000Y-13500000D01*
X26000000Y-13500000D01*
X21500000Y-17000000D02*
X21500000Y-17000000D01*
X21500000Y-17000000D01*
X21500000Y-17000000D01*
X21500000Y-17000000D01*
X21500000Y-17000000D01*
X21500000Y-17000000D01*
X21500000Y-17000000D01*
X21500000Y-17000000D01*
X21500000Y-17000000D01*
X21500000Y-17000000D01*
X21500000Y-17000000D01*
X21500000Y-17000000D01*
X21500000Y-17000000D01*
X21500000Y-17000000D01*
X21500000Y-17000000D01*
X21500000Y-17000000D02*
X21500000Y-17000000D01*
X21500000Y-17000000D01*
X21500000Y-17000000D01*
X21500000Y-17000000D01*
X21500000Y-17000000D01*
X21500000Y-17000000D01*
X21500000Y-17000000D01*
X21500000Y-17000000D01*
X21500000Y-17000000D01*
X21500000Y-17000000D01*
X21500000Y-17000000D01*
X21500000Y-17000000D01*
X21500000Y-17000000D01*
X21500000Y-17000000D01*
X21500000Y-17000000D01*
X21500000Y-17000000D01*
X21500000Y-17000000D01*
X21500000Y-17000000D01*
X21500000Y-17000000D01*
X21500000Y-17000000D01*
X21500000Y-17000000D01*
X21500000Y-17000000D01*
X21500000Y-17000000D01*
X21500000Y-17000000D01*
X21500000Y-17000000D01*
X21500000Y-17000000D01*
X21500000Y-17000000D01*
X21500000Y-17000000D01*
X21500000Y-17000000D01*
X21500000Y-17000000D01*
X21500000Y-17000000D01*
X19500000Y-17000000D02*
X19500000Y-17000000D01*
X19500000Y-17000000D01*
X19500000Y-17000000D01*
X19500000Y-17000000D01*
X19500000Y-17000000D01*
X19500000Y-17000000D01*
X19500000Y-17000000D01*
X19500000Y-17000000D01*
X19500000Y-17000000D01*
X19500000Y-17000000D01*
X19500000Y-17000000D01*
X19500000Y-17000000D01*
X19500000Y-17000000D01*
X19500000Y-17000000D01*
X19500000Y-17000000D01*
X19500000Y-17000000D02*
X19500000Y-17000000D01*
X19500000Y-17000000D01*
X19500000Y-17000000D01*
X19500000Y-17000000D01*
X19500000Y-17000000D01*
X19500000Y-17000000D01*
X19500000Y-17000000D01*
X19500000Y-17000000D01*
X19500000Y-17000000D01*
X19500000Y-17000000D01*
X19500000Y-17000000D01*
X19500000Y-17000000D01*
X19500000Y-17000000D01*
X19500000Y-17000000D01*
X19500000Y-17000000D01*
X19500000Y-17000000D01*
X19500000Y-17000000D01*
X19500000Y-17000000D01*
X19500000Y-17000000D01*
X19500000Y-17000000D01*
X19500000Y-17000000D01*
X27100000Y-14500000D02*
X27100000Y-14500000D01*
X27100000Y-14500000D01*
X27100000Y-14500000D01*
X27100000Y-14500000D01*
X27100000Y-14500000D01*
X27100000Y-14500000D01*
X27100000Y-14500000D01*
X27100000Y-14500000D01*
X27100000Y-14500000D01*
X27100000Y-14500000D01*
X27100000Y-14500000D01*
X27100000Y-14500000D01*
X27100000Y-14500000D02*
X27100000Y-14500000D01*
X27100000Y-14500000D01*
X27100000Y-14500000D01*
X27100000Y-14500000D01*
X27100000Y-14500000D01*
X27100000Y-14500000D01*
X27100000Y-14500000D01*
X27100000Y-14500000D01*
X27100000Y-14500000D01*
X27100000Y-14500000D01*
X24500000Y-14500000D02*
X24500000Y-14500000D01*
X24500000Y-14500000D01*
X24500000Y-14500000D01*
X24500000Y-14500000D01*
X24500000Y-14500000D01*
X24500000Y-14500000D01*
X24500000Y-14500000D01*
X24500000Y-14500000D01*
X24500000Y-14500000D01*
X24500000Y-14500000D01*
X24500000Y-14500000D01*
X24500000Y-14500000D01*
X24500000Y-14500000D02*
X24500000Y-14500000D01*
X24500000Y-14500000D01*
X24500000Y-14500000D01*
X24500000Y-14500000D01*
X24500000Y-14500000D01*
X24500000Y-14500000D01*
X24500000Y-14500000D01*
X24500000Y-14500000D01*
X24500000Y-14500000D01*
X24500000Y-14500000D01*
X24500000Y-14500000D01*
X24500000Y-14500000D01*
X24500000Y-14500000D01*
X25950000Y-3700000D02*
X25950000Y-3700000D01*
X25950000Y-3700000D02*
X25950000Y-3700000D01*
X25950000Y-3700000D01*
X25950000Y-3700000D01*
X25950000Y-3700000D01*
X25950000Y-3700000D01*
X25950000Y-3700000D01*
X25950000Y-3700000D01*
X25950000Y-3700000D01*
X25950000Y-3700000D01*
X25950000Y-3700000D01*
X25950000Y-3700000D02*
X25950000Y-3700000D01*
X25950000Y-3700000D02*
X25950000Y-3700000D01*
X25950000Y-3700000D01*
X25950000Y-3700000D01*
X25950000Y-3700000D01*
X34550000Y-8900000D02*
X34550000Y-8900000D01*
X34550000Y-8900000D02*
X34550000Y-8900000D01*
X34550000Y-8900000D01*
X34550000Y-8900000D01*
X34550000Y-8900000D01*
X34550000Y-8900000D01*
X34550000Y-8900000D01*
X34550000Y-8900000D01*
X34550000Y-8900000D01*
X34550000Y-8900000D01*
X34550000Y-8900000D01*
X34550000Y-8900000D02*
X34550000Y-8900000D01*
X34550000Y-8900000D01*
X34550000Y-8900000D01*
X34550000Y-8900000D01*
X34550000Y-8900000D01*
X34550000Y-8900000D01*
X34550000Y-8900000D01*
X34550000Y-8900000D01*
X34550000Y-8900000D01*
X34550000Y-8900000D01*
X36000000Y-19550000D02*
X36000000Y-19550000D01*
X36000000Y-19550000D02*
X36000000Y-19550000D01*
X36000000Y-19550000D01*
X36000000Y-19550000D01*
X36000000Y-19550000D01*
X36000000Y-19550000D01*
X36000000Y-19550000D01*
X36000000Y-19550000D01*
X36000000Y-19550000D01*
X36000000Y-19550000D01*
X36000000Y-19550000D01*
X36000000Y-19550000D02*
X36000000Y-19550000D01*
X36000000Y-19550000D01*
X36000000Y-19550000D01*
X36000000Y-19550000D01*
X36000000Y-19550000D01*
X36000000Y-19550000D01*
X36000000Y-19550000D01*
X36000000Y-19550000D01*
X36000000Y-19550000D01*
X36000000Y-19550000D01*
X36000000Y-19550000D01*
X36000000Y-19550000D01*
X36000000Y-19550000D01*
X22500000Y-17050000D02*
X22500000Y-17050000D01*
X22500000Y-17050000D02*
X22500000Y-17050000D01*
X22500000Y-17050000D01*
X22500000Y-17050000D01*
X22500000Y-17050000D01*
X22500000Y-17050000D01*
X22500000Y-17050000D01*
X22500000Y-17050000D01*
X22500000Y-17050000D01*
X22500000Y-17050000D01*
X22500000Y-17050000D01*
X22500000Y-17050000D02*
X22500000Y-17050000D01*
X22500000Y-17050000D02*
X22500000Y-17050000D01*
X22500000Y-17050000D01*
X22500000Y-15550000D02*
X22500000Y-15550000D01*
X22500000Y-15550000D02*
X22500000Y-15550000D01*
X22500000Y-15550000D01*
X22500000Y-15550000D01*
X22500000Y-15550000D01*
X22500000Y-15550000D01*
X22500000Y-15550000D01*
X22500000Y-15550000D01*
X22500000Y-15550000D01*
X22500000Y-15550000D01*
X22500000Y-15550000D01*
X22500000Y-15550000D02*
X22500000Y-15550000D01*
X22500000Y-15550000D01*
X22500000Y-15550000D01*
X22500000Y-15550000D01*
X22500000Y-15550000D01*
X22500000Y-15550000D01*
X22500000Y-15550000D01*
X22500000Y-15550000D01*
X22500000Y-15550000D01*
X22500000Y-15550000D01*
X22500000Y-15550000D01*
X22500000Y-15550000D01*
X22500000Y-15550000D01*
X22500000Y-15550000D01*
X22500000Y-15550000D01*
X34500000Y-680000D02*
X34500000Y-680000D01*
X34500000Y-680000D02*
X34500000Y-680000D01*
X34500000Y-680000D01*
X34500000Y-680000D01*
X34500000Y-680000D01*
X34500000Y-680000D01*
X34500000Y-680000D01*
X34500000Y-680000D01*
X34500000Y-680000D01*
X34500000Y-680000D01*
X34500000Y-680000D01*
X34500000Y-680000D02*
X34500000Y-680000D01*
X34500000Y-680000D01*
X34500000Y-680000D01*
X34500000Y-680000D02*
X34500000Y-680000D01*
X34500000Y-680000D02*
X34500000Y-680000D01*
X34500000Y-680000D01*
X34500000Y-680000D01*
X34500000Y-680000D01*
X26000000Y-14600000D02*
X26000000Y-14600000D01*
X26000000Y-14600000D01*
X26000000Y-14600000D01*
X26000000Y-14600000D01*
X26000000Y-14600000D01*
X26000000Y-14600000D01*
X26000000Y-14600000D01*
X26000000Y-14600000D01*
X26000000Y-14600000D01*
X26000000Y-14600000D02*
X26000000Y-14600000D01*
X26000000Y-14600000D01*
X26000000Y-14600000D01*
X26000000Y-14600000D01*
X26000000Y-14600000D01*
X26000000Y-14600000D01*
X26000000Y-14600000D01*
X26000000Y-14600000D01*
X26000000Y-14600000D01*
X26000000Y-14600000D01*
X26000000Y-14600000D01*
X26000000Y-14600000D01*
X26000000Y-14600000D01*
X30100000Y-8900000D02*
X30100000Y-8900000D01*
X30100000Y-8900000D01*
X30100000Y-8900000D01*
X30100000Y-8900000D01*
X30100000Y-8900000D01*
X30100000Y-8900000D01*
X30100000Y-8900000D01*
X30100000Y-8900000D01*
X30100000Y-8900000D01*
X30100000Y-8900000D02*
X30100000Y-8900000D01*
X30100000Y-8900000D02*
X30100000Y-8900000D01*
X30100000Y-8900000D01*
X30100000Y-8900000D01*
X30100000Y-8900000D01*
X34387500Y-15450000D02*
X34387500Y-15450000D01*
X34387500Y-15450000D01*
X34387500Y-15450000D01*
X34387500Y-15450000D01*
X34387500Y-15450000D01*
X34387500Y-15450000D02*
X34387500Y-15450000D01*
X34387500Y-15450000D01*
X34387500Y-15450000D01*
X34387500Y-15450000D01*
X34387500Y-15450000D01*
X34387500Y-15450000D01*
X34387500Y-15450000D01*
X34387500Y-15450000D01*
X34387500Y-15450000D01*
X34387500Y-15450000D01*
X34387500Y-15450000D01*
X34387500Y-15450000D01*
X34387500Y-15450000D01*
X34387500Y-15450000D01*
X34387500Y-15450000D01*
X34387500Y-15450000D01*
X34387500Y-15450000D02*
X34387500Y-15450000D01*
X34387500Y-15450000D02*
X34387500Y-15450000D01*
X34387500Y-15450000D01*
X34387500Y-15450000D01*
X34387500Y-15450000D01*
X3000000Y-14900000D02*
X3000000Y-14900000D01*
X3000000Y-14900000D01*
X3000000Y-14900000D01*
X3000000Y-14900000D01*
X3000000Y-14900000D01*
X3000000Y-14900000D01*
X3000000Y-14900000D01*
X3000000Y-14900000D01*
X3000000Y-14900000D01*
X3000000Y-14900000D01*
X3000000Y-14900000D01*
X3000000Y-14900000D01*
X3000000Y-14900000D01*
X3000000Y-14900000D01*
X3000000Y-14900000D01*
X3000000Y-14900000D02*
X3000000Y-14900000D01*
X3000000Y-14900000D02*
X3000000Y-14900000D01*
X3000000Y-14900000D01*
X3000000Y-14900000D01*
X3000000Y-14900000D01*
X3000000Y-14900000D02*
X3000000Y-14900000D01*
X3000000Y-14900000D02*
X3000000Y-14900000D01*
X3000000Y-14900000D01*
X3000000Y-14900000D01*
X3000000Y-14900000D01*
X34500000Y-14000000D02*
X34500000Y-14000000D01*
X34500000Y-14000000D01*
X34500000Y-14000000D01*
X34500000Y-14000000D01*
X34500000Y-14000000D01*
X34500000Y-14000000D02*
X34500000Y-14000000D01*
X34500000Y-14000000D01*
X34500000Y-14000000D01*
X34500000Y-14000000D01*
X34500000Y-14000000D01*
X34500000Y-14000000D01*
X34500000Y-14000000D01*
X34500000Y-14000000D01*
X34500000Y-14000000D01*
X34500000Y-14000000D01*
X4450000Y-14900000D02*
X4450000Y-14900000D01*
X4450000Y-14900000D02*
X4450000Y-14900000D01*
X4450000Y-14900000D01*
X4450000Y-14900000D01*
X4450000Y-14900000D01*
X4450000Y-14900000D01*
X4450000Y-14900000D01*
X4450000Y-14900000D01*
X4450000Y-14900000D01*
X4450000Y-14900000D01*
X4450000Y-14900000D01*
X4450000Y-14900000D02*
X4450000Y-14900000D01*
X4450000Y-14900000D01*
X4450000Y-14900000D01*
X4450000Y-14900000D01*
X4450000Y-14900000D01*
X4450000Y-14900000D01*
X4450000Y-14900000D01*
X4450000Y-14900000D01*
X4450000Y-14900000D01*
X4450000Y-14900000D01*
X4450000Y-14900000D01*
X4450000Y-14900000D01*
X4450000Y-14900000D01*
X4450000Y-14900000D01*
X4450000Y-14900000D01*
X4450000Y-14900000D01*
X4450000Y-14900000D01*
X4450000Y-14900000D01*
X4450000Y-14900000D01*
X4450000Y-14900000D01*
X4450000Y-14900000D01*
X4400000Y-13100000D02*
X4400000Y-13100000D01*
X4400000Y-13100000D01*
X4400000Y-13100000D01*
X4400000Y-13100000D01*
X4400000Y-13100000D01*
X4400000Y-13100000D01*
X4400000Y-13100000D01*
X4400000Y-13100000D01*
X4400000Y-13100000D01*
X4400000Y-13100000D02*
X4400000Y-13100000D01*
X4400000Y-13100000D02*
X4400000Y-13100000D01*
X4400000Y-13100000D01*
X34500000Y-6000000D02*
X34500000Y-6000000D01*
X34500000Y-6000000D01*
X34500000Y-6000000D01*
X34500000Y-6000000D01*
X34500000Y-6000000D01*
X34500000Y-6000000D02*
X34500000Y-6000000D01*
X34500000Y-6000000D01*
X34500000Y-6000000D01*
X34500000Y-6000000D01*
X34500000Y-6000000D01*
X34500000Y-6000000D01*
X34500000Y-6000000D01*
X34500000Y-6000000D01*
X34500000Y-6000000D01*
X34500000Y-6000000D01*
X34500000Y-6000000D01*
X34500000Y-6000000D01*
X34500000Y-6000000D01*
X25600000Y-13410000D02*
X25600000Y-13410000D01*
X25600000Y-13410000D01*
X25600000Y-13410000D01*
X25600000Y-13410000D01*
X25600000Y-13410000D01*
X25600000Y-13410000D01*
X25600000Y-13410000D01*
X25600000Y-13410000D01*
X25600000Y-13410000D01*
X25600000Y-13410000D01*
X25600000Y-13410000D01*
X25600000Y-13410000D01*
X25600000Y-13410000D01*
X25600000Y-13410000D01*
X25600000Y-13410000D01*
X25600000Y-13410000D02*
X25600000Y-13410000D01*
X25600000Y-13410000D02*
X25600000Y-13410000D01*
X25600000Y-13410000D01*
X25600000Y-13410000D01*
X25600000Y-13410000D01*
X25600000Y-13410000D02*
X25600000Y-13410000D01*
X25600000Y-13410000D01*
X25600000Y-13410000D01*
X25600000Y-13410000D01*
X25600000Y-13410000D01*
X25600000Y-13410000D01*
X25600000Y-13410000D01*
X25600000Y-13410000D01*
X25600000Y-13410000D01*
X25600000Y-13410000D01*
X25600000Y-13410000D01*
X25600000Y-13410000D01*
X25600000Y-13410000D01*
X25600000Y-13410000D01*
X25600000Y-13410000D01*
X25600000Y-13410000D01*
X25600000Y-13410000D01*
X25600000Y-13410000D01*
X25600000Y-13410000D01*
X25600000Y-13410000D01*
X33000000Y-15200000D02*
X33000000Y-15200000D01*
X33000000Y-15200000D01*
X33000000Y-15200000D01*
X33000000Y-15200000D01*
X33000000Y-15200000D01*
X33000000Y-15200000D02*
X33000000Y-15200000D01*
X33000000Y-15200000D02*
X33000000Y-15200000D01*
X33000000Y-15200000D01*
X33000000Y-15200000D01*
X33000000Y-15200000D01*
X25900000Y-15200000D02*
X25900000Y-15200000D01*
X25900000Y-15200000D01*
X25900000Y-15200000D02*
X25900000Y-15200000D01*
X25900000Y-15200000D02*
X25900000Y-15200000D01*
X25900000Y-15200000D01*
X25900000Y-15200000D01*
X25900000Y-15200000D01*
X2200000Y-9400000D02*
X2200000Y-9400000D01*
X2200000Y-9400000D01*
X2200000Y-9400000D02*
X2200000Y-9400000D01*
X2200000Y-9400000D01*
X2200000Y-9400000D01*
X2200000Y-9400000D01*
X2200000Y-9400000D01*
X2200000Y-9400000D01*
X2200000Y-9400000D01*
X2200000Y-9400000D01*
X2200000Y-9400000D01*
X2200000Y-9400000D01*
X10500000Y0D02*
X10500000Y0D01*
X10500000Y0D01*
X10500000Y0D01*
X10500000Y0D01*
X10500000Y0D01*
X10500000Y0D01*
X10500000Y0D01*
X10500000Y0D01*
X10500000Y0D01*
X10500000Y0D01*
X10500000Y0D01*
X10500000Y0D01*
X10500000Y0D01*
X10500000Y0D01*
X10500000Y0D01*
X10500000Y0D01*
X10500000Y0D01*
X10500000Y0D01*
X10500000Y0D01*
X10500000Y0D02*
X10500000Y0D01*
X10500000Y0D01*
X10500000Y0D01*
X10500000Y0D01*
X10500000Y0D02*
X10500000Y0D01*
X10500000Y0D02*
X10500000Y0D01*
X10500000Y0D01*
X10500000Y0D01*
X10500000Y0D01*
X18500000Y-8700000D02*
X18500000Y-8700000D01*
X18500000Y-8700000D02*
X18500000Y-8700000D01*
X18500000Y-8700000D01*
X18500000Y-8700000D02*
X18500000Y-8700000D01*
X18500000Y-8700000D02*
X18500000Y-8700000D01*
X18500000Y-8700000D01*
X18500000Y-8700000D01*
X18500000Y-8700000D01*
M02*
