G04 #@! TF.GenerationSoftware,KiCad,Pcbnew,(2017-11-24 revision a01d81e4b)-makepkg*
G04 #@! TF.CreationDate,2018-02-25T20:08:33+10:30*
G04 #@! TF.ProjectId,ledGlasses,6C6564476C61737365732E6B69636164,rev?*
G04 #@! TF.SameCoordinates,PX5f5e100PY5f5e100*
G04 #@! TF.FileFunction,Copper,L1,Top,Signal*
G04 #@! TF.FilePolarity,Positive*
%FSLAX46Y46*%
G04 Gerber Fmt 4.6, Leading zero omitted, Abs format (unit mm)*
G04 Created by KiCad (PCBNEW (2017-11-24 revision a01d81e4b)-makepkg) date 02/25/18 20:08:33*
%MOMM*%
%LPD*%
G01*
G04 APERTURE LIST*
%ADD10C,0.010000*%
%ADD11R,1.000000X1.000000*%
%ADD12R,1.050000X2.200000*%
%ADD13R,0.500000X0.800000*%
%ADD14R,1.300000X1.300000*%
%ADD15R,0.300000X0.850000*%
%ADD16R,0.850000X0.300000*%
%ADD17C,1.000000*%
%ADD18R,0.800000X0.900000*%
%ADD19C,1.800000*%
%ADD20R,0.750000X0.800000*%
%ADD21R,1.000000X1.250000*%
%ADD22R,0.800000X0.750000*%
%ADD23R,1.250000X1.000000*%
%ADD24R,0.800000X0.600000*%
%ADD25R,0.900000X0.500000*%
%ADD26R,0.500000X0.900000*%
%ADD27R,0.800000X0.500000*%
%ADD28R,0.800000X0.400000*%
%ADD29R,1.060000X0.650000*%
%ADD30R,0.650000X1.060000*%
%ADD31R,0.775000X1.200000*%
%ADD32R,0.650000X0.350000*%
%ADD33C,1.200000*%
%ADD34C,1.400000*%
%ADD35R,0.700000X1.800000*%
%ADD36R,0.800000X1.800000*%
%ADD37C,1.600000*%
%ADD38C,0.787400*%
%ADD39R,0.700000X1.300000*%
%ADD40R,1.450000X0.700000*%
%ADD41R,0.600000X1.100000*%
%ADD42C,0.600000*%
%ADD43C,0.685800*%
%ADD44C,0.203200*%
%ADD45C,0.152400*%
%ADD46C,0.254000*%
%ADD47C,0.304800*%
%ADD48C,0.250000*%
%ADD49C,0.500000*%
G04 APERTURE END LIST*
D10*
G36*
X19207173Y-1324619D02*
X19255413Y-1343039D01*
X19304502Y-1368595D01*
X19350790Y-1399616D01*
X19390626Y-1434434D01*
X19393443Y-1437352D01*
X19428735Y-1477469D01*
X19455871Y-1516506D01*
X19477241Y-1559118D01*
X19495239Y-1609959D01*
X19509884Y-1663983D01*
X19534458Y-1763351D01*
X19517802Y-1839665D01*
X19507029Y-1881180D01*
X19494291Y-1918338D01*
X19481606Y-1945363D01*
X19479853Y-1948156D01*
X19455696Y-1973238D01*
X19428119Y-1982005D01*
X19398525Y-1974375D01*
X19372391Y-1954494D01*
X19356871Y-1937407D01*
X19350591Y-1922807D01*
X19351409Y-1903115D01*
X19353831Y-1888877D01*
X19360194Y-1837122D01*
X19361581Y-1782945D01*
X19358247Y-1731471D01*
X19350446Y-1687828D01*
X19342715Y-1665227D01*
X19314689Y-1619053D01*
X19273919Y-1572737D01*
X19224126Y-1530083D01*
X19184919Y-1503862D01*
X19133885Y-1470771D01*
X19097204Y-1440814D01*
X19075523Y-1414599D01*
X19069364Y-1395133D01*
X19076082Y-1365819D01*
X19093222Y-1338817D01*
X19116398Y-1320071D01*
X19127843Y-1315866D01*
X19163433Y-1315005D01*
X19207173Y-1324619D01*
X19207173Y-1324619D01*
G37*
X19207173Y-1324619D02*
X19255413Y-1343039D01*
X19304502Y-1368595D01*
X19350790Y-1399616D01*
X19390626Y-1434434D01*
X19393443Y-1437352D01*
X19428735Y-1477469D01*
X19455871Y-1516506D01*
X19477241Y-1559118D01*
X19495239Y-1609959D01*
X19509884Y-1663983D01*
X19534458Y-1763351D01*
X19517802Y-1839665D01*
X19507029Y-1881180D01*
X19494291Y-1918338D01*
X19481606Y-1945363D01*
X19479853Y-1948156D01*
X19455696Y-1973238D01*
X19428119Y-1982005D01*
X19398525Y-1974375D01*
X19372391Y-1954494D01*
X19356871Y-1937407D01*
X19350591Y-1922807D01*
X19351409Y-1903115D01*
X19353831Y-1888877D01*
X19360194Y-1837122D01*
X19361581Y-1782945D01*
X19358247Y-1731471D01*
X19350446Y-1687828D01*
X19342715Y-1665227D01*
X19314689Y-1619053D01*
X19273919Y-1572737D01*
X19224126Y-1530083D01*
X19184919Y-1503862D01*
X19133885Y-1470771D01*
X19097204Y-1440814D01*
X19075523Y-1414599D01*
X19069364Y-1395133D01*
X19076082Y-1365819D01*
X19093222Y-1338817D01*
X19116398Y-1320071D01*
X19127843Y-1315866D01*
X19163433Y-1315005D01*
X19207173Y-1324619D01*
G36*
X21605695Y-672379D02*
X21662072Y-672650D01*
X21704100Y-673482D01*
X21734360Y-675090D01*
X21755432Y-677688D01*
X21769898Y-681490D01*
X21780339Y-686711D01*
X21780643Y-686909D01*
X21801675Y-709458D01*
X21809792Y-737912D01*
X21803933Y-766824D01*
X21798097Y-776430D01*
X21789503Y-786782D01*
X21779535Y-794857D01*
X21765694Y-801298D01*
X21745481Y-806745D01*
X21716397Y-811841D01*
X21675945Y-817228D01*
X21621625Y-823549D01*
X21609333Y-824930D01*
X21427325Y-851344D01*
X21257236Y-888612D01*
X21097675Y-937121D01*
X20947249Y-997255D01*
X20889382Y-1024623D01*
X20779709Y-1084868D01*
X20685335Y-1149906D01*
X20605013Y-1220919D01*
X20537499Y-1299092D01*
X20481545Y-1385606D01*
X20455415Y-1436816D01*
X20433284Y-1502230D01*
X20424393Y-1572497D01*
X20428465Y-1643565D01*
X20445224Y-1711383D01*
X20474391Y-1771900D01*
X20478794Y-1778600D01*
X20510473Y-1811049D01*
X20552244Y-1833548D01*
X20599853Y-1845138D01*
X20649043Y-1844860D01*
X20695559Y-1831756D01*
X20701695Y-1828803D01*
X20725116Y-1814185D01*
X20754435Y-1792208D01*
X20783554Y-1767461D01*
X20785289Y-1765872D01*
X20818762Y-1736186D01*
X20844308Y-1716919D01*
X20865469Y-1706029D01*
X20885785Y-1701475D01*
X20897961Y-1700933D01*
X20924678Y-1707758D01*
X20948155Y-1725064D01*
X20963138Y-1748095D01*
X20965866Y-1762386D01*
X20960504Y-1787880D01*
X20946033Y-1821311D01*
X20924874Y-1858210D01*
X20899448Y-1894114D01*
X20885287Y-1910973D01*
X20835355Y-1954967D01*
X20774821Y-1989834D01*
X20707694Y-2014365D01*
X20637980Y-2027352D01*
X20569687Y-2027589D01*
X20525001Y-2019556D01*
X20459959Y-1993572D01*
X20403103Y-1953496D01*
X20355049Y-1900379D01*
X20316411Y-1835277D01*
X20287808Y-1759242D01*
X20269853Y-1673329D01*
X20263163Y-1578591D01*
X20263133Y-1571499D01*
X20269842Y-1472712D01*
X20290428Y-1381437D01*
X20325582Y-1296152D01*
X20375993Y-1215331D01*
X20442352Y-1137451D01*
X20473596Y-1106706D01*
X20545913Y-1045288D01*
X20631082Y-984056D01*
X20725152Y-925298D01*
X20824171Y-871304D01*
X20924188Y-824363D01*
X21021253Y-786763D01*
X21032148Y-783108D01*
X21070212Y-771308D01*
X21120127Y-756927D01*
X21177261Y-741241D01*
X21236976Y-725526D01*
X21287599Y-712780D01*
X21452699Y-672233D01*
X21605695Y-672379D01*
X21605695Y-672379D01*
G37*
X21605695Y-672379D02*
X21662072Y-672650D01*
X21704100Y-673482D01*
X21734360Y-675090D01*
X21755432Y-677688D01*
X21769898Y-681490D01*
X21780339Y-686711D01*
X21780643Y-686909D01*
X21801675Y-709458D01*
X21809792Y-737912D01*
X21803933Y-766824D01*
X21798097Y-776430D01*
X21789503Y-786782D01*
X21779535Y-794857D01*
X21765694Y-801298D01*
X21745481Y-806745D01*
X21716397Y-811841D01*
X21675945Y-817228D01*
X21621625Y-823549D01*
X21609333Y-824930D01*
X21427325Y-851344D01*
X21257236Y-888612D01*
X21097675Y-937121D01*
X20947249Y-997255D01*
X20889382Y-1024623D01*
X20779709Y-1084868D01*
X20685335Y-1149906D01*
X20605013Y-1220919D01*
X20537499Y-1299092D01*
X20481545Y-1385606D01*
X20455415Y-1436816D01*
X20433284Y-1502230D01*
X20424393Y-1572497D01*
X20428465Y-1643565D01*
X20445224Y-1711383D01*
X20474391Y-1771900D01*
X20478794Y-1778600D01*
X20510473Y-1811049D01*
X20552244Y-1833548D01*
X20599853Y-1845138D01*
X20649043Y-1844860D01*
X20695559Y-1831756D01*
X20701695Y-1828803D01*
X20725116Y-1814185D01*
X20754435Y-1792208D01*
X20783554Y-1767461D01*
X20785289Y-1765872D01*
X20818762Y-1736186D01*
X20844308Y-1716919D01*
X20865469Y-1706029D01*
X20885785Y-1701475D01*
X20897961Y-1700933D01*
X20924678Y-1707758D01*
X20948155Y-1725064D01*
X20963138Y-1748095D01*
X20965866Y-1762386D01*
X20960504Y-1787880D01*
X20946033Y-1821311D01*
X20924874Y-1858210D01*
X20899448Y-1894114D01*
X20885287Y-1910973D01*
X20835355Y-1954967D01*
X20774821Y-1989834D01*
X20707694Y-2014365D01*
X20637980Y-2027352D01*
X20569687Y-2027589D01*
X20525001Y-2019556D01*
X20459959Y-1993572D01*
X20403103Y-1953496D01*
X20355049Y-1900379D01*
X20316411Y-1835277D01*
X20287808Y-1759242D01*
X20269853Y-1673329D01*
X20263163Y-1578591D01*
X20263133Y-1571499D01*
X20269842Y-1472712D01*
X20290428Y-1381437D01*
X20325582Y-1296152D01*
X20375993Y-1215331D01*
X20442352Y-1137451D01*
X20473596Y-1106706D01*
X20545913Y-1045288D01*
X20631082Y-984056D01*
X20725152Y-925298D01*
X20824171Y-871304D01*
X20924188Y-824363D01*
X21021253Y-786763D01*
X21032148Y-783108D01*
X21070212Y-771308D01*
X21120127Y-756927D01*
X21177261Y-741241D01*
X21236976Y-725526D01*
X21287599Y-712780D01*
X21452699Y-672233D01*
X21605695Y-672379D01*
G36*
X17530129Y-468297D02*
X17547246Y-471978D01*
X17619673Y-496891D01*
X17683886Y-536573D01*
X17725311Y-574780D01*
X17781819Y-637571D01*
X17826343Y-691383D01*
X17860052Y-737899D01*
X17884118Y-778803D01*
X17899711Y-815779D01*
X17904528Y-832623D01*
X17909373Y-868184D01*
X17910450Y-914689D01*
X17908035Y-966643D01*
X17902406Y-1018549D01*
X17893840Y-1064907D01*
X17892544Y-1070166D01*
X17861440Y-1163947D01*
X17816188Y-1255935D01*
X17756200Y-1346965D01*
X17680889Y-1437870D01*
X17589667Y-1529485D01*
X17533572Y-1579557D01*
X17390624Y-1691495D01*
X17238479Y-1789309D01*
X17076999Y-1873067D01*
X16906050Y-1942841D01*
X16725496Y-1998697D01*
X16698666Y-2005606D01*
X16601316Y-2028372D01*
X16517615Y-2044156D01*
X16445860Y-2053122D01*
X16384348Y-2055433D01*
X16331375Y-2051252D01*
X16296789Y-2044106D01*
X16258492Y-2027706D01*
X16231756Y-2003974D01*
X16217257Y-1975807D01*
X16215671Y-1946103D01*
X16227674Y-1917758D01*
X16253941Y-1893670D01*
X16260767Y-1889724D01*
X16273881Y-1884324D01*
X16292197Y-1880073D01*
X16318152Y-1876720D01*
X16354182Y-1874015D01*
X16402726Y-1871707D01*
X16453133Y-1869950D01*
X16618233Y-1864759D01*
X16749466Y-1815670D01*
X16871967Y-1768322D01*
X16980157Y-1723031D01*
X17076336Y-1678572D01*
X17162806Y-1633717D01*
X17241867Y-1587239D01*
X17315820Y-1537914D01*
X17386966Y-1484513D01*
X17418333Y-1459112D01*
X17505299Y-1379673D01*
X17581069Y-1295017D01*
X17644262Y-1207071D01*
X17693494Y-1117763D01*
X17727384Y-1029020D01*
X17727749Y-1027770D01*
X17737651Y-965639D01*
X17733607Y-900706D01*
X17716598Y-837623D01*
X17687606Y-781041D01*
X17670995Y-759038D01*
X17656679Y-745418D01*
X17631743Y-724844D01*
X17599524Y-699956D01*
X17563355Y-673394D01*
X17558033Y-669597D01*
X17508849Y-632978D01*
X17473633Y-602469D01*
X17451244Y-576541D01*
X17440537Y-553664D01*
X17440369Y-532308D01*
X17445270Y-518723D01*
X17460412Y-497073D01*
X17479513Y-478876D01*
X17494728Y-469214D01*
X17509424Y-465909D01*
X17530129Y-468297D01*
X17530129Y-468297D01*
G37*
X17530129Y-468297D02*
X17547246Y-471978D01*
X17619673Y-496891D01*
X17683886Y-536573D01*
X17725311Y-574780D01*
X17781819Y-637571D01*
X17826343Y-691383D01*
X17860052Y-737899D01*
X17884118Y-778803D01*
X17899711Y-815779D01*
X17904528Y-832623D01*
X17909373Y-868184D01*
X17910450Y-914689D01*
X17908035Y-966643D01*
X17902406Y-1018549D01*
X17893840Y-1064907D01*
X17892544Y-1070166D01*
X17861440Y-1163947D01*
X17816188Y-1255935D01*
X17756200Y-1346965D01*
X17680889Y-1437870D01*
X17589667Y-1529485D01*
X17533572Y-1579557D01*
X17390624Y-1691495D01*
X17238479Y-1789309D01*
X17076999Y-1873067D01*
X16906050Y-1942841D01*
X16725496Y-1998697D01*
X16698666Y-2005606D01*
X16601316Y-2028372D01*
X16517615Y-2044156D01*
X16445860Y-2053122D01*
X16384348Y-2055433D01*
X16331375Y-2051252D01*
X16296789Y-2044106D01*
X16258492Y-2027706D01*
X16231756Y-2003974D01*
X16217257Y-1975807D01*
X16215671Y-1946103D01*
X16227674Y-1917758D01*
X16253941Y-1893670D01*
X16260767Y-1889724D01*
X16273881Y-1884324D01*
X16292197Y-1880073D01*
X16318152Y-1876720D01*
X16354182Y-1874015D01*
X16402726Y-1871707D01*
X16453133Y-1869950D01*
X16618233Y-1864759D01*
X16749466Y-1815670D01*
X16871967Y-1768322D01*
X16980157Y-1723031D01*
X17076336Y-1678572D01*
X17162806Y-1633717D01*
X17241867Y-1587239D01*
X17315820Y-1537914D01*
X17386966Y-1484513D01*
X17418333Y-1459112D01*
X17505299Y-1379673D01*
X17581069Y-1295017D01*
X17644262Y-1207071D01*
X17693494Y-1117763D01*
X17727384Y-1029020D01*
X17727749Y-1027770D01*
X17737651Y-965639D01*
X17733607Y-900706D01*
X17716598Y-837623D01*
X17687606Y-781041D01*
X17670995Y-759038D01*
X17656679Y-745418D01*
X17631743Y-724844D01*
X17599524Y-699956D01*
X17563355Y-673394D01*
X17558033Y-669597D01*
X17508849Y-632978D01*
X17473633Y-602469D01*
X17451244Y-576541D01*
X17440537Y-553664D01*
X17440369Y-532308D01*
X17445270Y-518723D01*
X17460412Y-497073D01*
X17479513Y-478876D01*
X17494728Y-469214D01*
X17509424Y-465909D01*
X17530129Y-468297D01*
G36*
X22235050Y-1052603D02*
X22268089Y-1065892D01*
X22289933Y-1091247D01*
X22294732Y-1102819D01*
X22299732Y-1124476D01*
X22298281Y-1143732D01*
X22288856Y-1162168D01*
X22269932Y-1181364D01*
X22239986Y-1202903D01*
X22197493Y-1228363D01*
X22146966Y-1256097D01*
X22067040Y-1306864D01*
X21990425Y-1371877D01*
X21916754Y-1451609D01*
X21845659Y-1546530D01*
X21776772Y-1657112D01*
X21709726Y-1783828D01*
X21670331Y-1867571D01*
X21651516Y-1909604D01*
X21635522Y-1946392D01*
X21621021Y-1981345D01*
X21606682Y-2017872D01*
X21591175Y-2059384D01*
X21573170Y-2109291D01*
X21551338Y-2171002D01*
X21545445Y-2187766D01*
X21500767Y-2305379D01*
X21451722Y-2417052D01*
X21399272Y-2521226D01*
X21344378Y-2616345D01*
X21288003Y-2700849D01*
X21231109Y-2773181D01*
X21174656Y-2831784D01*
X21122122Y-2873446D01*
X21098531Y-2887156D01*
X21066808Y-2903022D01*
X21031104Y-2919277D01*
X20995570Y-2934150D01*
X20964358Y-2945873D01*
X20941619Y-2952677D01*
X20933872Y-2953668D01*
X20922552Y-2950342D01*
X20903428Y-2942730D01*
X20902161Y-2942181D01*
X20876629Y-2922912D01*
X20860656Y-2894637D01*
X20856285Y-2862928D01*
X20863523Y-2836855D01*
X20873575Y-2826803D01*
X20894950Y-2810547D01*
X20924364Y-2790453D01*
X20953771Y-2771795D01*
X21031503Y-2717690D01*
X21101860Y-2656077D01*
X21160968Y-2590525D01*
X21183141Y-2560289D01*
X21201127Y-2530349D01*
X21223623Y-2487574D01*
X21249273Y-2435013D01*
X21276719Y-2375715D01*
X21304605Y-2312728D01*
X21331576Y-2249103D01*
X21356273Y-2187889D01*
X21377341Y-2132134D01*
X21390304Y-2094633D01*
X21405501Y-2053135D01*
X21427606Y-1999646D01*
X21455255Y-1936952D01*
X21487089Y-1867840D01*
X21521744Y-1795095D01*
X21557860Y-1721503D01*
X21594074Y-1649851D01*
X21629025Y-1582924D01*
X21661350Y-1523509D01*
X21689689Y-1474392D01*
X21706883Y-1446933D01*
X21750568Y-1386881D01*
X21801792Y-1326797D01*
X21858413Y-1268425D01*
X21918290Y-1213512D01*
X21979279Y-1163801D01*
X22039239Y-1121038D01*
X22096027Y-1086969D01*
X22147502Y-1063339D01*
X22191522Y-1051893D01*
X22191784Y-1051862D01*
X22235050Y-1052603D01*
X22235050Y-1052603D01*
G37*
X22235050Y-1052603D02*
X22268089Y-1065892D01*
X22289933Y-1091247D01*
X22294732Y-1102819D01*
X22299732Y-1124476D01*
X22298281Y-1143732D01*
X22288856Y-1162168D01*
X22269932Y-1181364D01*
X22239986Y-1202903D01*
X22197493Y-1228363D01*
X22146966Y-1256097D01*
X22067040Y-1306864D01*
X21990425Y-1371877D01*
X21916754Y-1451609D01*
X21845659Y-1546530D01*
X21776772Y-1657112D01*
X21709726Y-1783828D01*
X21670331Y-1867571D01*
X21651516Y-1909604D01*
X21635522Y-1946392D01*
X21621021Y-1981345D01*
X21606682Y-2017872D01*
X21591175Y-2059384D01*
X21573170Y-2109291D01*
X21551338Y-2171002D01*
X21545445Y-2187766D01*
X21500767Y-2305379D01*
X21451722Y-2417052D01*
X21399272Y-2521226D01*
X21344378Y-2616345D01*
X21288003Y-2700849D01*
X21231109Y-2773181D01*
X21174656Y-2831784D01*
X21122122Y-2873446D01*
X21098531Y-2887156D01*
X21066808Y-2903022D01*
X21031104Y-2919277D01*
X20995570Y-2934150D01*
X20964358Y-2945873D01*
X20941619Y-2952677D01*
X20933872Y-2953668D01*
X20922552Y-2950342D01*
X20903428Y-2942730D01*
X20902161Y-2942181D01*
X20876629Y-2922912D01*
X20860656Y-2894637D01*
X20856285Y-2862928D01*
X20863523Y-2836855D01*
X20873575Y-2826803D01*
X20894950Y-2810547D01*
X20924364Y-2790453D01*
X20953771Y-2771795D01*
X21031503Y-2717690D01*
X21101860Y-2656077D01*
X21160968Y-2590525D01*
X21183141Y-2560289D01*
X21201127Y-2530349D01*
X21223623Y-2487574D01*
X21249273Y-2435013D01*
X21276719Y-2375715D01*
X21304605Y-2312728D01*
X21331576Y-2249103D01*
X21356273Y-2187889D01*
X21377341Y-2132134D01*
X21390304Y-2094633D01*
X21405501Y-2053135D01*
X21427606Y-1999646D01*
X21455255Y-1936952D01*
X21487089Y-1867840D01*
X21521744Y-1795095D01*
X21557860Y-1721503D01*
X21594074Y-1649851D01*
X21629025Y-1582924D01*
X21661350Y-1523509D01*
X21689689Y-1474392D01*
X21706883Y-1446933D01*
X21750568Y-1386881D01*
X21801792Y-1326797D01*
X21858413Y-1268425D01*
X21918290Y-1213512D01*
X21979279Y-1163801D01*
X22039239Y-1121038D01*
X22096027Y-1086969D01*
X22147502Y-1063339D01*
X22191522Y-1051893D01*
X22191784Y-1051862D01*
X22235050Y-1052603D01*
G36*
X18878330Y-1315047D02*
X18912678Y-1327934D01*
X18937656Y-1350186D01*
X18950029Y-1378547D01*
X18950800Y-1387933D01*
X18942801Y-1418783D01*
X18919808Y-1444516D01*
X18883320Y-1463838D01*
X18852896Y-1472383D01*
X18819918Y-1481096D01*
X18776460Y-1495245D01*
X18727347Y-1513023D01*
X18677404Y-1532624D01*
X18631456Y-1552241D01*
X18600616Y-1566833D01*
X18534175Y-1608014D01*
X18475398Y-1661162D01*
X18422826Y-1727837D01*
X18376458Y-1806762D01*
X18360271Y-1840153D01*
X18351032Y-1866658D01*
X18346857Y-1893839D01*
X18345862Y-1929258D01*
X18345862Y-1929533D01*
X18352259Y-1990482D01*
X18371535Y-2040437D01*
X18403699Y-2079410D01*
X18448762Y-2107415D01*
X18501519Y-2123483D01*
X18540041Y-2132384D01*
X18581288Y-2143867D01*
X18600555Y-2150052D01*
X18648981Y-2161785D01*
X18707421Y-2166456D01*
X18721630Y-2166599D01*
X18826682Y-2170590D01*
X18918608Y-2182863D01*
X18999299Y-2203871D01*
X19070643Y-2234065D01*
X19116190Y-2261014D01*
X19179655Y-2310711D01*
X19227337Y-2365047D01*
X19260118Y-2425657D01*
X19278881Y-2494176D01*
X19284507Y-2572239D01*
X19284501Y-2573000D01*
X19275444Y-2663894D01*
X19250871Y-2752968D01*
X19212193Y-2837955D01*
X19160821Y-2916588D01*
X19098168Y-2986602D01*
X19025643Y-3045730D01*
X18968815Y-3079921D01*
X18933274Y-3096758D01*
X18888502Y-3115478D01*
X18837717Y-3134993D01*
X18784134Y-3154213D01*
X18730972Y-3172048D01*
X18681447Y-3187409D01*
X18638775Y-3199206D01*
X18606175Y-3206349D01*
X18590656Y-3208000D01*
X18560732Y-3204330D01*
X18536630Y-3190691D01*
X18528362Y-3183436D01*
X18509995Y-3162087D01*
X18502765Y-3139274D01*
X18502066Y-3124784D01*
X18504374Y-3103418D01*
X18512733Y-3085869D01*
X18529299Y-3070610D01*
X18556228Y-3056113D01*
X18595674Y-3040850D01*
X18641706Y-3025806D01*
X18707812Y-3003686D01*
X18772540Y-2979298D01*
X18832328Y-2954160D01*
X18883615Y-2929787D01*
X18922839Y-2907697D01*
X18929593Y-2903227D01*
X18976026Y-2864180D01*
X19022166Y-2812111D01*
X19064821Y-2750683D01*
X19069865Y-2742333D01*
X19101050Y-2679266D01*
X19116463Y-2620702D01*
X19116183Y-2565177D01*
X19100287Y-2511231D01*
X19083806Y-2479864D01*
X19048703Y-2434571D01*
X19003475Y-2399119D01*
X18945295Y-2371353D01*
X18938100Y-2368716D01*
X18914265Y-2361375D01*
X18887057Y-2355676D01*
X18853254Y-2351217D01*
X18809636Y-2347591D01*
X18752981Y-2344396D01*
X18739133Y-2343742D01*
X18676548Y-2340364D01*
X18626707Y-2336357D01*
X18585419Y-2331193D01*
X18548493Y-2324345D01*
X18511741Y-2315284D01*
X18510533Y-2314955D01*
X18430635Y-2289796D01*
X18365417Y-2261666D01*
X18312738Y-2229530D01*
X18283615Y-2205454D01*
X18236421Y-2150341D01*
X18202694Y-2087355D01*
X18181998Y-2018291D01*
X18173897Y-1944944D01*
X18177956Y-1869108D01*
X18193739Y-1792578D01*
X18220810Y-1717148D01*
X18258733Y-1644614D01*
X18307073Y-1576770D01*
X18365394Y-1515411D01*
X18433260Y-1462332D01*
X18469416Y-1440143D01*
X18516497Y-1416163D01*
X18570776Y-1392636D01*
X18629140Y-1370515D01*
X18688475Y-1350751D01*
X18745666Y-1334297D01*
X18797601Y-1322106D01*
X18841164Y-1315131D01*
X18873243Y-1314324D01*
X18878330Y-1315047D01*
X18878330Y-1315047D01*
G37*
X18878330Y-1315047D02*
X18912678Y-1327934D01*
X18937656Y-1350186D01*
X18950029Y-1378547D01*
X18950800Y-1387933D01*
X18942801Y-1418783D01*
X18919808Y-1444516D01*
X18883320Y-1463838D01*
X18852896Y-1472383D01*
X18819918Y-1481096D01*
X18776460Y-1495245D01*
X18727347Y-1513023D01*
X18677404Y-1532624D01*
X18631456Y-1552241D01*
X18600616Y-1566833D01*
X18534175Y-1608014D01*
X18475398Y-1661162D01*
X18422826Y-1727837D01*
X18376458Y-1806762D01*
X18360271Y-1840153D01*
X18351032Y-1866658D01*
X18346857Y-1893839D01*
X18345862Y-1929258D01*
X18345862Y-1929533D01*
X18352259Y-1990482D01*
X18371535Y-2040437D01*
X18403699Y-2079410D01*
X18448762Y-2107415D01*
X18501519Y-2123483D01*
X18540041Y-2132384D01*
X18581288Y-2143867D01*
X18600555Y-2150052D01*
X18648981Y-2161785D01*
X18707421Y-2166456D01*
X18721630Y-2166599D01*
X18826682Y-2170590D01*
X18918608Y-2182863D01*
X18999299Y-2203871D01*
X19070643Y-2234065D01*
X19116190Y-2261014D01*
X19179655Y-2310711D01*
X19227337Y-2365047D01*
X19260118Y-2425657D01*
X19278881Y-2494176D01*
X19284507Y-2572239D01*
X19284501Y-2573000D01*
X19275444Y-2663894D01*
X19250871Y-2752968D01*
X19212193Y-2837955D01*
X19160821Y-2916588D01*
X19098168Y-2986602D01*
X19025643Y-3045730D01*
X18968815Y-3079921D01*
X18933274Y-3096758D01*
X18888502Y-3115478D01*
X18837717Y-3134993D01*
X18784134Y-3154213D01*
X18730972Y-3172048D01*
X18681447Y-3187409D01*
X18638775Y-3199206D01*
X18606175Y-3206349D01*
X18590656Y-3208000D01*
X18560732Y-3204330D01*
X18536630Y-3190691D01*
X18528362Y-3183436D01*
X18509995Y-3162087D01*
X18502765Y-3139274D01*
X18502066Y-3124784D01*
X18504374Y-3103418D01*
X18512733Y-3085869D01*
X18529299Y-3070610D01*
X18556228Y-3056113D01*
X18595674Y-3040850D01*
X18641706Y-3025806D01*
X18707812Y-3003686D01*
X18772540Y-2979298D01*
X18832328Y-2954160D01*
X18883615Y-2929787D01*
X18922839Y-2907697D01*
X18929593Y-2903227D01*
X18976026Y-2864180D01*
X19022166Y-2812111D01*
X19064821Y-2750683D01*
X19069865Y-2742333D01*
X19101050Y-2679266D01*
X19116463Y-2620702D01*
X19116183Y-2565177D01*
X19100287Y-2511231D01*
X19083806Y-2479864D01*
X19048703Y-2434571D01*
X19003475Y-2399119D01*
X18945295Y-2371353D01*
X18938100Y-2368716D01*
X18914265Y-2361375D01*
X18887057Y-2355676D01*
X18853254Y-2351217D01*
X18809636Y-2347591D01*
X18752981Y-2344396D01*
X18739133Y-2343742D01*
X18676548Y-2340364D01*
X18626707Y-2336357D01*
X18585419Y-2331193D01*
X18548493Y-2324345D01*
X18511741Y-2315284D01*
X18510533Y-2314955D01*
X18430635Y-2289796D01*
X18365417Y-2261666D01*
X18312738Y-2229530D01*
X18283615Y-2205454D01*
X18236421Y-2150341D01*
X18202694Y-2087355D01*
X18181998Y-2018291D01*
X18173897Y-1944944D01*
X18177956Y-1869108D01*
X18193739Y-1792578D01*
X18220810Y-1717148D01*
X18258733Y-1644614D01*
X18307073Y-1576770D01*
X18365394Y-1515411D01*
X18433260Y-1462332D01*
X18469416Y-1440143D01*
X18516497Y-1416163D01*
X18570776Y-1392636D01*
X18629140Y-1370515D01*
X18688475Y-1350751D01*
X18745666Y-1334297D01*
X18797601Y-1322106D01*
X18841164Y-1315131D01*
X18873243Y-1314324D01*
X18878330Y-1315047D01*
G36*
X18053563Y-2562590D02*
X18068642Y-2576677D01*
X18086826Y-2599450D01*
X18097164Y-2620010D01*
X18100565Y-2643294D01*
X18097941Y-2674239D01*
X18092489Y-2705868D01*
X18085214Y-2770685D01*
X18090161Y-2825734D01*
X18107594Y-2873234D01*
X18113495Y-2883482D01*
X18129374Y-2903016D01*
X18155446Y-2928756D01*
X18187836Y-2957479D01*
X18222671Y-2985965D01*
X18256076Y-3010991D01*
X18284178Y-3029337D01*
X18296434Y-3035610D01*
X18320199Y-3048692D01*
X18346340Y-3067334D01*
X18353584Y-3073392D01*
X18373114Y-3093394D01*
X18381815Y-3112421D01*
X18383533Y-3133061D01*
X18376871Y-3167557D01*
X18357699Y-3191725D01*
X18327233Y-3205152D01*
X18286690Y-3207424D01*
X18237290Y-3198126D01*
X18214200Y-3190674D01*
X18144341Y-3157022D01*
X18079726Y-3109237D01*
X18022708Y-3049870D01*
X17975643Y-2981473D01*
X17940883Y-2906597D01*
X17934492Y-2887491D01*
X17923649Y-2837913D01*
X17919010Y-2782871D01*
X17920166Y-2726180D01*
X17926707Y-2671659D01*
X17938225Y-2623124D01*
X17954310Y-2584393D01*
X17969158Y-2564041D01*
X17994946Y-2548829D01*
X18024286Y-2548499D01*
X18053563Y-2562590D01*
X18053563Y-2562590D01*
G37*
X18053563Y-2562590D02*
X18068642Y-2576677D01*
X18086826Y-2599450D01*
X18097164Y-2620010D01*
X18100565Y-2643294D01*
X18097941Y-2674239D01*
X18092489Y-2705868D01*
X18085214Y-2770685D01*
X18090161Y-2825734D01*
X18107594Y-2873234D01*
X18113495Y-2883482D01*
X18129374Y-2903016D01*
X18155446Y-2928756D01*
X18187836Y-2957479D01*
X18222671Y-2985965D01*
X18256076Y-3010991D01*
X18284178Y-3029337D01*
X18296434Y-3035610D01*
X18320199Y-3048692D01*
X18346340Y-3067334D01*
X18353584Y-3073392D01*
X18373114Y-3093394D01*
X18381815Y-3112421D01*
X18383533Y-3133061D01*
X18376871Y-3167557D01*
X18357699Y-3191725D01*
X18327233Y-3205152D01*
X18286690Y-3207424D01*
X18237290Y-3198126D01*
X18214200Y-3190674D01*
X18144341Y-3157022D01*
X18079726Y-3109237D01*
X18022708Y-3049870D01*
X17975643Y-2981473D01*
X17940883Y-2906597D01*
X17934492Y-2887491D01*
X17923649Y-2837913D01*
X17919010Y-2782871D01*
X17920166Y-2726180D01*
X17926707Y-2671659D01*
X17938225Y-2623124D01*
X17954310Y-2584393D01*
X17969158Y-2564041D01*
X17994946Y-2548829D01*
X18024286Y-2548499D01*
X18053563Y-2562590D01*
G36*
X17237923Y-470947D02*
X17265503Y-487295D01*
X17280251Y-514393D01*
X17282866Y-537033D01*
X17280810Y-557044D01*
X17273595Y-574800D01*
X17259655Y-591212D01*
X17237421Y-607191D01*
X17205324Y-623651D01*
X17161798Y-641501D01*
X17105274Y-661656D01*
X17034185Y-685025D01*
X17021315Y-689136D01*
X16908659Y-731585D01*
X16791111Y-788319D01*
X16670562Y-858107D01*
X16548899Y-939718D01*
X16428013Y-1031920D01*
X16309792Y-1133482D01*
X16242718Y-1196651D01*
X16180944Y-1258428D01*
X16128933Y-1314431D01*
X16082969Y-1369132D01*
X16039332Y-1427002D01*
X15994303Y-1492512D01*
X15985279Y-1506200D01*
X15881360Y-1675136D01*
X15793679Y-1840316D01*
X15722059Y-2002140D01*
X15666322Y-2161007D01*
X15626536Y-2316143D01*
X15612746Y-2400592D01*
X15604616Y-2491321D01*
X15602250Y-2583061D01*
X15605753Y-2670546D01*
X15615229Y-2748509D01*
X15617733Y-2761908D01*
X15643068Y-2862547D01*
X15676448Y-2948882D01*
X15718608Y-3021882D01*
X15770281Y-3082515D01*
X15832201Y-3131751D01*
X15905101Y-3170558D01*
X15936666Y-3183075D01*
X16018179Y-3210116D01*
X16088688Y-3227435D01*
X16150862Y-3235297D01*
X16207372Y-3233967D01*
X16260887Y-3223713D01*
X16281416Y-3217388D01*
X16334493Y-3203359D01*
X16375724Y-3201261D01*
X16405045Y-3211076D01*
X16422395Y-3232784D01*
X16427733Y-3264029D01*
X16419746Y-3295745D01*
X16397640Y-3325781D01*
X16364200Y-3351423D01*
X16322208Y-3369960D01*
X16317666Y-3371312D01*
X16227412Y-3391754D01*
X16139802Y-3401383D01*
X16058299Y-3399998D01*
X15995933Y-3389896D01*
X15962681Y-3379776D01*
X15919865Y-3363975D01*
X15872277Y-3344557D01*
X15824711Y-3323583D01*
X15781960Y-3303116D01*
X15748819Y-3285217D01*
X15740436Y-3279981D01*
X15673281Y-3225727D01*
X15612904Y-3156287D01*
X15559211Y-3071522D01*
X15512108Y-2971296D01*
X15494198Y-2924366D01*
X15477310Y-2874380D01*
X15464322Y-2828002D01*
X15454765Y-2781779D01*
X15448172Y-2732257D01*
X15444076Y-2675982D01*
X15442010Y-2609500D01*
X15441501Y-2534900D01*
X15442032Y-2461076D01*
X15443945Y-2400112D01*
X15447865Y-2347950D01*
X15454418Y-2300533D01*
X15464230Y-2253805D01*
X15477925Y-2203709D01*
X15496130Y-2146187D01*
X15505955Y-2116812D01*
X15522176Y-2063258D01*
X15529461Y-2021764D01*
X15527094Y-1989585D01*
X15514359Y-1963978D01*
X15490538Y-1942196D01*
X15454975Y-1921525D01*
X15393835Y-1887275D01*
X15330736Y-1845860D01*
X15268141Y-1799424D01*
X15208515Y-1750108D01*
X15154322Y-1700054D01*
X15108026Y-1651406D01*
X15072093Y-1606304D01*
X15050263Y-1569700D01*
X15038750Y-1543008D01*
X15031655Y-1519242D01*
X15027949Y-1492664D01*
X15026607Y-1457539D01*
X15026500Y-1437029D01*
X15026854Y-1398396D01*
X15028459Y-1372602D01*
X15032121Y-1355561D01*
X15038650Y-1343183D01*
X15047025Y-1333313D01*
X15072213Y-1316231D01*
X15100534Y-1311563D01*
X15126431Y-1319663D01*
X15135886Y-1327648D01*
X15145501Y-1342264D01*
X15159280Y-1368212D01*
X15174996Y-1401146D01*
X15183809Y-1421019D01*
X15209518Y-1477581D01*
X15233351Y-1522408D01*
X15258074Y-1560049D01*
X15286452Y-1595054D01*
X15296021Y-1605646D01*
X15334008Y-1641361D01*
X15379744Y-1675806D01*
X15429503Y-1706912D01*
X15479561Y-1732614D01*
X15526193Y-1750842D01*
X15565674Y-1759531D01*
X15574065Y-1759970D01*
X15592287Y-1758143D01*
X15609581Y-1751369D01*
X15627175Y-1738131D01*
X15646297Y-1716914D01*
X15668176Y-1686202D01*
X15694042Y-1644477D01*
X15725122Y-1590224D01*
X15753826Y-1538140D01*
X15779088Y-1496476D01*
X15814239Y-1445187D01*
X15857280Y-1386705D01*
X15906211Y-1323462D01*
X15959034Y-1257891D01*
X16013748Y-1192424D01*
X16068354Y-1129493D01*
X16120853Y-1071531D01*
X16169245Y-1020970D01*
X16211530Y-980242D01*
X16215089Y-977033D01*
X16315777Y-893618D01*
X16429102Y-811580D01*
X16551468Y-732955D01*
X16679277Y-659784D01*
X16808932Y-594103D01*
X16936836Y-537951D01*
X17059391Y-493367D01*
X17080103Y-486881D01*
X17145031Y-470692D01*
X17197701Y-465397D01*
X17237923Y-470947D01*
X17237923Y-470947D01*
G37*
X17237923Y-470947D02*
X17265503Y-487295D01*
X17280251Y-514393D01*
X17282866Y-537033D01*
X17280810Y-557044D01*
X17273595Y-574800D01*
X17259655Y-591212D01*
X17237421Y-607191D01*
X17205324Y-623651D01*
X17161798Y-641501D01*
X17105274Y-661656D01*
X17034185Y-685025D01*
X17021315Y-689136D01*
X16908659Y-731585D01*
X16791111Y-788319D01*
X16670562Y-858107D01*
X16548899Y-939718D01*
X16428013Y-1031920D01*
X16309792Y-1133482D01*
X16242718Y-1196651D01*
X16180944Y-1258428D01*
X16128933Y-1314431D01*
X16082969Y-1369132D01*
X16039332Y-1427002D01*
X15994303Y-1492512D01*
X15985279Y-1506200D01*
X15881360Y-1675136D01*
X15793679Y-1840316D01*
X15722059Y-2002140D01*
X15666322Y-2161007D01*
X15626536Y-2316143D01*
X15612746Y-2400592D01*
X15604616Y-2491321D01*
X15602250Y-2583061D01*
X15605753Y-2670546D01*
X15615229Y-2748509D01*
X15617733Y-2761908D01*
X15643068Y-2862547D01*
X15676448Y-2948882D01*
X15718608Y-3021882D01*
X15770281Y-3082515D01*
X15832201Y-3131751D01*
X15905101Y-3170558D01*
X15936666Y-3183075D01*
X16018179Y-3210116D01*
X16088688Y-3227435D01*
X16150862Y-3235297D01*
X16207372Y-3233967D01*
X16260887Y-3223713D01*
X16281416Y-3217388D01*
X16334493Y-3203359D01*
X16375724Y-3201261D01*
X16405045Y-3211076D01*
X16422395Y-3232784D01*
X16427733Y-3264029D01*
X16419746Y-3295745D01*
X16397640Y-3325781D01*
X16364200Y-3351423D01*
X16322208Y-3369960D01*
X16317666Y-3371312D01*
X16227412Y-3391754D01*
X16139802Y-3401383D01*
X16058299Y-3399998D01*
X15995933Y-3389896D01*
X15962681Y-3379776D01*
X15919865Y-3363975D01*
X15872277Y-3344557D01*
X15824711Y-3323583D01*
X15781960Y-3303116D01*
X15748819Y-3285217D01*
X15740436Y-3279981D01*
X15673281Y-3225727D01*
X15612904Y-3156287D01*
X15559211Y-3071522D01*
X15512108Y-2971296D01*
X15494198Y-2924366D01*
X15477310Y-2874380D01*
X15464322Y-2828002D01*
X15454765Y-2781779D01*
X15448172Y-2732257D01*
X15444076Y-2675982D01*
X15442010Y-2609500D01*
X15441501Y-2534900D01*
X15442032Y-2461076D01*
X15443945Y-2400112D01*
X15447865Y-2347950D01*
X15454418Y-2300533D01*
X15464230Y-2253805D01*
X15477925Y-2203709D01*
X15496130Y-2146187D01*
X15505955Y-2116812D01*
X15522176Y-2063258D01*
X15529461Y-2021764D01*
X15527094Y-1989585D01*
X15514359Y-1963978D01*
X15490538Y-1942196D01*
X15454975Y-1921525D01*
X15393835Y-1887275D01*
X15330736Y-1845860D01*
X15268141Y-1799424D01*
X15208515Y-1750108D01*
X15154322Y-1700054D01*
X15108026Y-1651406D01*
X15072093Y-1606304D01*
X15050263Y-1569700D01*
X15038750Y-1543008D01*
X15031655Y-1519242D01*
X15027949Y-1492664D01*
X15026607Y-1457539D01*
X15026500Y-1437029D01*
X15026854Y-1398396D01*
X15028459Y-1372602D01*
X15032121Y-1355561D01*
X15038650Y-1343183D01*
X15047025Y-1333313D01*
X15072213Y-1316231D01*
X15100534Y-1311563D01*
X15126431Y-1319663D01*
X15135886Y-1327648D01*
X15145501Y-1342264D01*
X15159280Y-1368212D01*
X15174996Y-1401146D01*
X15183809Y-1421019D01*
X15209518Y-1477581D01*
X15233351Y-1522408D01*
X15258074Y-1560049D01*
X15286452Y-1595054D01*
X15296021Y-1605646D01*
X15334008Y-1641361D01*
X15379744Y-1675806D01*
X15429503Y-1706912D01*
X15479561Y-1732614D01*
X15526193Y-1750842D01*
X15565674Y-1759531D01*
X15574065Y-1759970D01*
X15592287Y-1758143D01*
X15609581Y-1751369D01*
X15627175Y-1738131D01*
X15646297Y-1716914D01*
X15668176Y-1686202D01*
X15694042Y-1644477D01*
X15725122Y-1590224D01*
X15753826Y-1538140D01*
X15779088Y-1496476D01*
X15814239Y-1445187D01*
X15857280Y-1386705D01*
X15906211Y-1323462D01*
X15959034Y-1257891D01*
X16013748Y-1192424D01*
X16068354Y-1129493D01*
X16120853Y-1071531D01*
X16169245Y-1020970D01*
X16211530Y-980242D01*
X16215089Y-977033D01*
X16315777Y-893618D01*
X16429102Y-811580D01*
X16551468Y-732955D01*
X16679277Y-659784D01*
X16808932Y-594103D01*
X16936836Y-537951D01*
X17059391Y-493367D01*
X17080103Y-486881D01*
X17145031Y-470692D01*
X17197701Y-465397D01*
X17237923Y-470947D01*
G36*
X22175343Y-714953D02*
X22237800Y-731877D01*
X22305375Y-755964D01*
X22375322Y-786132D01*
X22444893Y-821303D01*
X22511340Y-860395D01*
X22569823Y-900749D01*
X22659120Y-978128D01*
X22741133Y-1070000D01*
X22815081Y-1175225D01*
X22880184Y-1292659D01*
X22935659Y-1421162D01*
X22946825Y-1451740D01*
X22962822Y-1498542D01*
X22975287Y-1539716D01*
X22984729Y-1578645D01*
X22991657Y-1618713D01*
X22996581Y-1663302D01*
X23000009Y-1715795D01*
X23002451Y-1779576D01*
X23003786Y-1830208D01*
X23005156Y-1927267D01*
X23004113Y-2011756D01*
X23000343Y-2087905D01*
X22993533Y-2159948D01*
X22983367Y-2232116D01*
X22969531Y-2308641D01*
X22967472Y-2319000D01*
X22932505Y-2461719D01*
X22885995Y-2601043D01*
X22828923Y-2735699D01*
X22762271Y-2864411D01*
X22687022Y-2985908D01*
X22604156Y-3098915D01*
X22514656Y-3202159D01*
X22419504Y-3294365D01*
X22319680Y-3374261D01*
X22216168Y-3440573D01*
X22109948Y-3492027D01*
X22045366Y-3515225D01*
X21986961Y-3532854D01*
X21937355Y-3546096D01*
X21892241Y-3555558D01*
X21847315Y-3561847D01*
X21798267Y-3565571D01*
X21740792Y-3567336D01*
X21672833Y-3567751D01*
X21613098Y-3567554D01*
X21566728Y-3566819D01*
X21530156Y-3565233D01*
X21499813Y-3562481D01*
X21472134Y-3558252D01*
X21443550Y-3552231D01*
X21414088Y-3545018D01*
X21354729Y-3528827D01*
X21297631Y-3510594D01*
X21240886Y-3489375D01*
X21182586Y-3464223D01*
X21120826Y-3434194D01*
X21053697Y-3398342D01*
X20979291Y-3355721D01*
X20895703Y-3305387D01*
X20801025Y-3246395D01*
X20762990Y-3222304D01*
X20711110Y-3189742D01*
X20660643Y-3158831D01*
X20614407Y-3131239D01*
X20575225Y-3108636D01*
X20545915Y-3092692D01*
X20535269Y-3087477D01*
X20480001Y-3066765D01*
X20413174Y-3048720D01*
X20340100Y-3034567D01*
X20267007Y-3025608D01*
X20199404Y-3025645D01*
X20135522Y-3036489D01*
X20076867Y-3056753D01*
X20024944Y-3085052D01*
X19981260Y-3119998D01*
X19947318Y-3160205D01*
X19924626Y-3204288D01*
X19914688Y-3250859D01*
X19919009Y-3298533D01*
X19932320Y-3333798D01*
X19958405Y-3370682D01*
X19996445Y-3406514D01*
X20041855Y-3438307D01*
X20090046Y-3463079D01*
X20136431Y-3477843D01*
X20157882Y-3480557D01*
X20188844Y-3480346D01*
X20229909Y-3477898D01*
X20276625Y-3473720D01*
X20324541Y-3468317D01*
X20369208Y-3462193D01*
X20406173Y-3455856D01*
X20430986Y-3449809D01*
X20432146Y-3449412D01*
X20478492Y-3438060D01*
X20520378Y-3437157D01*
X20555331Y-3445890D01*
X20580876Y-3463445D01*
X20594540Y-3489011D01*
X20596155Y-3503307D01*
X20591608Y-3526124D01*
X20576214Y-3549899D01*
X20563775Y-3563522D01*
X20545694Y-3580314D01*
X20527089Y-3592415D01*
X20503116Y-3602118D01*
X20468929Y-3611716D01*
X20454414Y-3615292D01*
X20400432Y-3625398D01*
X20336899Y-3632610D01*
X20268619Y-3636792D01*
X20200393Y-3637810D01*
X20137026Y-3635528D01*
X20083320Y-3629813D01*
X20064298Y-3626245D01*
X19974746Y-3601408D01*
X19900656Y-3570148D01*
X19841757Y-3532302D01*
X19797777Y-3487706D01*
X19776288Y-3453511D01*
X19752647Y-3399708D01*
X19738072Y-3347132D01*
X19731416Y-3289961D01*
X19731382Y-3226016D01*
X19735667Y-3167587D01*
X19744884Y-3121562D01*
X19761187Y-3083640D01*
X19786725Y-3049521D01*
X19823651Y-3014906D01*
X19846022Y-2996875D01*
X19924236Y-2942006D01*
X20000628Y-2901942D01*
X20078739Y-2875426D01*
X20162111Y-2861202D01*
X20237733Y-2857829D01*
X20301963Y-2860286D01*
X20365321Y-2867797D01*
X20429434Y-2881014D01*
X20495926Y-2900589D01*
X20566426Y-2927174D01*
X20642559Y-2961420D01*
X20725951Y-3003980D01*
X20818230Y-3055505D01*
X20921021Y-3116648D01*
X20990669Y-3159625D01*
X21082656Y-3215682D01*
X21163734Y-3261996D01*
X21236084Y-3299568D01*
X21301884Y-3329401D01*
X21363313Y-3352498D01*
X21422550Y-3369861D01*
X21470773Y-3380476D01*
X21603061Y-3397743D01*
X21732217Y-3398971D01*
X21857402Y-3384315D01*
X21977781Y-3353932D01*
X22092516Y-3307975D01*
X22200770Y-3246601D01*
X22204530Y-3244110D01*
X22263790Y-3199079D01*
X22327128Y-3141066D01*
X22392354Y-3072818D01*
X22457277Y-2997083D01*
X22519709Y-2916608D01*
X22577457Y-2834142D01*
X22628333Y-2752433D01*
X22670145Y-2674228D01*
X22685531Y-2640653D01*
X22745338Y-2487118D01*
X22790660Y-2337828D01*
X22821147Y-2194014D01*
X22829116Y-2138236D01*
X22833108Y-2089867D01*
X22835220Y-2028996D01*
X22835563Y-1959935D01*
X22834250Y-1886999D01*
X22831393Y-1814501D01*
X22827102Y-1746754D01*
X22821491Y-1688072D01*
X22816536Y-1652913D01*
X22785926Y-1522909D01*
X22739762Y-1399427D01*
X22678391Y-1283173D01*
X22602164Y-1174859D01*
X22552336Y-1117088D01*
X22495760Y-1062666D01*
X22432232Y-1014923D01*
X22359373Y-972505D01*
X22274801Y-934055D01*
X22176135Y-898218D01*
X22156766Y-891963D01*
X22107014Y-875188D01*
X22070723Y-860449D01*
X22044777Y-846323D01*
X22027650Y-832909D01*
X22005299Y-803227D01*
X21998693Y-773506D01*
X22006841Y-746287D01*
X22028752Y-724111D01*
X22063437Y-709519D01*
X22076775Y-706911D01*
X22120752Y-706270D01*
X22175343Y-714953D01*
X22175343Y-714953D01*
G37*
X22175343Y-714953D02*
X22237800Y-731877D01*
X22305375Y-755964D01*
X22375322Y-786132D01*
X22444893Y-821303D01*
X22511340Y-860395D01*
X22569823Y-900749D01*
X22659120Y-978128D01*
X22741133Y-1070000D01*
X22815081Y-1175225D01*
X22880184Y-1292659D01*
X22935659Y-1421162D01*
X22946825Y-1451740D01*
X22962822Y-1498542D01*
X22975287Y-1539716D01*
X22984729Y-1578645D01*
X22991657Y-1618713D01*
X22996581Y-1663302D01*
X23000009Y-1715795D01*
X23002451Y-1779576D01*
X23003786Y-1830208D01*
X23005156Y-1927267D01*
X23004113Y-2011756D01*
X23000343Y-2087905D01*
X22993533Y-2159948D01*
X22983367Y-2232116D01*
X22969531Y-2308641D01*
X22967472Y-2319000D01*
X22932505Y-2461719D01*
X22885995Y-2601043D01*
X22828923Y-2735699D01*
X22762271Y-2864411D01*
X22687022Y-2985908D01*
X22604156Y-3098915D01*
X22514656Y-3202159D01*
X22419504Y-3294365D01*
X22319680Y-3374261D01*
X22216168Y-3440573D01*
X22109948Y-3492027D01*
X22045366Y-3515225D01*
X21986961Y-3532854D01*
X21937355Y-3546096D01*
X21892241Y-3555558D01*
X21847315Y-3561847D01*
X21798267Y-3565571D01*
X21740792Y-3567336D01*
X21672833Y-3567751D01*
X21613098Y-3567554D01*
X21566728Y-3566819D01*
X21530156Y-3565233D01*
X21499813Y-3562481D01*
X21472134Y-3558252D01*
X21443550Y-3552231D01*
X21414088Y-3545018D01*
X21354729Y-3528827D01*
X21297631Y-3510594D01*
X21240886Y-3489375D01*
X21182586Y-3464223D01*
X21120826Y-3434194D01*
X21053697Y-3398342D01*
X20979291Y-3355721D01*
X20895703Y-3305387D01*
X20801025Y-3246395D01*
X20762990Y-3222304D01*
X20711110Y-3189742D01*
X20660643Y-3158831D01*
X20614407Y-3131239D01*
X20575225Y-3108636D01*
X20545915Y-3092692D01*
X20535269Y-3087477D01*
X20480001Y-3066765D01*
X20413174Y-3048720D01*
X20340100Y-3034567D01*
X20267007Y-3025608D01*
X20199404Y-3025645D01*
X20135522Y-3036489D01*
X20076867Y-3056753D01*
X20024944Y-3085052D01*
X19981260Y-3119998D01*
X19947318Y-3160205D01*
X19924626Y-3204288D01*
X19914688Y-3250859D01*
X19919009Y-3298533D01*
X19932320Y-3333798D01*
X19958405Y-3370682D01*
X19996445Y-3406514D01*
X20041855Y-3438307D01*
X20090046Y-3463079D01*
X20136431Y-3477843D01*
X20157882Y-3480557D01*
X20188844Y-3480346D01*
X20229909Y-3477898D01*
X20276625Y-3473720D01*
X20324541Y-3468317D01*
X20369208Y-3462193D01*
X20406173Y-3455856D01*
X20430986Y-3449809D01*
X20432146Y-3449412D01*
X20478492Y-3438060D01*
X20520378Y-3437157D01*
X20555331Y-3445890D01*
X20580876Y-3463445D01*
X20594540Y-3489011D01*
X20596155Y-3503307D01*
X20591608Y-3526124D01*
X20576214Y-3549899D01*
X20563775Y-3563522D01*
X20545694Y-3580314D01*
X20527089Y-3592415D01*
X20503116Y-3602118D01*
X20468929Y-3611716D01*
X20454414Y-3615292D01*
X20400432Y-3625398D01*
X20336899Y-3632610D01*
X20268619Y-3636792D01*
X20200393Y-3637810D01*
X20137026Y-3635528D01*
X20083320Y-3629813D01*
X20064298Y-3626245D01*
X19974746Y-3601408D01*
X19900656Y-3570148D01*
X19841757Y-3532302D01*
X19797777Y-3487706D01*
X19776288Y-3453511D01*
X19752647Y-3399708D01*
X19738072Y-3347132D01*
X19731416Y-3289961D01*
X19731382Y-3226016D01*
X19735667Y-3167587D01*
X19744884Y-3121562D01*
X19761187Y-3083640D01*
X19786725Y-3049521D01*
X19823651Y-3014906D01*
X19846022Y-2996875D01*
X19924236Y-2942006D01*
X20000628Y-2901942D01*
X20078739Y-2875426D01*
X20162111Y-2861202D01*
X20237733Y-2857829D01*
X20301963Y-2860286D01*
X20365321Y-2867797D01*
X20429434Y-2881014D01*
X20495926Y-2900589D01*
X20566426Y-2927174D01*
X20642559Y-2961420D01*
X20725951Y-3003980D01*
X20818230Y-3055505D01*
X20921021Y-3116648D01*
X20990669Y-3159625D01*
X21082656Y-3215682D01*
X21163734Y-3261996D01*
X21236084Y-3299568D01*
X21301884Y-3329401D01*
X21363313Y-3352498D01*
X21422550Y-3369861D01*
X21470773Y-3380476D01*
X21603061Y-3397743D01*
X21732217Y-3398971D01*
X21857402Y-3384315D01*
X21977781Y-3353932D01*
X22092516Y-3307975D01*
X22200770Y-3246601D01*
X22204530Y-3244110D01*
X22263790Y-3199079D01*
X22327128Y-3141066D01*
X22392354Y-3072818D01*
X22457277Y-2997083D01*
X22519709Y-2916608D01*
X22577457Y-2834142D01*
X22628333Y-2752433D01*
X22670145Y-2674228D01*
X22685531Y-2640653D01*
X22745338Y-2487118D01*
X22790660Y-2337828D01*
X22821147Y-2194014D01*
X22829116Y-2138236D01*
X22833108Y-2089867D01*
X22835220Y-2028996D01*
X22835563Y-1959935D01*
X22834250Y-1886999D01*
X22831393Y-1814501D01*
X22827102Y-1746754D01*
X22821491Y-1688072D01*
X22816536Y-1652913D01*
X22785926Y-1522909D01*
X22739762Y-1399427D01*
X22678391Y-1283173D01*
X22602164Y-1174859D01*
X22552336Y-1117088D01*
X22495760Y-1062666D01*
X22432232Y-1014923D01*
X22359373Y-972505D01*
X22274801Y-934055D01*
X22176135Y-898218D01*
X22156766Y-891963D01*
X22107014Y-875188D01*
X22070723Y-860449D01*
X22044777Y-846323D01*
X22027650Y-832909D01*
X22005299Y-803227D01*
X21998693Y-773506D01*
X22006841Y-746287D01*
X22028752Y-724111D01*
X22063437Y-709519D01*
X22076775Y-706911D01*
X22120752Y-706270D01*
X22175343Y-714953D01*
G36*
X17496473Y-2013319D02*
X17506480Y-2023316D01*
X17521831Y-2046198D01*
X17527722Y-2068968D01*
X17523333Y-2093423D01*
X17507841Y-2121360D01*
X17480426Y-2154577D01*
X17440265Y-2194872D01*
X17418993Y-2214712D01*
X17285329Y-2348176D01*
X17161821Y-2493178D01*
X17050226Y-2647347D01*
X16952297Y-2808309D01*
X16889558Y-2930615D01*
X16868169Y-2976856D01*
X16848717Y-3021434D01*
X16830412Y-3066634D01*
X16812463Y-3114739D01*
X16794078Y-3168034D01*
X16774466Y-3228802D01*
X16752838Y-3299328D01*
X16728401Y-3381897D01*
X16703430Y-3468125D01*
X16659115Y-3619540D01*
X16617500Y-3755644D01*
X16577996Y-3877734D01*
X16540008Y-3987111D01*
X16502945Y-4085071D01*
X16466215Y-4172915D01*
X16429226Y-4251940D01*
X16391386Y-4323445D01*
X16352102Y-4388729D01*
X16310783Y-4449090D01*
X16266836Y-4505827D01*
X16219670Y-4560238D01*
X16192010Y-4589780D01*
X16095514Y-4681339D01*
X15995370Y-4757939D01*
X15888533Y-4821540D01*
X15771957Y-4874106D01*
X15722208Y-4892380D01*
X15681757Y-4905734D01*
X15652128Y-4913412D01*
X15628470Y-4916155D01*
X15605938Y-4914707D01*
X15591939Y-4912329D01*
X15570108Y-4901073D01*
X15549380Y-4879444D01*
X15534584Y-4853586D01*
X15530266Y-4833888D01*
X15535540Y-4809760D01*
X15545083Y-4793362D01*
X15562034Y-4780852D01*
X15593295Y-4764535D01*
X15636903Y-4745288D01*
X15690896Y-4723990D01*
X15739328Y-4706389D01*
X15825106Y-4668101D01*
X15910389Y-4614304D01*
X15993795Y-4546398D01*
X16073944Y-4465785D01*
X16149455Y-4373865D01*
X16218946Y-4272040D01*
X16281035Y-4161710D01*
X16285903Y-4152033D01*
X16311503Y-4098030D01*
X16336322Y-4039896D01*
X16361084Y-3975561D01*
X16386513Y-3902956D01*
X16413334Y-3820012D01*
X16442272Y-3724661D01*
X16474050Y-3614833D01*
X16474173Y-3614399D01*
X16510775Y-3487334D01*
X16544433Y-3374681D01*
X16575907Y-3274326D01*
X16605955Y-3184157D01*
X16635334Y-3102062D01*
X16664803Y-3025927D01*
X16695120Y-2953641D01*
X16727043Y-2883091D01*
X16761329Y-2812164D01*
X16763928Y-2806948D01*
X16832945Y-2676984D01*
X16905376Y-2557875D01*
X16984002Y-2445778D01*
X17071603Y-2336850D01*
X17170959Y-2227248D01*
X17218991Y-2177947D01*
X17260987Y-2136164D01*
X17300706Y-2097573D01*
X17336077Y-2064114D01*
X17365032Y-2037725D01*
X17385501Y-2020344D01*
X17392933Y-2014995D01*
X17431394Y-1999165D01*
X17466545Y-1998653D01*
X17496473Y-2013319D01*
X17496473Y-2013319D01*
G37*
X17496473Y-2013319D02*
X17506480Y-2023316D01*
X17521831Y-2046198D01*
X17527722Y-2068968D01*
X17523333Y-2093423D01*
X17507841Y-2121360D01*
X17480426Y-2154577D01*
X17440265Y-2194872D01*
X17418993Y-2214712D01*
X17285329Y-2348176D01*
X17161821Y-2493178D01*
X17050226Y-2647347D01*
X16952297Y-2808309D01*
X16889558Y-2930615D01*
X16868169Y-2976856D01*
X16848717Y-3021434D01*
X16830412Y-3066634D01*
X16812463Y-3114739D01*
X16794078Y-3168034D01*
X16774466Y-3228802D01*
X16752838Y-3299328D01*
X16728401Y-3381897D01*
X16703430Y-3468125D01*
X16659115Y-3619540D01*
X16617500Y-3755644D01*
X16577996Y-3877734D01*
X16540008Y-3987111D01*
X16502945Y-4085071D01*
X16466215Y-4172915D01*
X16429226Y-4251940D01*
X16391386Y-4323445D01*
X16352102Y-4388729D01*
X16310783Y-4449090D01*
X16266836Y-4505827D01*
X16219670Y-4560238D01*
X16192010Y-4589780D01*
X16095514Y-4681339D01*
X15995370Y-4757939D01*
X15888533Y-4821540D01*
X15771957Y-4874106D01*
X15722208Y-4892380D01*
X15681757Y-4905734D01*
X15652128Y-4913412D01*
X15628470Y-4916155D01*
X15605938Y-4914707D01*
X15591939Y-4912329D01*
X15570108Y-4901073D01*
X15549380Y-4879444D01*
X15534584Y-4853586D01*
X15530266Y-4833888D01*
X15535540Y-4809760D01*
X15545083Y-4793362D01*
X15562034Y-4780852D01*
X15593295Y-4764535D01*
X15636903Y-4745288D01*
X15690896Y-4723990D01*
X15739328Y-4706389D01*
X15825106Y-4668101D01*
X15910389Y-4614304D01*
X15993795Y-4546398D01*
X16073944Y-4465785D01*
X16149455Y-4373865D01*
X16218946Y-4272040D01*
X16281035Y-4161710D01*
X16285903Y-4152033D01*
X16311503Y-4098030D01*
X16336322Y-4039896D01*
X16361084Y-3975561D01*
X16386513Y-3902956D01*
X16413334Y-3820012D01*
X16442272Y-3724661D01*
X16474050Y-3614833D01*
X16474173Y-3614399D01*
X16510775Y-3487334D01*
X16544433Y-3374681D01*
X16575907Y-3274326D01*
X16605955Y-3184157D01*
X16635334Y-3102062D01*
X16664803Y-3025927D01*
X16695120Y-2953641D01*
X16727043Y-2883091D01*
X16761329Y-2812164D01*
X16763928Y-2806948D01*
X16832945Y-2676984D01*
X16905376Y-2557875D01*
X16984002Y-2445778D01*
X17071603Y-2336850D01*
X17170959Y-2227248D01*
X17218991Y-2177947D01*
X17260987Y-2136164D01*
X17300706Y-2097573D01*
X17336077Y-2064114D01*
X17365032Y-2037725D01*
X17385501Y-2020344D01*
X17392933Y-2014995D01*
X17431394Y-1999165D01*
X17466545Y-1998653D01*
X17496473Y-2013319D01*
G36*
X15295294Y-3912031D02*
X15359333Y-3918787D01*
X15413376Y-3935170D01*
X15462048Y-3963288D01*
X15509974Y-4005247D01*
X15517975Y-4013484D01*
X15554405Y-4057804D01*
X15582464Y-4104325D01*
X15601999Y-4150963D01*
X15612858Y-4195640D01*
X15614885Y-4236275D01*
X15607929Y-4270785D01*
X15591835Y-4297092D01*
X15566451Y-4313114D01*
X15540351Y-4317133D01*
X15517699Y-4315463D01*
X15499938Y-4308715D01*
X15484324Y-4294284D01*
X15468113Y-4269563D01*
X15448561Y-4231946D01*
X15446736Y-4228233D01*
X15410983Y-4166874D01*
X15371731Y-4121999D01*
X15328583Y-4093446D01*
X15281145Y-4081050D01*
X15229020Y-4084651D01*
X15171814Y-4104084D01*
X15159339Y-4110051D01*
X15100941Y-4147450D01*
X15050544Y-4195842D01*
X15009650Y-4252418D01*
X14979763Y-4314369D01*
X14962384Y-4378888D01*
X14959015Y-4443164D01*
X14963453Y-4476319D01*
X14988393Y-4557030D01*
X15028214Y-4629754D01*
X15082712Y-4694197D01*
X15151685Y-4750062D01*
X15153500Y-4751284D01*
X15199546Y-4782864D01*
X15232855Y-4807731D01*
X15255299Y-4827734D01*
X15268747Y-4844723D01*
X15275072Y-4860549D01*
X15276266Y-4872651D01*
X15268756Y-4905124D01*
X15255484Y-4922884D01*
X15235112Y-4937310D01*
X15209739Y-4942412D01*
X15175172Y-4938735D01*
X15159585Y-4935348D01*
X15137515Y-4926862D01*
X15109176Y-4911724D01*
X15087618Y-4897905D01*
X15007465Y-4839046D01*
X14941868Y-4784019D01*
X14889428Y-4730984D01*
X14848747Y-4678103D01*
X14818425Y-4623537D01*
X14797064Y-4565448D01*
X14783263Y-4501997D01*
X14782486Y-4496919D01*
X14778430Y-4414059D01*
X14789864Y-4331166D01*
X14815465Y-4250239D01*
X14853910Y-4173275D01*
X14903879Y-4102272D01*
X14964048Y-4039229D01*
X15033096Y-3986145D01*
X15109700Y-3945017D01*
X15159828Y-3926576D01*
X15196697Y-3917072D01*
X15232877Y-3912297D01*
X15275662Y-3911469D01*
X15295294Y-3912031D01*
X15295294Y-3912031D01*
G37*
X15295294Y-3912031D02*
X15359333Y-3918787D01*
X15413376Y-3935170D01*
X15462048Y-3963288D01*
X15509974Y-4005247D01*
X15517975Y-4013484D01*
X15554405Y-4057804D01*
X15582464Y-4104325D01*
X15601999Y-4150963D01*
X15612858Y-4195640D01*
X15614885Y-4236275D01*
X15607929Y-4270785D01*
X15591835Y-4297092D01*
X15566451Y-4313114D01*
X15540351Y-4317133D01*
X15517699Y-4315463D01*
X15499938Y-4308715D01*
X15484324Y-4294284D01*
X15468113Y-4269563D01*
X15448561Y-4231946D01*
X15446736Y-4228233D01*
X15410983Y-4166874D01*
X15371731Y-4121999D01*
X15328583Y-4093446D01*
X15281145Y-4081050D01*
X15229020Y-4084651D01*
X15171814Y-4104084D01*
X15159339Y-4110051D01*
X15100941Y-4147450D01*
X15050544Y-4195842D01*
X15009650Y-4252418D01*
X14979763Y-4314369D01*
X14962384Y-4378888D01*
X14959015Y-4443164D01*
X14963453Y-4476319D01*
X14988393Y-4557030D01*
X15028214Y-4629754D01*
X15082712Y-4694197D01*
X15151685Y-4750062D01*
X15153500Y-4751284D01*
X15199546Y-4782864D01*
X15232855Y-4807731D01*
X15255299Y-4827734D01*
X15268747Y-4844723D01*
X15275072Y-4860549D01*
X15276266Y-4872651D01*
X15268756Y-4905124D01*
X15255484Y-4922884D01*
X15235112Y-4937310D01*
X15209739Y-4942412D01*
X15175172Y-4938735D01*
X15159585Y-4935348D01*
X15137515Y-4926862D01*
X15109176Y-4911724D01*
X15087618Y-4897905D01*
X15007465Y-4839046D01*
X14941868Y-4784019D01*
X14889428Y-4730984D01*
X14848747Y-4678103D01*
X14818425Y-4623537D01*
X14797064Y-4565448D01*
X14783263Y-4501997D01*
X14782486Y-4496919D01*
X14778430Y-4414059D01*
X14789864Y-4331166D01*
X14815465Y-4250239D01*
X14853910Y-4173275D01*
X14903879Y-4102272D01*
X14964048Y-4039229D01*
X15033096Y-3986145D01*
X15109700Y-3945017D01*
X15159828Y-3926576D01*
X15196697Y-3917072D01*
X15232877Y-3912297D01*
X15275662Y-3911469D01*
X15295294Y-3912031D01*
D11*
X3000000Y-9500000D03*
X3000000Y-6500000D03*
D12*
X1525000Y-8000000D03*
X4475000Y-8000000D03*
D13*
X27400000Y-5600000D03*
X28200000Y-5600000D03*
X29000000Y-5600000D03*
X29800000Y-5600000D03*
X30600000Y-5600000D03*
X30600000Y-3400000D03*
X29800000Y-3400000D03*
X29000000Y-3400000D03*
X28200000Y-3400000D03*
X27400000Y-3400000D03*
D14*
X21150000Y-6400000D03*
X21150000Y-7600000D03*
X22350000Y-6400000D03*
X22350000Y-7600000D03*
D15*
X20500000Y-5050000D03*
X21000000Y-5050000D03*
X21500000Y-5050000D03*
X22000000Y-5050000D03*
X22500000Y-5050000D03*
X23000000Y-5050000D03*
D16*
X23700000Y-5750000D03*
X23700000Y-6250000D03*
X23700000Y-6750000D03*
X23700000Y-7250000D03*
X23700000Y-7750000D03*
X23700000Y-8250000D03*
D15*
X23000000Y-8950000D03*
X22500000Y-8950000D03*
X22000000Y-8950000D03*
X21500000Y-8950000D03*
X21000000Y-8950000D03*
X20500000Y-8950000D03*
D16*
X19800000Y-8250000D03*
X19800000Y-7750000D03*
X19800000Y-7250000D03*
X19800000Y-6750000D03*
X19800000Y-6250000D03*
X19800000Y-5750000D03*
D17*
X21150000Y-6400000D03*
X22350000Y-6400000D03*
X21150000Y-7600000D03*
X22350000Y-7600000D03*
D18*
X30000000Y-17000000D03*
X30950000Y-19000000D03*
X29050000Y-19000000D03*
D19*
X47250000Y-2750000D03*
X2750000Y-2750000D03*
X2750000Y-21250000D03*
X47250000Y-21250000D03*
D20*
X30500000Y-7632000D03*
X30500000Y-9132000D03*
X17750000Y-13500000D03*
X17750000Y-12000000D03*
X19250000Y-12000000D03*
X19250000Y-13500000D03*
D21*
X32700000Y-15200000D03*
X30700000Y-15200000D03*
D22*
X26050000Y-1800000D03*
X24550000Y-1800000D03*
D20*
X26000000Y-5250000D03*
X26000000Y-3750000D03*
D22*
X25250000Y-15000000D03*
X26750000Y-15000000D03*
D23*
X20000000Y-16000000D03*
X20000000Y-18000000D03*
X18000000Y-18000000D03*
X18000000Y-16000000D03*
D24*
X28500000Y-13650000D03*
X28500000Y-15350000D03*
D18*
X22000000Y-15500000D03*
X21050000Y-13500000D03*
X22950000Y-13500000D03*
D25*
X24500000Y-2950000D03*
X24500000Y-4450000D03*
X36000000Y-8150000D03*
X36000000Y-9650000D03*
D26*
X36750000Y-21000000D03*
X35250000Y-21000000D03*
X23250000Y-18500000D03*
X21750000Y-18500000D03*
X21750000Y-17000000D03*
X23250000Y-17000000D03*
D27*
X34900000Y-4200000D03*
D28*
X34900000Y-3400000D03*
D27*
X34900000Y-1800000D03*
D28*
X34900000Y-2600000D03*
D27*
X33100000Y-4200000D03*
D28*
X33100000Y-2600000D03*
X33100000Y-3400000D03*
D27*
X33100000Y-1800000D03*
D29*
X27100000Y-17500000D03*
X27100000Y-16550000D03*
X27100000Y-18450000D03*
X24900000Y-18450000D03*
X24900000Y-17500000D03*
X24900000Y-16550000D03*
D30*
X33000000Y-7800000D03*
X32050000Y-7800000D03*
X33950000Y-7800000D03*
X33950000Y-10000000D03*
X33000000Y-10000000D03*
X32050000Y-10000000D03*
D31*
X34000000Y-17400000D03*
X34000000Y-18600000D03*
X34775000Y-17400000D03*
X34775000Y-18600000D03*
D32*
X35937500Y-17025000D03*
X35937500Y-17675000D03*
X35937500Y-18325000D03*
X35937500Y-18975000D03*
X32837500Y-18975000D03*
X32837500Y-18325000D03*
X32837500Y-17675000D03*
X32837500Y-17025000D03*
D20*
X1500000Y-14150000D03*
X1500000Y-15650000D03*
D33*
X43100000Y-18500000D03*
X43100000Y-13500000D03*
D34*
X41000000Y-15000000D03*
X41000000Y-17000000D03*
D25*
X3000000Y-15650000D03*
X3000000Y-14150000D03*
D35*
X15400000Y-7150000D03*
D36*
X14300000Y-7150000D03*
X13200000Y-7150000D03*
X12100000Y-7150000D03*
X11000000Y-7150000D03*
X9900000Y-7150000D03*
X8800000Y-7150000D03*
X7700000Y-7150000D03*
D35*
X6600000Y-7150000D03*
X6600000Y-16750000D03*
D36*
X7700000Y-16750000D03*
X8800000Y-16750000D03*
X9900000Y-16750000D03*
X11000000Y-16750000D03*
X12100000Y-16750000D03*
X13200000Y-16750000D03*
X14300000Y-16750000D03*
D35*
X15400000Y-16750000D03*
D33*
X43100000Y-10500000D03*
X43100000Y-5500000D03*
D34*
X41000000Y-7000000D03*
X41000000Y-9000000D03*
D37*
X23100000Y-11100000D03*
X28100000Y-11100000D03*
D38*
X31730000Y-13135000D03*
X31730000Y-11865000D03*
X33000000Y-13135000D03*
X33000000Y-11865000D03*
X34270000Y-13135000D03*
X34270000Y-11865000D03*
D39*
X26850000Y-13100000D03*
X24950000Y-13100000D03*
D26*
X1450000Y-11300000D03*
X2950000Y-11300000D03*
D40*
X13080000Y-1750000D03*
X7920000Y-1750000D03*
X7920000Y-3750000D03*
X13080000Y-3750000D03*
D41*
X19200000Y-10500000D03*
X17800000Y-10500000D03*
D42*
X18500000Y-12700000D03*
X20600000Y-12000000D03*
X21000000Y-4100000D03*
X23441757Y-3641757D03*
X28000000Y-4100000D03*
X24500000Y-800000D03*
X33200000Y-6300000D03*
X31400000Y-2354000D03*
X1500000Y-16900000D03*
X15408871Y-8680496D03*
X4480094Y-5318684D03*
X3001359Y-5318684D03*
X1522624Y-5307131D03*
X8812326Y-15207725D03*
X6582671Y-15207725D03*
X11100000Y-3750000D03*
X36558106Y-12474807D03*
D43*
X18008499Y-19104168D03*
X28500000Y-12800000D03*
X34000000Y-15200000D03*
D42*
X20000000Y-19100000D03*
X26000000Y-17500000D03*
X37700000Y-21000000D03*
X26700000Y-2900000D03*
X27100000Y-4800000D03*
X31500000Y-8900000D03*
X18200006Y-9000000D03*
D43*
X18462214Y-4296294D03*
X27903928Y-2003306D03*
X32399982Y-14007771D03*
X35700000Y-5000000D03*
D42*
X19500000Y-15000000D03*
X29200000Y-4252432D03*
X29389550Y-7467220D03*
X29664951Y-9444000D03*
X30339368Y-4600726D03*
X13900000Y-13400000D03*
X24831168Y-9558034D03*
X31100000Y-4700000D03*
X28100000Y-6500000D03*
X20958314Y-11045960D03*
X13900000Y-14200000D03*
X24887891Y-10465611D03*
X28700000Y-2400000D03*
X20300000Y-10527110D03*
X26952698Y-7845302D03*
X33735341Y-10875341D03*
X27178000Y-8890000D03*
X31005846Y-9965066D03*
X10525357Y-1827018D03*
X17717314Y-7032812D03*
D44*
X19250000Y-13500000D02*
X18500000Y-13500000D01*
X18500000Y-13500000D02*
X17750000Y-13500000D01*
D45*
X18500000Y-13500000D02*
X18500000Y-12700000D01*
X22200000Y-12000000D02*
X20600000Y-12000000D01*
X23100000Y-11100000D02*
X22200000Y-12000000D01*
X21000000Y-5050000D02*
X21000000Y-4100000D01*
X23700000Y-3000000D02*
X23741756Y-3041756D01*
X23741756Y-3041756D02*
X23741756Y-3341758D01*
X23741756Y-3341758D02*
X23441757Y-3641757D01*
X23700000Y-2097600D02*
X23700000Y-3000000D01*
X24550000Y-1800000D02*
X23997600Y-1800000D01*
X23997600Y-1800000D02*
X23700000Y-2097600D01*
X25472600Y-3750000D02*
X25364357Y-3641757D01*
X26000000Y-3750000D02*
X25472600Y-3750000D01*
X25364357Y-3641757D02*
X23441757Y-3641757D01*
D44*
X28200000Y-4000000D02*
X28100000Y-4100000D01*
X28100000Y-4100000D02*
X28000000Y-4100000D01*
X28000000Y-4300000D02*
X28000000Y-4100000D01*
X28200000Y-4000000D02*
X28200000Y-3400000D01*
X28200000Y-4400000D02*
X28200000Y-4000000D01*
X24550000Y-850000D02*
X24500000Y-800000D01*
X24550000Y-1800000D02*
X24550000Y-850000D01*
X28606433Y-4806433D02*
X28200000Y-4400000D01*
X29465921Y-4806433D02*
X28606433Y-4806433D01*
X29700000Y-4600000D02*
X29672354Y-4600000D01*
X29785367Y-4514633D02*
X29700000Y-4600000D01*
X29672354Y-4600000D02*
X29465921Y-4806433D01*
X30027875Y-4072125D02*
X29785367Y-4314633D01*
X29785367Y-4314633D02*
X29785367Y-4514633D01*
D45*
X30304001Y-4003201D02*
X30235077Y-4072125D01*
X30235077Y-4072125D02*
X30027875Y-4072125D01*
D44*
X30600000Y-3707202D02*
X30304001Y-4003201D01*
X30600000Y-3400000D02*
X30600000Y-3707202D01*
D46*
X32780000Y-6720000D02*
X33200000Y-6300000D01*
X32780000Y-6800000D02*
X32780000Y-6720000D01*
D44*
X30600000Y-3154000D02*
X31400000Y-2354000D01*
X30600000Y-3400000D02*
X30600000Y-3154000D01*
D47*
X1500000Y-15650000D02*
X1500000Y-16900000D01*
X15400000Y-8671625D02*
X15408871Y-8680496D01*
X15400000Y-7150000D02*
X15400000Y-8671625D01*
X4475000Y-5323778D02*
X4480094Y-5318684D01*
X4475000Y-8000000D02*
X4475000Y-5323778D01*
X3000000Y-5320043D02*
X3001359Y-5318684D01*
X3000000Y-6500000D02*
X3000000Y-5320043D01*
X1525000Y-5309507D02*
X1522624Y-5307131D01*
X1525000Y-8000000D02*
X1525000Y-5309507D01*
X8800000Y-15220051D02*
X8812326Y-15207725D01*
X8800000Y-16750000D02*
X8800000Y-15220051D01*
X6600000Y-15225054D02*
X6582671Y-15207725D01*
X6600000Y-16750000D02*
X6600000Y-15225054D01*
D44*
X8848200Y-3750000D02*
X11100000Y-3750000D01*
X13080000Y-3750000D02*
X11100000Y-3750000D01*
X7920000Y-3750000D02*
X8848200Y-3750000D01*
X19250000Y-13475000D02*
X19250000Y-13500000D01*
D45*
X36546917Y-12463618D02*
X36558106Y-12474807D01*
X34941382Y-12463618D02*
X36546917Y-12463618D01*
X34270000Y-13135000D02*
X34941382Y-12463618D01*
D48*
X30500000Y-7632000D02*
X31125000Y-7632000D01*
X31125000Y-7632000D02*
X31300000Y-7457000D01*
X31300000Y-7457000D02*
X31300000Y-7200000D01*
D44*
X18000000Y-19095669D02*
X18008499Y-19104168D01*
X18000000Y-18000000D02*
X18000000Y-19095669D01*
D48*
X28500000Y-13650000D02*
X28500000Y-12800000D01*
X32700000Y-15200000D02*
X34000000Y-15200000D01*
X20000000Y-18000000D02*
X20000000Y-19100000D01*
X24900000Y-17500000D02*
X26000000Y-17500000D01*
X36750000Y-21000000D02*
X37700000Y-21000000D01*
X24900000Y-17500000D02*
X24300000Y-17500000D01*
X23250000Y-17000000D02*
X23750000Y-17000000D01*
X23750000Y-17000000D02*
X24250000Y-17500000D01*
X24250000Y-17500000D02*
X24300000Y-17500000D01*
X32780000Y-6800000D02*
X31700000Y-6800000D01*
X31300000Y-7200000D02*
X31700000Y-6800000D01*
X33000000Y-7800000D02*
X33000000Y-7020000D01*
X33000000Y-7020000D02*
X32780000Y-6800000D01*
D45*
X19100000Y-4200000D02*
X19003706Y-4296294D01*
X19003706Y-4296294D02*
X18462214Y-4296294D01*
X20227400Y-4200000D02*
X19100000Y-4200000D01*
X20500000Y-5050000D02*
X20500000Y-4472600D01*
X20500000Y-4472600D02*
X20227400Y-4200000D01*
X26700000Y-2900000D02*
X26700000Y-2056612D01*
X26700000Y-2056612D02*
X26753306Y-2003306D01*
D44*
X27400000Y-4996800D02*
X27203200Y-4800000D01*
X27203200Y-4800000D02*
X27100000Y-4800000D01*
X27400000Y-5600000D02*
X27400000Y-4996800D01*
D47*
X19500000Y-15000000D02*
X18195200Y-15000000D01*
X18195200Y-15000000D02*
X18000000Y-15195200D01*
X18000000Y-15195200D02*
X18000000Y-16000000D01*
X21000000Y-15125000D02*
X21870200Y-14254800D01*
X21870200Y-14254800D02*
X22245200Y-14254800D01*
X22245200Y-14254800D02*
X22950000Y-13550000D01*
X22950000Y-13550000D02*
X22950000Y-13500000D01*
X20000000Y-16000000D02*
X20875000Y-15125000D01*
X20875000Y-15125000D02*
X21000000Y-15125000D01*
X21000000Y-17550000D02*
X21000000Y-15125000D01*
X21750000Y-18500000D02*
X21750000Y-18300000D01*
X21750000Y-18300000D02*
X21000000Y-17550000D01*
X17775742Y-9000000D02*
X18200006Y-9000000D01*
X8800000Y-10300000D02*
X16375724Y-10300000D01*
X16375724Y-10300000D02*
X17675724Y-9000000D01*
X17675724Y-9000000D02*
X17775742Y-9000000D01*
X8800000Y-10300000D02*
X7700000Y-10300000D01*
X8800000Y-7150000D02*
X8800000Y-8354800D01*
X8800000Y-8354800D02*
X8800000Y-10300000D01*
X7700000Y-10300000D02*
X7200000Y-10300000D01*
X7700000Y-7150000D02*
X7700000Y-10300000D01*
X7200000Y-10300000D02*
X6600000Y-9700000D01*
X6600000Y-9700000D02*
X6600000Y-7150000D01*
D46*
X25550000Y-2950000D02*
X26050000Y-2450000D01*
X26050000Y-2450000D02*
X26050000Y-1800000D01*
X24500000Y-2950000D02*
X25550000Y-2950000D01*
D47*
X26050000Y-1800000D02*
X26550000Y-1800000D01*
X26550000Y-1800000D02*
X26753306Y-2003306D01*
D45*
X31730000Y-13135000D02*
X31730000Y-13337789D01*
X31730000Y-13337789D02*
X32399982Y-14007771D01*
D48*
X31675000Y-9100000D02*
X31643000Y-9132000D01*
X31643000Y-9132000D02*
X30500000Y-9132000D01*
D47*
X27903928Y-2003306D02*
X26753306Y-2003306D01*
X26753306Y-2003306D02*
X26750000Y-2000000D01*
D44*
X20000000Y-16000000D02*
X18000000Y-16000000D01*
X20125000Y-16000000D02*
X20000000Y-16000000D01*
X22950000Y-13500000D02*
X23600000Y-13500000D01*
X24950000Y-13100000D02*
X24396800Y-13100000D01*
X24396800Y-13100000D02*
X23996800Y-13500000D01*
X23996800Y-13500000D02*
X23600000Y-13500000D01*
D48*
X35700000Y-4200000D02*
X35700000Y-5000000D01*
X35700000Y-3500000D02*
X35700000Y-4200000D01*
X34900000Y-4200000D02*
X35700000Y-4200000D01*
X35700000Y-2600000D02*
X35700000Y-3500000D01*
X34900000Y-3400000D02*
X35600000Y-3400000D01*
X35600000Y-3400000D02*
X35700000Y-3500000D01*
X35700000Y-1900000D02*
X35700000Y-2600000D01*
X34900000Y-2600000D02*
X35550000Y-2600000D01*
X35550000Y-2600000D02*
X35700000Y-2600000D01*
X35600000Y-1800000D02*
X35700000Y-1900000D01*
X34900000Y-1800000D02*
X35600000Y-1800000D01*
X31675000Y-9100000D02*
X32880000Y-9100000D01*
X32880000Y-9100000D02*
X33000000Y-9220000D01*
X33000000Y-9220000D02*
X33000000Y-10000000D01*
D44*
X17750000Y-12000000D02*
X17750000Y-11400000D01*
X17800000Y-10500000D02*
X17800000Y-11253200D01*
X17800000Y-11253200D02*
X17750000Y-11303200D01*
X17750000Y-11303200D02*
X17750000Y-11400000D01*
D45*
X18200000Y-9850000D02*
X17800000Y-10250000D01*
D44*
X20500000Y-8950000D02*
X20500000Y-9300000D01*
X20500000Y-9300000D02*
X20225400Y-9574600D01*
X20225400Y-9574600D02*
X18475400Y-9574600D01*
X18475400Y-9574600D02*
X18200000Y-9850000D01*
D45*
X17800000Y-10250000D02*
X17800000Y-10500000D01*
D44*
X19250000Y-12000000D02*
X19250000Y-11400000D01*
X19200000Y-10500000D02*
X19200000Y-11253200D01*
X19200000Y-11253200D02*
X19250000Y-11303200D01*
X19250000Y-11303200D02*
X19250000Y-11400000D01*
D45*
X19595190Y-9930210D02*
X19200000Y-10300000D01*
D44*
X21000000Y-8950000D02*
X21000000Y-9578200D01*
X21000000Y-9578200D02*
X20647990Y-9930210D01*
X20647990Y-9930210D02*
X20564177Y-9930210D01*
X20564177Y-9930210D02*
X19595190Y-9930210D01*
D45*
X19200000Y-10300000D02*
X19200000Y-10500000D01*
D48*
X28100000Y-17500000D02*
X28100000Y-17300000D01*
X28100000Y-18230000D02*
X28100000Y-17500000D01*
X27100000Y-17500000D02*
X28100000Y-17500000D01*
X28100000Y-17300000D02*
X28400000Y-17000000D01*
X28400000Y-17000000D02*
X30000000Y-17000000D01*
X27100000Y-18450000D02*
X27880000Y-18450000D01*
X27880000Y-18450000D02*
X28100000Y-18230000D01*
X30000000Y-17000000D02*
X30000000Y-15900000D01*
X30000000Y-15900000D02*
X30700000Y-15200000D01*
X32000000Y-17700000D02*
X32000000Y-17100000D01*
X32000000Y-18062500D02*
X32000000Y-17700000D01*
X32837500Y-17675000D02*
X32262500Y-17675000D01*
X32262500Y-17675000D02*
X32237500Y-17700000D01*
X32237500Y-17700000D02*
X32000000Y-17700000D01*
X31800000Y-17000000D02*
X30000000Y-17000000D01*
X31900000Y-17000000D02*
X31800000Y-17000000D01*
X32837500Y-17025000D02*
X31825000Y-17025000D01*
X31825000Y-17025000D02*
X31800000Y-17000000D01*
X32000000Y-17100000D02*
X31900000Y-17000000D01*
X32837500Y-18325000D02*
X32262500Y-18325000D01*
X32262500Y-18325000D02*
X32000000Y-18062500D01*
D45*
X28200000Y-5600000D02*
X28200000Y-5047600D01*
X28200000Y-5047600D02*
X27423799Y-4271399D01*
X27423799Y-4271399D02*
X26846271Y-4271399D01*
X26000000Y-5250000D02*
X26000000Y-5117670D01*
X26000000Y-5117670D02*
X26846271Y-4271399D01*
D48*
X22000000Y-15500000D02*
X24425000Y-15500000D01*
X24425000Y-15500000D02*
X24900000Y-15975000D01*
X24900000Y-16550000D02*
X24900000Y-16000000D01*
X25250000Y-15000000D02*
X25250000Y-15625000D01*
X25250000Y-15625000D02*
X24900000Y-15975000D01*
X24900000Y-15975000D02*
X24900000Y-16000000D01*
D44*
X26750000Y-15000000D02*
X26750000Y-14300000D01*
X26850000Y-13100000D02*
X26850000Y-14200000D01*
X26850000Y-14200000D02*
X26750000Y-14300000D01*
D48*
X27100000Y-16550000D02*
X27100000Y-15975000D01*
X27100000Y-15975000D02*
X26750000Y-15625000D01*
X26750000Y-15000000D02*
X26750000Y-15625000D01*
X26750000Y-15000000D02*
X27400000Y-15000000D01*
X28500000Y-15350000D02*
X27850000Y-15350000D01*
X27850000Y-15350000D02*
X27500000Y-15000000D01*
X27500000Y-15000000D02*
X27400000Y-15000000D01*
D44*
X29800000Y-3400000D02*
X29800000Y-3652432D01*
X29800000Y-3652432D02*
X29200000Y-4252432D01*
D47*
X29200020Y-4252412D02*
X29200000Y-4252432D01*
D44*
X29664951Y-7742621D02*
X29389550Y-7467220D01*
X29664951Y-9444000D02*
X29664951Y-7742621D01*
D48*
X35000000Y-19800000D02*
X35250000Y-20050000D01*
X35250000Y-20050000D02*
X35250000Y-21000000D01*
X33237500Y-19800000D02*
X35000000Y-19800000D01*
X32837500Y-18975000D02*
X32837500Y-19400000D01*
X32837500Y-19400000D02*
X33237500Y-19800000D01*
X30950000Y-19000000D02*
X31700000Y-19000000D01*
X32837500Y-18975000D02*
X31725000Y-18975000D01*
X31725000Y-18975000D02*
X31700000Y-19000000D01*
X36800000Y-18687500D02*
X36800000Y-18100000D01*
X35937500Y-18975000D02*
X36512500Y-18975000D01*
X36512500Y-18975000D02*
X36800000Y-18687500D01*
X36575000Y-18325000D02*
X36800000Y-18100000D01*
X36800000Y-18100000D02*
X36800000Y-17387500D01*
X35937500Y-18325000D02*
X36575000Y-18325000D01*
X36800000Y-17025000D02*
X37075000Y-17025000D01*
X35937500Y-17025000D02*
X36800000Y-17025000D01*
X35937500Y-17675000D02*
X36512500Y-17675000D01*
X36512500Y-17675000D02*
X36800000Y-17387500D01*
X36800000Y-17387500D02*
X36800000Y-17025000D01*
X41000000Y-17000000D02*
X37100000Y-17000000D01*
X37075000Y-17025000D02*
X37100000Y-17000000D01*
D45*
X23000000Y-5050000D02*
X23000000Y-4600000D01*
X23000000Y-4600000D02*
X23095190Y-4504810D01*
X23095190Y-4504810D02*
X23842790Y-4504810D01*
X23842790Y-4504810D02*
X23897600Y-4450000D01*
X23897600Y-4450000D02*
X24500000Y-4450000D01*
X25062739Y-5462739D02*
X24500000Y-4900000D01*
X24500000Y-4900000D02*
X24500000Y-4450000D01*
X25645851Y-6709369D02*
X25062739Y-6126257D01*
X25062739Y-6126257D02*
X25062739Y-5462739D01*
X28068536Y-9095470D02*
X30352256Y-11379190D01*
X32377699Y-11242699D02*
X33000000Y-11865000D01*
X28068535Y-7747743D02*
X28068536Y-9095470D01*
X25645851Y-6709369D02*
X27030162Y-6709370D01*
X27030162Y-6709370D02*
X28068535Y-7747743D01*
X30352256Y-11379190D02*
X31320810Y-11379190D01*
X31320810Y-11379190D02*
X31457301Y-11242699D01*
X31457301Y-11242699D02*
X32377699Y-11242699D01*
D48*
X37050000Y-8500000D02*
X37600000Y-8500000D01*
X39310051Y-7700000D02*
X38400000Y-7700000D01*
X38400000Y-7700000D02*
X37600000Y-8500000D01*
X41000000Y-7000000D02*
X40010051Y-7000000D01*
X40010051Y-7000000D02*
X39310051Y-7700000D01*
X36000000Y-8150000D02*
X36700000Y-8150000D01*
X36700000Y-8150000D02*
X37050000Y-8500000D01*
X33950000Y-8580000D02*
X34100000Y-8730000D01*
X35150000Y-8150000D02*
X34570000Y-8730000D01*
X34570000Y-8730000D02*
X34100000Y-8730000D01*
X36000000Y-8150000D02*
X35150000Y-8150000D01*
X33950000Y-7800000D02*
X33950000Y-8580000D01*
X39200000Y-8200000D02*
X40000000Y-9000000D01*
X38600000Y-8200000D02*
X39200000Y-8200000D01*
X37000000Y-9100000D02*
X37700000Y-9100000D01*
X37700000Y-9100000D02*
X38600000Y-8200000D01*
X36450000Y-9650000D02*
X37000000Y-9100000D01*
X36000000Y-9650000D02*
X36450000Y-9650000D01*
X40000000Y-9000000D02*
X41000000Y-9000000D01*
X33933317Y-9132410D02*
X34782410Y-9132410D01*
X34782410Y-9132410D02*
X35300000Y-9650000D01*
X35300000Y-9650000D02*
X36000000Y-9650000D01*
X32050000Y-8580000D02*
X32167590Y-8697590D01*
X32050000Y-7800000D02*
X32050000Y-8580000D01*
X32167590Y-8697590D02*
X33498497Y-8697590D01*
X33498497Y-8697590D02*
X33933317Y-9132410D01*
X22500000Y-18300000D02*
X22700000Y-18500000D01*
X22700000Y-18500000D02*
X23250000Y-18500000D01*
X22500000Y-17250000D02*
X22500000Y-18300000D01*
X21750000Y-17000000D02*
X22250000Y-17000000D01*
X22250000Y-17000000D02*
X22500000Y-17250000D01*
X24900000Y-18450000D02*
X23300000Y-18450000D01*
X23300000Y-18450000D02*
X23250000Y-18500000D01*
D44*
X32700000Y-2600000D02*
X33100000Y-2600000D01*
X31596800Y-3203200D02*
X32200000Y-2600000D01*
X32200000Y-2600000D02*
X32700000Y-2600000D01*
X30950801Y-4145999D02*
X31596800Y-3500000D01*
X31596800Y-3500000D02*
X31596800Y-3203200D01*
X29800000Y-5600000D02*
X29800000Y-5140094D01*
X29800000Y-5140094D02*
X30339368Y-4600726D01*
X30339368Y-4600726D02*
X30794095Y-4145999D01*
X30794095Y-4145999D02*
X30950801Y-4145999D01*
X14300000Y-16750000D02*
X14300000Y-14944390D01*
X14300000Y-14944390D02*
X14454001Y-14790389D01*
X14454001Y-14790389D02*
X14454001Y-13954001D01*
X14454001Y-13954001D02*
X14199999Y-13699999D01*
X14199999Y-13699999D02*
X13900000Y-13400000D01*
X23000000Y-9564710D02*
X23125679Y-9690389D01*
X23000000Y-8950000D02*
X23000000Y-9564710D01*
X23125679Y-9690389D02*
X23708001Y-9690390D01*
X23708001Y-9690390D02*
X24018088Y-10000477D01*
X24018088Y-10000477D02*
X24388725Y-10000477D01*
X24388725Y-10000477D02*
X24831168Y-9558034D01*
X33100000Y-1800000D02*
X29900000Y-1800000D01*
X29900000Y-1800000D02*
X29479811Y-2220189D01*
D48*
X29000000Y-2700000D02*
X29000000Y-3400000D01*
D44*
X31100000Y-4600000D02*
X32300000Y-3400000D01*
X31100000Y-4700000D02*
X31100000Y-4600000D01*
X32300000Y-3400000D02*
X32400000Y-3400000D01*
X32400000Y-3400000D02*
X33100000Y-3400000D01*
X30600000Y-5600000D02*
X30600000Y-5200000D01*
X30600000Y-5200000D02*
X31100000Y-4700000D01*
X30900000Y-6400000D02*
X29150000Y-6400000D01*
X29150000Y-6400000D02*
X29000000Y-6250000D01*
X32102908Y-4200000D02*
X31654001Y-4648907D01*
X31654001Y-4648907D02*
X31654001Y-5645999D01*
X31654001Y-5645999D02*
X30900000Y-6400000D01*
X33100000Y-4200000D02*
X32102908Y-4200000D01*
D48*
X29000000Y-6250000D02*
X29000000Y-5600000D01*
D44*
X28750000Y-6500000D02*
X28100000Y-6500000D01*
X29000000Y-6250000D02*
X28750000Y-6500000D01*
X20958314Y-11045960D02*
X21301213Y-10703061D01*
X21301213Y-10703061D02*
X21301213Y-10282803D01*
X21301213Y-10282803D02*
X21855609Y-9728407D01*
X21855609Y-9728407D02*
X21855610Y-9722590D01*
X21855610Y-9722590D02*
X22000000Y-9578200D01*
X22000000Y-9578200D02*
X22000000Y-8950000D01*
X13900000Y-14946800D02*
X13900000Y-14200000D01*
X13200000Y-15646800D02*
X13900000Y-14946800D01*
X13200000Y-16750000D02*
X13200000Y-15646800D01*
X23980314Y-10465611D02*
X24887891Y-10465611D01*
X23560702Y-10045999D02*
X23980314Y-10465611D01*
X22500000Y-9578200D02*
X22967799Y-10045999D01*
X22500000Y-8950000D02*
X22500000Y-9578200D01*
X22967799Y-10045999D02*
X23560702Y-10045999D01*
X29000000Y-2700000D02*
X28700000Y-2400000D01*
X20945603Y-10135505D02*
X21500000Y-9581108D01*
X20945603Y-10324949D02*
X20945603Y-10135505D01*
X20821493Y-10449059D02*
X20945603Y-10324949D01*
X20671801Y-10449059D02*
X20821493Y-10449059D01*
X20593750Y-10527110D02*
X20671801Y-10449059D01*
X20300000Y-10527110D02*
X20593750Y-10527110D01*
X21500000Y-9581108D02*
X21500000Y-8950000D01*
D48*
X29479811Y-2220189D02*
X29000000Y-2700000D01*
D47*
X1500000Y-14150000D02*
X1500000Y-11350000D01*
X1500000Y-11350000D02*
X1450000Y-11300000D01*
X3000000Y-14150000D02*
X1500000Y-14150000D01*
D44*
X4000000Y-18500000D02*
X3000000Y-17500000D01*
X3000000Y-17500000D02*
X3000000Y-15650000D01*
X10500000Y-18500000D02*
X4000000Y-18500000D01*
X11000000Y-18000000D02*
X10500000Y-18500000D01*
X11000000Y-16750000D02*
X11000000Y-18000000D01*
D49*
X3000000Y-9500000D02*
X3000000Y-11250000D01*
X3000000Y-11250000D02*
X2950000Y-11300000D01*
X3000000Y-12200000D02*
X3000000Y-11350000D01*
X3000000Y-11350000D02*
X2950000Y-11300000D01*
X3800000Y-13000000D02*
X3000000Y-12200000D01*
X6100000Y-13000000D02*
X3800000Y-13000000D01*
X7700000Y-14600000D02*
X6100000Y-13000000D01*
X7700000Y-16750000D02*
X7700000Y-14600000D01*
D44*
X24590554Y-7009446D02*
X24590554Y-6640554D01*
X24925498Y-7344390D02*
X24590554Y-7009446D01*
X26135298Y-7344390D02*
X24925498Y-7344390D01*
X26336211Y-7545303D02*
X26135298Y-7344390D01*
X26652699Y-7545303D02*
X26336211Y-7545303D01*
X26952698Y-7845302D02*
X26652699Y-7545303D01*
X24590554Y-6640554D02*
X24200000Y-6250000D01*
X24200000Y-6250000D02*
X23700000Y-6250000D01*
D46*
X33950000Y-10660682D02*
X33735341Y-10875341D01*
X33950000Y-10000000D02*
X33950000Y-10660682D01*
D44*
X26500000Y-8212000D02*
X27178000Y-8890000D01*
X24778200Y-7700000D02*
X25988000Y-7700000D01*
X25988000Y-7700000D02*
X26500000Y-8212000D01*
X23700000Y-7250000D02*
X24328200Y-7250000D01*
X24328200Y-7250000D02*
X24778200Y-7700000D01*
D46*
X31040780Y-10000000D02*
X31005846Y-9965066D01*
X32050000Y-10000000D02*
X31040780Y-10000000D01*
D45*
X25367548Y-6000000D02*
X25772108Y-6404560D01*
X25367548Y-6000000D02*
X25367548Y-4206066D01*
X25367548Y-4206066D02*
X25132881Y-3971399D01*
X25132881Y-3971399D02*
X23859669Y-3971399D01*
X23859669Y-3971399D02*
X23631067Y-4200001D01*
X32993895Y-10937889D02*
X33622301Y-11566295D01*
X31331045Y-10937889D02*
X32993895Y-10937889D01*
X33622301Y-12177699D02*
X33287301Y-12512699D01*
X31194554Y-11074380D02*
X31331045Y-10937889D01*
X30478512Y-11074380D02*
X31194554Y-11074380D01*
X28400000Y-8995868D02*
X30478512Y-11074380D01*
X28400000Y-7648144D02*
X28400000Y-8995868D01*
X27156418Y-6404560D02*
X28400000Y-7648144D01*
X33622301Y-11566295D02*
X33622301Y-12177699D01*
X31865000Y-11865000D02*
X31730000Y-11865000D01*
X25772108Y-6404560D02*
X27156418Y-6404560D01*
X22772600Y-4200000D02*
X23631067Y-4200001D01*
X22500000Y-4472600D02*
X22772600Y-4200000D01*
X22500000Y-5050000D02*
X22500000Y-4472600D01*
X33287301Y-12512699D02*
X32512699Y-12512699D01*
X32512699Y-12512699D02*
X31865000Y-11865000D01*
X27763726Y-9221726D02*
X30226000Y-11684000D01*
X27763726Y-7874000D02*
X27763726Y-9221726D01*
X26903906Y-7014180D02*
X27763726Y-7874000D01*
X25431166Y-7014180D02*
X26903906Y-7014180D01*
X24166986Y-5750000D02*
X25431166Y-7014180D01*
X23700000Y-5750000D02*
X24166986Y-5750000D01*
X32835000Y-13135000D02*
X33000000Y-13135000D01*
X30226000Y-11684000D02*
X30789918Y-11684000D01*
X31107699Y-12163705D02*
X31431295Y-12487301D01*
X30789918Y-11684000D02*
X31107699Y-12001781D01*
X32003307Y-12487301D02*
X32416006Y-12900000D01*
X31107699Y-12001781D02*
X31107699Y-12163705D01*
X31431295Y-12487301D02*
X32003307Y-12487301D01*
X32416006Y-12900000D02*
X32600000Y-12900000D01*
X32600000Y-12900000D02*
X32835000Y-13135000D01*
D44*
X10525357Y-1827018D02*
X7997018Y-1827018D01*
X7997018Y-1827018D02*
X7920000Y-1750000D01*
X10525357Y-1827018D02*
X13002982Y-1827018D01*
X13002982Y-1827018D02*
X13080000Y-1750000D01*
X17934502Y-7250000D02*
X17717314Y-7032812D01*
X19800000Y-7250000D02*
X17934502Y-7250000D01*
X14300000Y-7150000D02*
X14300000Y-8981044D01*
X14300000Y-8981044D02*
X14981424Y-9662468D01*
X14981424Y-9662468D02*
X16166933Y-9662468D01*
X16166933Y-9662468D02*
X17500000Y-8329401D01*
X17500000Y-8329401D02*
X19041599Y-8329401D01*
X19041599Y-8329401D02*
X19121000Y-8250000D01*
D46*
X19800000Y-8250000D02*
X19121000Y-8250000D01*
D44*
X13525066Y-5721734D02*
X13200000Y-6046800D01*
X16279327Y-5721734D02*
X13525066Y-5721734D01*
X16757593Y-6200000D02*
X16279327Y-5721734D01*
X16757593Y-7126213D02*
X16757593Y-6200000D01*
X17381380Y-7750000D02*
X16757593Y-7126213D01*
X18500000Y-7750000D02*
X17381380Y-7750000D01*
X13200000Y-6046800D02*
X13200000Y-7150000D01*
D46*
X19800000Y-7750000D02*
X18500000Y-7750000D01*
X19800000Y-6750000D02*
X18500000Y-6750000D01*
D44*
X12780676Y-5366124D02*
X17116124Y-5366124D01*
X17116124Y-5366124D02*
X18500000Y-6750000D01*
X12100000Y-7150000D02*
X12100000Y-6046800D01*
X12100000Y-6046800D02*
X12780676Y-5366124D01*
M02*
