G04 #@! TF.GenerationSoftware,KiCad,Pcbnew,(2017-11-24 revision a01d81e4b)-makepkg*
G04 #@! TF.CreationDate,2018-02-25T20:08:33+10:30*
G04 #@! TF.ProjectId,ledGlasses,6C6564476C61737365732E6B69636164,rev?*
G04 #@! TF.SameCoordinates,PX5f5e100PY5f5e100*
G04 #@! TF.FileFunction,Paste,Top*
G04 #@! TF.FilePolarity,Positive*
%FSLAX46Y46*%
G04 Gerber Fmt 4.6, Leading zero omitted, Abs format (unit mm)*
G04 Created by KiCad (PCBNEW (2017-11-24 revision a01d81e4b)-makepkg) date 02/25/18 20:08:33*
%MOMM*%
%LPD*%
G01*
G04 APERTURE LIST*
%ADD10R,0.898400X0.898400*%
%ADD11R,0.948400X2.098400*%
%ADD12R,0.398400X0.698400*%
%ADD13R,0.678400X0.678400*%
%ADD14R,0.198400X0.748400*%
%ADD15R,0.748400X0.198400*%
%ADD16R,0.698400X0.798400*%
%ADD17R,0.648400X0.698400*%
%ADD18R,0.898400X1.148400*%
%ADD19R,0.698400X0.648400*%
%ADD20R,1.148400X0.898400*%
%ADD21R,0.698400X0.498400*%
%ADD22R,0.798400X0.398400*%
%ADD23R,0.398400X0.798400*%
%ADD24R,0.698400X0.398400*%
%ADD25R,0.698400X0.298400*%
%ADD26R,0.958400X0.548400*%
%ADD27R,0.548400X0.958400*%
%ADD28R,0.363400X0.618400*%
%ADD29R,0.548400X0.248400*%
%ADD30R,0.598400X1.698400*%
%ADD31R,0.698400X1.698400*%
%ADD32R,0.598400X1.198400*%
%ADD33R,1.348400X0.598400*%
%ADD34R,0.498400X0.998400*%
G04 APERTURE END LIST*
D10*
X3000000Y-9500000D03*
X3000000Y-6500000D03*
D11*
X1525000Y-8000000D03*
X4475000Y-8000000D03*
D12*
X27400000Y-5600000D03*
X28200000Y-5600000D03*
X29000000Y-5600000D03*
X29800000Y-5600000D03*
X30600000Y-5600000D03*
X30600000Y-3400000D03*
X29800000Y-3400000D03*
X29000000Y-3400000D03*
X28200000Y-3400000D03*
X27400000Y-3400000D03*
D13*
X21150000Y-6400000D03*
X21150000Y-7600000D03*
X22350000Y-6400000D03*
X22350000Y-7600000D03*
D14*
X20500000Y-5050000D03*
X21000000Y-5050000D03*
X21500000Y-5050000D03*
X22000000Y-5050000D03*
X22500000Y-5050000D03*
X23000000Y-5050000D03*
D15*
X23700000Y-5750000D03*
X23700000Y-6250000D03*
X23700000Y-6750000D03*
X23700000Y-7250000D03*
X23700000Y-7750000D03*
X23700000Y-8250000D03*
D14*
X23000000Y-8950000D03*
X22500000Y-8950000D03*
X22000000Y-8950000D03*
X21500000Y-8950000D03*
X21000000Y-8950000D03*
X20500000Y-8950000D03*
D15*
X19800000Y-8250000D03*
X19800000Y-7750000D03*
X19800000Y-7250000D03*
X19800000Y-6750000D03*
X19800000Y-6250000D03*
X19800000Y-5750000D03*
D16*
X30000000Y-17000000D03*
X30950000Y-19000000D03*
X29050000Y-19000000D03*
D17*
X30500000Y-7632000D03*
X30500000Y-9132000D03*
X17750000Y-13500000D03*
X17750000Y-12000000D03*
X19250000Y-12000000D03*
X19250000Y-13500000D03*
D18*
X32700000Y-15200000D03*
X30700000Y-15200000D03*
D19*
X26050000Y-1800000D03*
X24550000Y-1800000D03*
D17*
X26000000Y-5250000D03*
X26000000Y-3750000D03*
D19*
X25250000Y-15000000D03*
X26750000Y-15000000D03*
D20*
X20000000Y-16000000D03*
X20000000Y-18000000D03*
X18000000Y-18000000D03*
X18000000Y-16000000D03*
D21*
X28500000Y-13650000D03*
X28500000Y-15350000D03*
D16*
X22000000Y-15500000D03*
X21050000Y-13500000D03*
X22950000Y-13500000D03*
D22*
X24500000Y-2950000D03*
X24500000Y-4450000D03*
X36000000Y-8150000D03*
X36000000Y-9650000D03*
D23*
X36750000Y-21000000D03*
X35250000Y-21000000D03*
X23250000Y-18500000D03*
X21750000Y-18500000D03*
X21750000Y-17000000D03*
X23250000Y-17000000D03*
D24*
X34900000Y-4200000D03*
D25*
X34900000Y-3400000D03*
D24*
X34900000Y-1800000D03*
D25*
X34900000Y-2600000D03*
D24*
X33100000Y-4200000D03*
D25*
X33100000Y-2600000D03*
X33100000Y-3400000D03*
D24*
X33100000Y-1800000D03*
D26*
X27100000Y-17500000D03*
X27100000Y-16550000D03*
X27100000Y-18450000D03*
X24900000Y-18450000D03*
X24900000Y-17500000D03*
X24900000Y-16550000D03*
D27*
X33000000Y-7800000D03*
X32050000Y-7800000D03*
X33950000Y-7800000D03*
X33950000Y-10000000D03*
X33000000Y-10000000D03*
X32050000Y-10000000D03*
D28*
X34000000Y-17400000D03*
X34000000Y-18600000D03*
X34775000Y-17400000D03*
X34775000Y-18600000D03*
D29*
X35937500Y-17025000D03*
X35937500Y-17675000D03*
X35937500Y-18325000D03*
X35937500Y-18975000D03*
X32837500Y-18975000D03*
X32837500Y-18325000D03*
X32837500Y-17675000D03*
X32837500Y-17025000D03*
D17*
X1500000Y-14150000D03*
X1500000Y-15650000D03*
D22*
X3000000Y-15650000D03*
X3000000Y-14150000D03*
D30*
X15400000Y-7150000D03*
D31*
X14300000Y-7150000D03*
X13200000Y-7150000D03*
X12100000Y-7150000D03*
X11000000Y-7150000D03*
X9900000Y-7150000D03*
X8800000Y-7150000D03*
X7700000Y-7150000D03*
D30*
X6600000Y-7150000D03*
X6600000Y-16750000D03*
D31*
X7700000Y-16750000D03*
X8800000Y-16750000D03*
X9900000Y-16750000D03*
X11000000Y-16750000D03*
X12100000Y-16750000D03*
X13200000Y-16750000D03*
X14300000Y-16750000D03*
D30*
X15400000Y-16750000D03*
D32*
X26850000Y-13100000D03*
X24950000Y-13100000D03*
D23*
X1450000Y-11300000D03*
X2950000Y-11300000D03*
D33*
X13080000Y-1750000D03*
X7920000Y-1750000D03*
X7920000Y-3750000D03*
X13080000Y-3750000D03*
D34*
X19200000Y-10500000D03*
X17800000Y-10500000D03*
M02*
